<svg width="206" height="19" viewBox="0 0 206 19" fill="none" xmlns="http://www.w3.org/2000/svg">
<g id="Group 1000006600">
<path id="Vector" d="M0.480076 0.487793H0.600098C1.02017 0.609578 1.32022 0.670462 1.44024 0.670462H8.46138C9.48155 0.548678 10.0216 0.487793 10.2617 0.487793H10.3217C10.4417 0.487793 10.6817 0.548663 10.9218 0.73134V1.34026H10.5617C9.66158 1.34026 8.88145 1.64474 8.28135 2.19277C8.10132 2.43634 7.9813 2.6799 7.9813 2.98436V3.10615C7.9813 3.47151 8.34136 4.75024 9.00147 6.94236C9.12149 7.55129 9.30152 7.97755 9.54156 8.22112C9.90162 8.4038 10.2617 8.70826 10.6217 9.13451L10.6817 9.37805L10.3817 10.4132C10.3817 11.083 10.9218 12.3618 11.942 14.3104H12.002C12.362 13.8841 12.8421 12.7271 13.5622 10.8395C13.6222 10.8395 13.6222 10.7177 13.6822 10.4741C13.6822 9.92608 13.6222 9.62162 13.6222 9.56072C13.6222 9.43894 13.9823 9.07359 14.6424 8.46467C15.0625 7.49039 15.4825 6.51612 15.8426 5.42005C16.4427 4.20221 16.6827 3.41062 16.7427 3.10615V2.98436C16.7427 2.37544 16.4427 2.01009 15.8426 1.76652C15.7226 1.70562 15.3025 1.70562 14.5824 1.64472C14.1023 1.52294 13.8623 1.27939 13.8623 0.974924V0.914047C13.9223 0.609585 13.9823 0.487793 14.1623 0.487793H14.2823C15.1225 0.609578 15.9626 0.670462 16.8027 0.670462L21.1835 0.487793C21.4835 0.548685 21.6035 0.670455 21.6035 0.853132V1.15759C21.6035 1.34027 21.4235 1.46208 21.1235 1.52297C19.5632 1.94922 18.7831 2.31454 18.7831 2.55811C18.423 2.86257 18.063 3.34974 17.7629 3.95866C16.2627 6.75971 15.5425 8.46467 15.5425 9.07359V9.13451C15.6626 9.62165 15.7226 9.86521 15.7226 9.9261C15.7226 10.1088 15.4825 10.2914 15.0024 10.4132C14.8224 10.535 14.2823 11.6311 13.3822 13.6405C12.302 16.3198 11.4619 18.0857 10.9818 18.8773C10.8018 18.9991 10.6217 18.999 10.4417 18.999H10.1417C9.72159 18.9381 9.54156 18.8164 9.54156 18.6946C9.30152 17.7203 8.70142 16.1371 7.80127 13.945C7.26118 12.1791 6.84112 11.2657 6.54107 11.1439C5.94097 10.7177 5.64092 10.2306 5.64092 9.74343C5.64092 9.62165 5.76094 9.31719 5.94097 8.83005C5.94097 8.76915 5.40088 7.49041 4.38071 5.05472C4.02065 4.14133 3.6606 3.47152 3.18052 2.92349C2.64043 2.31456 1.62026 1.82742 0.120018 1.40118L0 1.27939V1.09672C0.12002 0.609578 0.240037 0.487793 0.480076 0.487793ZM4.02066 1.82743C4.44073 2.071 4.98081 3.28883 5.70093 5.54185C6.18101 6.6988 6.54107 7.4904 6.78111 7.97754L6.90112 8.03842V7.30774C6.90112 7.18595 6.72109 6.69879 6.30103 5.72452C5.76094 3.77596 5.34087 2.49722 4.98081 1.94919C4.80078 1.76651 4.62075 1.70564 4.38071 1.70564C4.20068 1.64475 4.08067 1.70565 4.02066 1.82743ZM6.84112 9.43897C6.96114 9.92611 7.3212 10.1696 7.9213 10.1696C8.94147 9.92608 9.48155 9.62164 9.48155 9.31718V9.19539C9.48155 8.95182 9.30152 8.83002 8.94146 8.76913C7.56124 8.83002 6.84112 9.01272 6.84112 9.43897ZM8.34136 11.5093V11.7529C8.34136 12.1182 8.52139 12.8489 8.88145 13.8232C9.36153 14.4321 9.60157 14.9193 9.60157 15.2237C9.60157 15.4673 9.7816 16.0153 10.2017 16.8069C10.2017 17.0505 10.3217 17.1723 10.5617 17.1723V16.9287C10.5617 16.5634 9.96163 14.9192 8.76143 11.9964C8.64141 11.692 8.5214 11.5093 8.5214 11.5093H8.34136Z" fill="#0E1B29"/>
<path id="Vector_2" d="M33.9055 0.487793H34.2656C35.8258 0.487793 36.786 0.609563 37.146 0.853132C38.1062 0.853132 39.3664 1.52294 40.8666 2.86257C41.8268 3.89774 42.4869 4.99383 42.7869 6.08989C43.087 7.6122 43.387 8.46466 43.5671 8.64734C43.8071 9.01269 43.9271 9.25629 43.9271 9.43897V9.68252C43.9271 9.98698 43.7471 10.4132 43.327 11.083C43.087 12.1182 42.907 12.8489 42.7869 13.2143C42.0668 15.1628 40.6866 16.6851 38.6463 17.7812C37.3861 18.3901 36.5459 18.6946 36.1259 18.6946L35.1657 18.9382H31.8052C30.3649 18.6946 29.0447 18.2683 27.7845 17.5985C26.2842 16.6851 25.2641 15.4673 24.724 14.0059C24.544 13.6405 24.3639 12.9098 24.1239 11.8137C23.7038 10.6568 23.5238 9.98697 23.5238 9.86519C23.5238 9.7434 23.7038 9.25629 24.0639 8.40379C24.0639 7.73398 24.424 6.63792 25.024 5.17651C25.9842 3.34974 27.6645 1.94921 30.0649 1.09672C31.2651 0.67047 32.5853 0.487793 33.9055 0.487793ZM28.3246 8.282C28.3246 8.58646 28.5046 9.01269 28.8047 9.56072C28.8047 9.80429 28.8647 9.9261 28.8647 9.9261C28.8647 10.1088 28.6846 10.535 28.2646 11.3266V11.3875C28.4446 12.0573 28.6246 12.7271 28.7447 13.4578C29.4648 15.5891 30.545 17.0505 31.9252 17.8421C32.4053 18.0857 32.8853 18.2074 33.4254 18.2074C34.8056 18.2074 36.0659 17.4158 37.266 15.7717C37.8061 15.041 38.2262 13.8841 38.5263 12.4227L38.8863 11.2657C38.6463 10.2915 38.4662 9.80432 38.4662 9.74343L39.0663 8.03842C38.7063 6.577 38.1662 5.17649 37.3861 3.89775C36.3659 2.25365 35.0457 1.40118 33.2454 1.40118C31.8652 1.40118 30.545 2.43635 29.3448 4.56758C29.1047 5.05472 28.7447 6.029 28.3246 7.6122V8.282ZM37.026 1.82743C38.4062 3.47152 39.3664 5.1156 39.7865 6.75969C39.9065 7.36862 40.0265 7.73396 40.0265 7.85575H40.4466C40.5666 7.61218 40.6266 7.36861 40.6266 7.24682C40.5066 6.27255 39.9065 4.93292 38.7663 3.28882C37.9862 2.31455 37.3861 1.82743 37.026 1.82743ZM25.1441 7.85575C25.2041 7.97753 25.2041 7.97754 25.2641 7.97754H25.5641C25.6842 7.79486 25.8042 7.4904 25.8642 7.06415C25.9842 6.45523 26.2843 5.66364 26.8243 4.75025C26.8844 4.68936 27.0644 4.38489 27.4844 3.71508H27.4244C27.0644 3.89775 26.6443 4.38489 26.1642 5.11559C25.5041 6.57701 25.1441 7.49039 25.1441 7.85575ZM39.7865 9.49985C39.7865 9.92609 40.2665 10.1697 41.1667 10.2306H41.2867C42.0068 10.2306 42.5469 10.0479 42.7869 9.62164V9.49985C42.7869 9.0736 42.4269 8.83004 41.7068 8.70825C41.5868 8.70825 41.4067 8.64734 41.2867 8.64734C40.4466 8.64734 39.9065 8.95182 39.8465 9.49985H39.7865ZM24.664 9.74343C24.664 9.987 25.0841 10.2305 25.9842 10.4741H26.1042C27.1244 10.2305 27.6645 9.92608 27.6645 9.56072V9.49985C27.6645 9.13449 27.1244 8.9518 26.1042 8.9518C25.1441 8.9518 24.664 9.1954 24.664 9.74343ZM37.8061 16.8678C38.4662 16.4416 39.0063 15.8327 39.3664 15.1019C40.1465 13.8232 40.5066 12.788 40.5066 11.8747C40.5066 11.8747 40.5666 11.8746 40.5666 11.8137C40.5066 11.5093 40.3866 11.3266 40.1465 11.3266H40.0865C39.8465 11.3266 39.7265 11.6311 39.7265 12.3009C39.3064 13.7623 38.7663 15.1019 38.1062 16.3807C37.9262 16.6242 37.8061 16.8069 37.8061 16.8678ZM25.2641 11.8137C25.2041 12.1791 25.2041 12.3618 25.1441 12.3618C25.6842 14.2495 26.5243 15.4673 27.6045 16.1371V16.0762C26.5243 14.6757 26.0442 13.6405 26.0442 12.9707C25.9242 12.24 25.8042 11.8747 25.6241 11.8747C25.6241 11.8138 25.5041 11.8138 25.3841 11.7529H25.2641V11.8137Z" fill="#0E1B29"/>
<path id="Vector_3" d="M55.8095 0.487793H56.1696C57.7299 0.487793 58.69 0.609563 59.0501 0.853132C60.0102 0.853132 61.2704 1.52294 62.7707 2.86257C63.7308 3.89774 64.391 4.99383 64.691 6.08989C64.9911 7.6122 65.2911 8.46466 65.4711 8.64734C65.7112 9.01269 65.8312 9.25629 65.8312 9.43897V9.68252C65.8312 9.98698 65.6512 10.4132 65.2311 11.083C64.9911 12.1182 64.811 12.8489 64.691 13.2143C63.9709 15.1628 62.5907 16.6851 60.5503 17.7812C59.2901 18.3901 58.45 18.6946 58.0299 18.6946L57.0698 18.9382H53.7092C52.269 18.6946 50.9488 18.2683 49.6885 17.5985C48.1883 16.6851 47.1681 15.4673 46.6281 14.0059C46.448 13.6405 46.268 12.9098 46.028 11.8137C45.6079 10.6568 45.4279 9.98697 45.4279 9.86519C45.4279 9.7434 45.6079 9.25629 45.9679 8.40379C45.9679 7.73398 46.328 6.63792 46.9281 5.17651C47.8883 3.34974 49.5685 1.94921 51.9689 1.09672C53.1691 0.67047 54.4893 0.487793 55.8095 0.487793ZM50.2886 8.282C50.2886 8.58646 50.4687 9.01269 50.7687 9.56072C50.7687 9.80429 50.8287 9.9261 50.8287 9.9261C50.8287 10.1088 50.6487 10.535 50.2286 11.3266V11.3875C50.4087 12.0573 50.5887 12.7271 50.7087 13.4578C51.4288 15.5891 52.509 17.0505 53.8892 17.8421C54.3693 18.0857 54.8494 18.2074 55.3895 18.2074C56.7697 18.2074 58.0299 17.4158 59.2301 15.7717C59.7702 15.041 60.1903 13.8841 60.4903 12.4227L60.8504 11.2657C60.6103 10.2915 60.4303 9.80432 60.4303 9.74343L61.0304 8.03842C60.6703 6.577 60.1303 5.17649 59.3501 3.89775C58.33 2.25365 57.0097 1.40118 55.2094 1.40118C53.8292 1.40118 52.509 2.43635 51.3088 4.56758C51.0688 5.05472 50.7087 6.029 50.2886 7.6122V8.282ZM58.9301 1.82743C60.3103 3.47152 61.2704 5.1156 61.6905 6.75969C61.8105 7.36862 61.9306 7.73396 61.9306 7.85575H62.3506C62.4706 7.61218 62.5307 7.36861 62.5307 7.24682C62.4106 6.27255 61.8105 4.93292 60.6703 3.28882C59.8902 2.31455 59.2901 1.82743 58.9301 1.82743ZM47.0481 7.85575C47.1081 7.97753 47.1081 7.97754 47.1681 7.97754H47.4682C47.5882 7.79486 47.7082 7.4904 47.7682 7.06415C47.8883 6.45523 48.1883 5.66364 48.7284 4.75025C48.7884 4.68936 48.9684 4.38489 49.3885 3.71508H49.3285C48.9684 3.89775 48.5484 4.38489 48.0683 5.11559C47.4082 6.57701 47.0481 7.49039 47.0481 7.85575ZM61.6905 9.49985C61.6905 9.92609 62.1706 10.1697 63.0707 10.2306H63.1908C63.9109 10.2306 64.451 10.0479 64.691 9.62164V9.49985C64.691 9.0736 64.3309 8.83004 63.6108 8.70825C63.4908 8.70825 63.3108 8.64734 63.1908 8.64734C62.3506 8.64734 61.8105 8.95182 61.7505 9.49985H61.6905ZM46.568 9.74343C46.568 9.987 46.9881 10.2305 47.8883 10.4741H48.0083C49.0284 10.2305 49.5685 9.92608 49.5685 9.56072V9.49985C49.5685 9.13449 49.0284 8.9518 48.0083 8.9518C47.0481 8.9518 46.568 9.1954 46.568 9.74343ZM59.7102 16.8678C60.3703 16.4416 60.9104 15.8327 61.2704 15.1019C62.0506 13.8232 62.4106 12.788 62.4106 11.8747C62.4106 11.8747 62.4706 11.8746 62.4706 11.8137C62.4106 11.5093 62.2906 11.3266 62.0506 11.3266H61.9906C61.7505 11.3266 61.6305 11.6311 61.6305 12.3009C61.2104 13.7623 60.6703 15.1019 60.0102 16.3807C59.8302 16.6242 59.7102 16.8069 59.7102 16.8678ZM47.1681 11.8137C47.1081 12.1791 47.1081 12.3618 47.0481 12.3618C47.5882 14.2495 48.4283 15.4673 49.5085 16.1371V16.0762C48.4283 14.6757 47.9483 13.6405 47.9483 12.9707C47.8282 12.24 47.7082 11.8747 47.5282 11.8747C47.5282 11.8138 47.4082 11.8138 47.2882 11.7529H47.1681V11.8137Z" fill="#0E1B29"/>
<path id="Vector_4" d="M68.2915 0C69.2517 0.182677 69.7918 0.304462 69.9118 0.304462H76.873C77.6531 0.182677 78.1332 0.121755 78.2532 0.121755H78.4332C78.7933 0.121755 78.9733 0.365346 79.0333 0.791593V0.974262C79.0333 1.33962 78.7933 1.52231 78.3732 1.52231L78.2532 1.46139C78.1932 1.46139 77.8331 1.46141 77.173 1.40052C76.2729 1.40052 75.7328 2.00944 75.4927 3.22729C75.3727 4.01889 75.3127 5.54119 75.3127 7.79421C75.3127 8.09867 75.4927 8.46401 75.8528 8.76847C76.0928 9.13383 76.2128 9.49918 76.2128 9.68186C76.2128 9.80364 75.9128 10.3517 75.3127 11.1433C75.1327 12.3002 75.0126 13.3354 75.0126 14.3706V16.2582C75.0126 16.9889 75.1327 17.4152 75.4327 17.6588H78.0732C79.5134 17.4152 80.5336 17.1107 81.1937 16.8671C81.7338 16.6236 82.4539 16.0756 83.474 15.1622C84.4342 14.127 84.9143 13.4572 84.9143 13.0918C85.0943 12.6656 85.2743 12.4829 85.3944 12.4829H85.5744C86.0545 12.4829 86.2945 12.7265 86.2945 13.2136V13.2745C86.2945 13.3963 86.2345 13.8834 86.0544 14.7359C86.0544 14.9186 86.1145 15.1622 86.1745 15.3448C86.0545 17.6587 85.9344 18.7548 85.8744 18.7548H71.6521C71.232 18.7548 69.8518 18.8157 67.5714 18.9375C67.3314 18.8766 67.1514 18.7548 67.1514 18.5722V18.3286C67.2114 17.9632 67.3914 17.7805 67.6915 17.7805C68.5916 17.6587 69.1917 17.4761 69.6118 17.2325C70.0918 16.9281 70.4519 16.38 70.6919 15.6493C70.812 15.4666 70.872 14.3097 70.992 12.2393V11.9349C70.992 11.3868 70.752 10.8997 70.3319 10.3517C70.2719 10.2299 70.2119 10.1081 70.2119 9.98632C70.2719 9.56007 70.5119 9.01205 70.992 8.28134V3.16637C70.752 2.31388 70.2719 1.70496 69.6718 1.46139C68.2315 1.15693 67.5114 0.91337 67.5114 0.669801C67.7515 0.243554 67.9315 0 68.2915 0ZM71.7721 1.46139C72.1322 2.1921 72.3122 3.77532 72.3122 6.2719V6.88082C72.3122 7.0635 72.3122 7.42886 72.2522 7.916H72.4922C72.5522 7.79422 72.6723 7.42886 72.7323 6.88082C72.7323 6.63726 72.7323 5.29761 72.7923 2.9837C72.7923 2.00942 72.6123 1.52231 72.2522 1.52231C72.2522 1.46142 72.1922 1.46139 72.0122 1.46139H71.7721ZM71.7121 9.49919V9.56006C71.7721 9.98631 71.9522 10.169 72.2522 10.169C72.4922 10.2908 72.9123 10.3517 73.4524 10.4126C74.4126 10.2299 74.8926 9.98631 74.8926 9.56006V9.49919C74.8926 9.13383 74.2925 8.95114 73.0923 8.95114H72.4922C72.0122 9.01203 71.7121 9.13383 71.7121 9.49919ZM72.4922 11.874C72.3122 12.2394 72.1922 13.1527 72.1322 14.6142C72.1322 15.8929 71.9521 16.8062 71.5921 17.1716L71.5321 17.4152V17.537H71.7121C72.1322 17.537 72.3722 17.4152 72.4922 17.1716C72.6123 17.1716 72.7323 16.0756 72.7923 13.9443C72.7923 13.9443 72.8523 13.6399 72.9123 13.0309L72.7923 11.8131H72.4922V11.874ZM84.7342 15.7102C84.5542 16.1365 83.9541 16.7454 82.994 17.537C83.174 17.5979 83.354 17.6588 83.414 17.6588H83.474C84.0741 17.6588 84.4342 17.537 84.6142 17.2934C84.7342 17.0498 84.7943 16.7454 84.7943 16.5018V16.1365C84.8543 16.0147 84.8543 15.8929 84.7342 15.7102Z" fill="#0E1B29"/>
<path id="Vector_5" d="M99.616 0.487793C100.036 0.487793 100.276 0.670448 100.396 1.0358C100.756 1.94919 101.356 3.65417 102.136 6.21165C102.677 7.61217 103.037 8.282 103.337 8.282C103.997 8.70825 104.357 9.07359 104.417 9.37806V9.62164C104.237 10.0479 104.177 10.2914 104.177 10.4132C104.537 11.7529 105.077 13.3969 105.917 15.3455C106.277 16.2589 106.757 16.9287 107.357 17.2941C107.597 17.5376 108.017 17.6594 108.557 17.6594C109.338 17.7812 109.698 18.0248 109.698 18.2684V18.5119C109.638 18.6337 109.518 18.7555 109.398 18.8164H99.316C99.256 18.8164 99.196 18.6337 99.196 18.2684L99.256 18.0248C99.556 18.0857 99.736 18.0856 99.7961 18.0856C100.696 18.0856 101.476 17.6594 102.016 16.8678C102.076 16.6851 102.136 16.5024 102.196 16.2589C102.196 15.8935 101.776 14.5539 100.996 12.3009C100.816 11.3266 100.576 10.9004 100.396 10.9004C100.096 10.5959 99.7961 10.4741 99.436 10.4741H98.4758C97.5757 10.535 97.0956 10.535 97.0356 10.535H96.6755C96.0154 10.535 95.4753 10.9613 95.2353 11.8137C94.1551 14.3103 93.555 15.8327 93.555 16.4416V16.5025C93.555 17.0505 93.8551 17.4768 94.4552 17.6594C95.4153 17.8421 95.9554 18.0248 96.0154 18.0856C96.0754 18.0856 96.0754 18.1466 96.0754 18.1466V18.3901C96.0754 18.5728 95.8954 18.6946 95.5954 18.6946C94.5752 18.6946 93.7951 18.6337 93.255 18.6337C92.7149 18.6337 91.3947 18.6946 89.2943 18.8773H88.8743C88.5742 18.8773 88.3942 18.6337 88.3942 18.2074C88.3942 17.8421 88.5742 17.6594 88.9343 17.6594C89.8944 17.5376 90.5545 17.4158 91.0346 17.1723C91.8748 16.6851 92.5949 15.5891 93.315 13.945C94.0951 12.3009 94.5752 11.2048 94.7552 10.7177C94.5152 10.2306 94.3352 9.92609 94.3352 9.80431C94.3352 9.56074 94.5152 9.37806 94.9353 9.19539C95.1753 9.0736 95.4754 8.46468 95.8954 7.36862C96.1955 6.57702 96.5555 5.66362 96.9756 4.68934C97.2756 3.77596 97.5757 2.80168 97.8757 1.64472C98.1158 0.853125 98.5358 0.487793 99.0159 0.487793C99.0759 0.548685 99.256 0.548685 99.616 0.487793C99.616 0.548685 99.556 0.548685 99.616 0.487793ZM98.6559 3.22795V3.59329C98.6559 4.32399 98.8959 5.11561 99.376 5.9681C99.556 6.39435 99.736 7.06416 99.9761 7.97754C100.096 8.09932 100.216 8.16021 100.276 8.16021H100.396C100.456 8.16021 100.456 8.09931 100.516 8.03842V7.85575C100.576 7.79486 99.9761 6.27256 98.6559 3.22795ZM98.0558 4.87205C97.2156 6.88149 96.6155 8.34288 96.3155 9.25626C96.3755 9.56073 96.4955 9.68252 96.5555 9.68252H98.7159C98.8959 9.68252 99.1959 9.43896 99.556 9.01272C98.7159 6.7597 98.2358 5.35919 98.0558 4.87205ZM100.216 9.49985C100.216 9.8652 100.456 10.1088 100.996 10.2306H101.116C102.556 10.0479 103.277 9.80432 103.277 9.43897C103.277 9.01272 102.977 8.76915 102.376 8.70826H102.256C100.876 8.83004 100.216 9.0736 100.216 9.49985ZM101.536 11.5093C102.196 13.5187 102.737 15.1628 102.977 16.6243V16.6851C102.977 16.8678 102.917 17.1723 102.737 17.6594H102.797L103.457 17.7812C103.817 17.6594 103.997 17.5985 103.997 17.4767V17.355C103.997 16.746 103.397 14.9801 102.256 11.9964C102.076 11.6311 102.016 11.4484 101.896 11.4484L101.536 11.5093Z" fill="#0E1B29"/>
<path id="Vector_6" d="M111.738 0.0625C112.759 0.184285 114.139 0.306084 115.999 0.306084C116.539 0.306084 117.679 0.306069 119.48 0.366962C119.6 0.366962 119.66 0.427839 119.72 0.427839C120.32 0.306054 120.74 0.24517 121.1 0.24517H121.58C122.06 0.24517 122.3 0.366962 122.3 0.671423V0.793215C122.3 0.975892 122.18 1.03676 121.88 1.03676C120.38 1.09765 119.66 1.34123 119.66 1.76748C119.66 1.76748 119.6 1.7675 119.6 1.82839C120.56 3.65516 121.58 5.42102 122.72 6.94332C122.9 7.18689 123.08 7.30867 123.26 7.43046C123.5 7.24778 124.16 6.4562 125.301 5.05568C125.361 4.93389 126.081 4.02049 127.521 2.25461C127.581 2.19372 127.641 2.07195 127.701 1.88927C127.581 1.34124 127.161 1.09768 126.441 1.09768C126.321 1.09768 126.201 1.03676 126.141 1.03676C125.841 1.03676 125.541 1.09768 125.361 1.09768V0.488754C125.361 0.427861 125.421 0.366976 125.541 0.306084H126.801C127.401 0.306084 128.181 0.306069 129.141 0.366962L132.502 0.0625C132.802 0.184285 132.922 0.306077 132.922 0.488754V0.732301C132.922 0.97587 132.562 1.15855 131.842 1.15855C130.221 1.15855 128.901 1.95017 127.761 3.53337C126.981 4.56854 126.501 5.11656 126.381 5.11656C126.021 5.23834 125.841 5.54281 125.841 5.84727C124.701 7.1869 124.1 7.97851 124.1 8.10029C124.521 8.77011 124.761 9.19636 124.761 9.43993V9.50081C124.761 9.62259 124.521 10.1097 124.1 11.084C124.1 11.2058 124.04 11.3276 124.04 11.3885C123.98 13.7633 123.98 15.3465 123.98 16.1381C123.98 16.8079 124.22 17.2341 124.761 17.3559C125.001 17.4168 125.781 17.5386 127.101 17.7213C127.461 17.8431 127.641 17.9648 127.641 18.1475C127.641 18.5129 127.401 18.8173 126.861 19H126.621C126.501 19 126.261 18.8782 125.781 18.6955C122.6 18.6346 120.74 18.5738 120.14 18.5738C119.3 18.6347 118.28 18.7564 117.199 18.9391C116.839 18.8782 116.659 18.8173 116.599 18.8173V18.1475C116.719 17.8431 117.319 17.7213 118.28 17.7213C119.06 17.7213 119.6 17.4777 119.84 16.9297C120.2 16.0772 120.38 15.59 120.38 15.3465V13.0935C120.38 11.5712 120.2 10.6578 119.84 10.4142C119.6 10.0488 119.42 9.80526 119.42 9.68348V9.50081L119.6 8.77009C119.18 7.85671 118.4 6.63888 117.139 5.05568C115.459 2.43731 114.079 1.15855 112.999 1.15855C112.639 1.21945 112.279 1.21947 111.978 1.21947C111.618 1.21947 111.438 1.09768 111.378 0.793215V0.488754C111.258 0.184292 111.438 0.0625 111.738 0.0625ZM115.699 1.52393C118.46 5.29925 119.96 7.30868 120.08 7.55225H120.14V7.49137C119.84 6.76066 118.94 5.42102 117.439 3.41158C117.019 2.55909 116.599 2.01104 116.299 1.64569C116.119 1.5239 115.999 1.46302 115.819 1.46302H115.699V1.52393ZM120.62 9.31814C121.58 9.92706 122.24 10.2315 122.54 10.2315C122.96 10.2315 123.26 9.92706 123.5 9.31814V9.25723C123.5 8.95276 122.9 8.70921 121.7 8.58743C120.98 8.70921 120.62 8.89189 120.62 9.31814ZM121.22 11.2667C121.16 11.5712 121.16 11.8756 121.16 12.0583C121.16 12.6672 121.16 13.7633 121.22 15.2856C121.04 16.4425 120.92 17.1124 120.92 17.3559L121.04 17.4168H121.28C121.52 17.295 121.7 16.5034 121.7 14.8593C121.76 14.0677 121.76 13.1543 121.76 12.1192C121.58 11.5102 121.46 11.2058 121.34 11.2058C121.28 11.3276 121.22 11.2667 121.22 11.2667Z" fill="#0E1B29"/>
<path id="Vector_7" d="M140.063 0.487793H140.183C140.603 0.609578 140.903 0.670462 141.023 0.670462H147.985C149.005 0.548678 149.545 0.487793 149.785 0.487793H149.845C149.965 0.487793 150.205 0.548663 150.445 0.73134V1.34026H150.085C149.185 1.34026 148.405 1.64474 147.804 2.19277C147.624 2.43634 147.504 2.6799 147.504 2.98436V3.10615C147.504 3.47151 147.864 4.75024 148.525 6.94236C148.645 7.55129 148.825 7.97755 149.065 8.22112C149.425 8.4038 149.785 8.70826 150.145 9.13451L150.205 9.37805L149.905 10.4132C149.905 11.083 150.445 12.3618 151.465 14.3104H151.525C151.885 13.8841 152.365 12.7271 153.085 10.8395C153.145 10.8395 153.145 10.7177 153.205 10.4741C153.205 9.92608 153.145 9.62162 153.145 9.56072C153.145 9.43894 153.505 9.07359 154.166 8.46467C154.586 7.49039 155.006 6.51612 155.366 5.42005C155.966 4.20221 156.206 3.41062 156.266 3.10615V2.98436C156.266 2.37544 155.966 2.01009 155.366 1.76652C155.246 1.70562 154.826 1.70562 154.106 1.64472C153.625 1.52294 153.385 1.27939 153.385 0.974924V0.914047C153.445 0.609585 153.505 0.487793 153.685 0.487793H153.805C154.646 0.609578 155.486 0.670462 156.326 0.670462L160.707 0.487793C161.007 0.548685 161.127 0.670455 161.127 0.853132V1.15759C161.127 1.34027 160.947 1.46208 160.647 1.52297C159.086 1.94922 158.306 2.31454 158.306 2.55811C157.946 2.86257 157.586 3.34974 157.346 3.95866C155.846 6.75971 155.126 8.46467 155.126 9.07359V9.13451C155.246 9.62165 155.306 9.86521 155.306 9.9261C155.306 10.1088 155.066 10.2914 154.586 10.4132C154.406 10.535 153.865 11.6311 152.965 13.6405C151.885 16.3198 151.045 18.0857 150.565 18.8773C150.385 18.9991 150.205 18.999 150.025 18.999H149.725C149.305 18.9381 149.125 18.8164 149.125 18.6946C148.885 17.7203 148.285 16.1371 147.384 13.945C146.844 12.1791 146.424 11.2657 146.124 11.1439C145.524 10.7177 145.224 10.2306 145.224 9.74343C145.224 9.62165 145.344 9.31719 145.524 8.83005C145.524 8.76915 144.984 7.49041 143.964 5.05472C143.604 4.14133 143.244 3.47152 142.764 2.92349C142.224 2.31456 141.203 1.82742 139.703 1.40118L139.583 1.27939V1.09672C139.643 0.609578 139.763 0.487793 140.063 0.487793ZM143.544 1.82743C143.964 2.071 144.504 3.28883 145.224 5.54185C145.704 6.6988 146.064 7.4904 146.304 7.97754L146.424 8.03842V7.30774C146.424 7.18595 146.244 6.69879 145.824 5.72452C145.284 3.77596 144.864 2.49722 144.504 1.94919C144.324 1.76651 144.144 1.70564 143.904 1.70564C143.724 1.64475 143.604 1.70565 143.544 1.82743ZM146.364 9.43897C146.484 9.92611 146.844 10.1696 147.444 10.1696C148.465 9.92608 149.005 9.62164 149.005 9.31718V9.19539C149.005 8.95182 148.825 8.83002 148.465 8.76913C147.084 8.83002 146.364 9.01272 146.364 9.43897ZM147.864 11.5093V11.7529C147.864 12.1182 148.045 12.8489 148.405 13.8232C148.885 14.4321 149.125 14.9193 149.125 15.2237C149.125 15.4673 149.305 16.0153 149.725 16.8069C149.725 17.0505 149.845 17.1723 150.085 17.1723V16.9287C150.085 16.5634 149.485 14.9192 148.285 11.9964C148.165 11.692 148.045 11.5093 148.045 11.5093H147.864Z" fill="#0E1B29"/>
<path id="Vector_8" d="M173.428 0.487793H173.788C175.349 0.487793 176.309 0.609563 176.669 0.853132C177.629 0.853132 178.889 1.52294 180.39 2.86257C181.35 3.89774 182.01 4.99383 182.31 6.08989C182.61 7.6122 182.91 8.46466 183.09 8.64734C183.33 9.01269 183.45 9.25629 183.45 9.43897V9.68252C183.45 9.98698 183.27 10.4132 182.85 11.083C182.61 12.1182 182.43 12.8489 182.31 13.2143C181.59 15.1628 180.209 16.6851 178.169 17.7812C176.909 18.3901 176.069 18.6946 175.649 18.6946L174.689 18.9382H171.328C169.888 18.6946 168.568 18.2683 167.307 17.5985C165.807 16.6851 164.787 15.4673 164.247 14.0059C164.067 13.6405 163.887 12.9098 163.647 11.8137C163.227 10.6568 163.047 9.98697 163.047 9.86519C163.047 9.7434 163.227 9.25629 163.587 8.40379C163.587 7.73398 163.947 6.63792 164.547 5.17651C165.507 3.34974 167.187 1.94921 169.588 1.09672C170.788 0.67047 172.108 0.487793 173.428 0.487793ZM167.907 8.282C167.907 8.58646 168.088 9.01269 168.388 9.56072C168.388 9.80429 168.448 9.9261 168.448 9.9261C168.448 10.1088 168.268 10.535 167.847 11.3266V11.3875C168.028 12.0573 168.208 12.7271 168.328 13.4578C169.048 15.5891 170.128 17.0505 171.508 17.8421C171.988 18.0857 172.468 18.2074 173.008 18.2074C174.389 18.2074 175.649 17.4158 176.849 15.7717C177.389 15.041 177.809 13.8841 178.109 12.4227L178.469 11.2657C178.229 10.2915 178.049 9.80432 178.049 9.74343L178.649 8.03842C178.289 6.577 177.749 5.17649 176.969 3.89775C175.949 2.25365 174.629 1.40118 172.828 1.40118C171.448 1.40118 170.128 2.43635 168.928 4.56758C168.688 5.05472 168.328 6.029 167.907 7.6122V8.282ZM176.549 1.82743C177.929 3.47152 178.889 5.1156 179.309 6.75969C179.429 7.36862 179.549 7.73396 179.549 7.85575H179.969C180.089 7.61218 180.149 7.36861 180.149 7.24682C180.029 6.27255 179.429 4.93292 178.289 3.28882C177.509 2.31455 176.909 1.82743 176.549 1.82743ZM164.667 7.85575C164.727 7.97753 164.727 7.97754 164.787 7.97754H165.087C165.207 7.79486 165.327 7.4904 165.387 7.06415C165.507 6.45523 165.807 5.66364 166.347 4.75025C166.407 4.68936 166.587 4.38489 167.007 3.71508H166.947C166.587 3.89775 166.167 4.38489 165.687 5.11559C165.087 6.57701 164.667 7.49039 164.667 7.85575ZM179.309 9.49985C179.309 9.92609 179.789 10.1697 180.69 10.2306H180.81C181.53 10.2306 182.07 10.0479 182.31 9.62164V9.49985C182.31 9.0736 181.95 8.83004 181.23 8.70825C181.11 8.70825 180.93 8.64734 180.81 8.64734C179.969 8.64734 179.429 8.95182 179.369 9.49985H179.309ZM164.187 9.74343C164.187 9.987 164.607 10.2305 165.507 10.4741H165.627C166.647 10.2305 167.187 9.92608 167.187 9.56072V9.49985C167.187 9.13449 166.647 8.9518 165.627 8.9518C164.667 8.9518 164.187 9.1954 164.187 9.74343ZM177.329 16.8678C177.989 16.4416 178.529 15.8327 178.889 15.1019C179.669 13.8232 180.029 12.788 180.029 11.8747C180.029 11.8747 180.089 11.8746 180.089 11.8137C180.029 11.5093 179.909 11.3266 179.669 11.3266H179.609C179.369 11.3266 179.249 11.6311 179.249 12.3009C178.829 13.7623 178.289 15.1019 177.629 16.3807C177.449 16.6242 177.329 16.8069 177.329 16.8678ZM164.787 11.8137C164.727 12.1791 164.727 12.3618 164.667 12.3618C165.207 14.2495 166.047 15.4673 167.127 16.1371V16.0762C166.047 14.6757 165.567 13.6405 165.567 12.9707C165.447 12.24 165.327 11.8747 165.147 11.8747C165.147 11.8138 165.027 11.8138 164.907 11.7529H164.787V11.8137Z" fill="#0E1B29"/>
<path id="Vector_9" d="M195.332 0.487793H195.692C197.252 0.487793 198.212 0.609563 198.572 0.853132C199.532 0.853132 200.793 1.52294 202.293 2.86257C203.253 3.89774 203.913 4.99383 204.213 6.08989C204.513 7.6122 204.813 8.46466 204.993 8.64734C205.233 9.01269 205.353 9.25629 205.353 9.43897V9.68252C205.353 9.98698 205.173 10.4132 204.753 11.083C204.513 12.1182 204.333 12.8489 204.213 13.2143C203.493 15.1628 202.113 16.6851 200.073 17.7812C198.812 18.3901 197.972 18.6946 197.552 18.6946L196.592 18.9382H193.231C191.791 18.6946 190.471 18.2683 189.211 17.5985C187.711 16.6851 186.69 15.4673 186.15 14.0059C185.97 13.6405 185.79 12.9098 185.55 11.8137C185.13 10.6568 184.95 9.98697 184.95 9.86519C184.95 9.7434 185.13 9.25629 185.49 8.40379C185.49 7.73398 185.85 6.63792 186.45 5.17651C187.411 3.34974 189.091 1.94921 191.491 1.09672C192.691 0.67047 194.012 0.487793 195.332 0.487793ZM189.811 8.282C189.811 8.58646 189.991 9.01269 190.291 9.56072C190.291 9.80429 190.351 9.9261 190.351 9.9261C190.351 10.1088 190.171 10.535 189.751 11.3266V11.3875C189.931 12.0573 190.111 12.7271 190.231 13.4578C190.951 15.5891 192.031 17.0505 193.411 17.8421C193.892 18.0857 194.372 18.2074 194.912 18.2074C196.292 18.2074 197.552 17.4158 198.752 15.7717C199.292 15.041 199.713 13.8841 200.013 12.4227L200.373 11.2657C200.133 10.2915 199.953 9.80432 199.953 9.74343L200.553 8.03842C200.193 6.577 199.652 5.17649 198.872 3.89775C197.852 2.25365 196.532 1.40118 194.732 1.40118C193.351 1.40118 192.031 2.43635 190.831 4.56758C190.591 5.05472 190.231 6.029 189.811 7.6122V8.282ZM198.452 1.82743C199.833 3.47152 200.793 5.1156 201.213 6.75969C201.333 7.36862 201.453 7.73396 201.453 7.85575H201.873C201.993 7.61218 202.053 7.36861 202.053 7.24682C201.933 6.27255 201.333 4.93292 200.193 3.28882C199.412 2.31455 198.812 1.82743 198.452 1.82743ZM186.57 7.85575C186.63 7.97753 186.63 7.97754 186.69 7.97754H186.99C187.11 7.79486 187.23 7.4904 187.29 7.06415C187.411 6.45523 187.711 5.66364 188.251 4.75025C188.311 4.68936 188.491 4.38489 188.911 3.71508H188.851C188.491 3.89775 188.071 4.38489 187.591 5.11559C186.99 6.57701 186.57 7.49039 186.57 7.85575ZM201.273 9.49985C201.273 9.92609 201.753 10.1697 202.653 10.2306H202.773C203.493 10.2306 204.033 10.0479 204.273 9.62164V9.49985C204.273 9.0736 203.913 8.83004 203.193 8.70825C203.073 8.70825 202.893 8.64734 202.773 8.64734C201.933 8.64734 201.393 8.95182 201.333 9.49985H201.273ZM186.09 9.74343C186.09 9.987 186.51 10.2305 187.411 10.4741H187.531C188.551 10.2305 189.091 9.92608 189.091 9.56072V9.49985C189.091 9.13449 188.551 8.9518 187.531 8.9518C186.57 8.9518 186.09 9.1954 186.09 9.74343ZM199.292 16.8678C199.953 16.4416 200.493 15.8327 200.853 15.1019C201.633 13.8232 201.993 12.788 201.993 11.8747C201.993 11.8747 202.053 11.8746 202.053 11.8137C201.993 11.5093 201.873 11.3266 201.633 11.3266H201.573C201.333 11.3266 201.213 11.6311 201.213 12.3009C200.793 13.7623 200.253 15.1019 199.592 16.3807C199.352 16.6242 199.292 16.8069 199.292 16.8678ZM186.69 11.8137C186.63 12.1791 186.63 12.3618 186.57 12.3618C187.11 14.2495 187.951 15.4673 189.031 16.1371V16.0762C187.951 14.6757 187.471 13.6405 187.471 12.9707C187.35 12.24 187.23 11.8747 187.05 11.8747C187.05 11.8138 186.93 11.8138 186.81 11.7529H186.69V11.8137Z" fill="#0E1B29"/>
<path id="Vector_10" d="M134.902 10.9604L139.763 11.0213C139.823 11.204 139.823 11.3258 139.823 11.5085C139.823 11.6911 139.823 11.8738 139.823 12.1174C139.823 12.2392 139.823 12.4827 139.823 12.7263C139.823 12.9699 139.823 13.2134 139.823 13.3352C139.403 13.3961 138.923 13.3961 138.383 13.3961C137.843 13.3961 137.243 13.3961 136.583 13.3961H134.542C134.482 13.0917 134.422 12.7872 134.422 12.361C134.422 12.1174 134.422 11.8129 134.422 11.5085C134.422 11.204 134.422 11.0213 134.422 11.0213L134.902 10.9604ZM134.962 11.3867C134.902 11.4476 134.842 11.5693 134.842 11.6911C134.842 11.8738 134.902 12.0565 135.022 12.2392H137.303H137.603C138.203 12.2392 138.803 12.1783 139.463 12.1174C139.463 12.0565 139.463 11.9956 139.463 11.8738C139.463 11.8129 139.463 11.6912 139.463 11.5694C139.463 11.5085 139.463 11.3867 139.403 11.3258H134.962V11.3867Z" fill="#0E1B29"/>
</g>
</svg>
