<svg width="57" height="60" viewBox="0 0 57 60" fill="none" xmlns="http://www.w3.org/2000/svg">
<g id="Group 1000006599">
<path id="Vector" d="M35.3245 58.0011C39.2296 58.0011 42.4013 54.7828 42.4013 50.8203C42.4013 46.8577 39.2296 43.6394 35.3245 43.6394C31.4193 43.6394 28.2477 46.8577 28.2477 50.8203C28.2477 54.7828 31.4193 58.0011 35.3245 58.0011ZM35.3245 42.9756C39.6063 42.9756 43.0555 46.4956 43.0555 50.8203C43.0555 55.165 39.5864 58.6649 35.3245 58.6649C31.0427 58.6649 27.5935 55.1449 27.5935 50.8203C27.5935 46.4755 31.0625 42.9756 35.3245 42.9756Z" fill="#0E1B29"/>
<path id="Vector_2" d="M35.3244 50.8201C35.3244 50.8403 34.1351 51.8057 32.6682 52.9724C31.1814 54.1591 29.9921 55.1045 29.9722 55.0844C29.9722 55.0643 31.1616 54.0988 32.6285 52.9322C34.1152 51.7454 35.3244 50.8 35.3244 50.8201Z" fill="#0D2C34"/>
<path id="Vector_3" d="M35.3247 50.8201C35.3445 50.8201 34.3137 51.9867 33.0649 53.3948C31.7962 54.8028 30.7654 55.9493 30.7654 55.9493C30.7456 55.9493 31.7764 54.7826 33.0252 53.3746C34.2741 51.9465 35.3049 50.8 35.3247 50.8201Z" fill="#0D2C34"/>
<path id="Vector_4" d="M35.3245 50.8201C35.3443 50.8201 34.5316 52.1476 33.5206 53.7568C32.5096 55.3659 31.6771 56.6734 31.6771 56.6533C31.6572 56.6533 32.47 55.3257 33.4809 53.7165C34.4919 52.1074 35.3047 50.7999 35.3245 50.8201Z" fill="#0D2C34"/>
<path id="Vector_5" d="M35.3249 50.82C35.3447 50.82 34.75 52.2482 34.0165 54.0182C33.2831 55.7682 32.6884 57.1963 32.6686 57.1963C32.6487 57.1963 33.2434 55.7682 33.9769 53.9981C34.7103 52.2281 35.305 50.7999 35.3249 50.82Z" fill="#0D2C34"/>
<path id="Vector_6" d="M35.3245 50.8198C35.3444 50.8198 35.0074 52.3284 34.5713 54.1991C34.1352 56.0496 33.7783 57.5582 33.7585 57.5582C33.7387 57.5582 34.0757 56.0496 34.5118 54.1789C34.9479 52.3083 35.3047 50.8198 35.3245 50.8198Z" fill="#0D2C34"/>
<path id="Vector_7" d="M35.3248 50.8198C35.3446 50.8198 35.2455 52.3686 35.1265 54.2795C35.0076 56.1904 34.9085 57.7191 34.8886 57.7191C34.8688 57.7191 34.9679 56.1703 35.0869 54.2594C35.2058 52.3485 35.3049 50.8198 35.3248 50.8198Z" fill="#0D2C34"/>
<path id="Vector_8" d="M35.3247 50.8198C35.3445 50.8198 35.5031 52.3485 35.7013 54.2594C35.8995 56.1502 36.0383 57.699 36.0383 57.699C36.0185 57.699 35.8599 56.1703 35.6617 54.2594C35.4634 52.3485 35.3049 50.8198 35.3247 50.8198Z" fill="#0D2C34"/>
<path id="Vector_9" d="M35.3248 50.8198C35.3446 50.8198 35.7609 52.3083 36.2763 54.1387C36.7917 55.9691 37.1882 57.4777 37.1683 57.4777C37.1485 57.4777 36.7322 55.9893 36.2168 54.1588C35.7014 52.3083 35.305 50.8198 35.3248 50.8198Z" fill="#0D2C34"/>
<path id="Vector_10" d="M35.3245 50.8198C35.3444 50.8198 35.9985 52.2077 36.8113 53.9376C37.624 55.6674 38.2583 57.0754 38.2385 57.0754C38.2187 57.0754 37.5645 55.6875 36.7518 53.9577C35.9589 52.2278 35.3047 50.8198 35.3245 50.8198Z" fill="#0D2C34"/>
<path id="Vector_11" d="M35.3249 50.8198C35.3447 50.8198 36.217 52.0669 37.2874 53.6359C38.3578 55.2048 39.2301 56.472 39.2102 56.4921C39.1904 56.4921 38.3182 55.245 37.2478 53.6761C36.1773 52.1072 35.3051 50.8198 35.3249 50.8198Z" fill="#0D2C34"/>
<path id="Vector_12" d="M35.3246 50.8201C35.3444 50.8 36.4149 51.9063 37.7232 53.2741C39.0513 54.6419 40.1019 55.7482 40.1019 55.7482C40.0821 55.7683 39.0117 54.662 37.7033 53.2942C36.3752 51.9465 35.3246 50.8201 35.3246 50.8201Z" fill="#0D2C34"/>
<path id="Vector_13" d="M35.3246 50.8202C35.3246 50.8 36.5734 51.7052 38.0998 52.8316C39.6262 53.958 40.8552 54.8632 40.8552 54.8833C40.8552 54.9034 39.6064 53.9982 38.08 52.8718C36.5536 51.7454 35.3246 50.8202 35.3246 50.8202Z" fill="#0D2C34"/>
<path id="Vector_14" d="M10.2682 50.8201C10.2682 50.8403 9.07885 51.8057 7.61195 52.9724C6.12522 54.1591 4.93584 55.1045 4.91602 55.0844C4.91602 55.0643 6.1054 54.0988 7.5723 52.9322C9.05903 51.7454 10.2682 50.8 10.2682 50.8201Z" fill="#0D2C34"/>
<path id="Vector_15" d="M10.2685 50.8201C10.2883 50.8201 9.25752 51.9867 8.00867 53.3948C6.74 54.8028 5.7092 55.9493 5.7092 55.9493C5.68938 55.9493 6.72018 54.7826 7.96903 53.3746C9.2377 51.9465 10.2685 50.8 10.2685 50.8201Z" fill="#0D2C34"/>
<path id="Vector_16" d="M10.2683 50.8201C10.2881 50.8201 9.47536 52.1476 8.46438 53.7568C7.45341 55.3659 6.62084 56.6734 6.62084 56.6533C6.60102 56.6533 7.41376 55.3257 8.42474 53.7165C9.43571 52.1074 10.2683 50.7999 10.2683 50.8201Z" fill="#0D2C34"/>
<path id="Vector_17" d="M10.2686 50.82C10.2885 50.82 9.69378 52.2482 8.96033 54.0182C8.22687 55.7682 7.63218 57.1963 7.61236 57.1963C7.59254 57.1963 8.18723 55.7682 8.92068 53.9981C9.65413 52.2281 10.2686 50.7999 10.2686 50.82Z" fill="#0D2C34"/>
<path id="Vector_18" d="M10.2683 50.8198C10.2882 50.8198 9.95116 52.3284 9.51505 54.1991C9.07895 56.0496 8.72213 57.5582 8.70231 57.5582C8.68249 57.5582 9.01948 56.0496 9.45558 54.1789C9.89169 52.3083 10.2683 50.8198 10.2683 50.8198Z" fill="#0D2C34"/>
<path id="Vector_19" d="M10.2685 50.8198C10.2884 50.8198 10.1893 52.3686 10.0703 54.2795C9.95137 56.1904 9.85226 57.7191 9.83243 57.7191C9.81261 57.7191 9.91173 56.1703 10.0307 54.2594C10.1496 52.3485 10.2685 50.8198 10.2685 50.8198Z" fill="#0D2C34"/>
<path id="Vector_20" d="M10.2684 50.8198C10.2882 50.8198 10.4468 52.3485 10.645 54.2594C10.8432 56.1502 10.982 57.699 10.982 57.699C10.9622 57.699 10.8036 56.1703 10.6054 54.2594C10.4071 52.3485 10.2684 50.8198 10.2684 50.8198Z" fill="#0D2C34"/>
<path id="Vector_21" d="M10.2684 50.8198C10.2882 50.8198 10.7045 52.3083 11.2199 54.1387C11.7353 55.9691 12.1317 57.4777 12.1119 57.4777C12.0921 57.4777 11.6758 55.9893 11.1604 54.1588C10.6648 52.3083 10.2684 50.8198 10.2684 50.8198Z" fill="#0D2C34"/>
<path id="Vector_22" d="M10.2684 50.8198C10.2882 50.8198 10.9424 52.2077 11.7551 53.9376C12.5678 55.6674 13.2022 57.0754 13.1824 57.0754C13.1625 57.0754 12.5084 55.6875 11.6956 53.9577C10.9027 52.2278 10.2684 50.8198 10.2684 50.8198Z" fill="#0D2C34"/>
<path id="Vector_23" d="M10.2684 50.8198C10.2882 50.8198 11.1604 52.0669 12.2309 53.6359C13.3013 55.2048 14.1735 56.472 14.1537 56.4921C14.1339 56.4921 13.2616 55.245 12.1912 53.6761C11.1208 52.1072 10.2684 50.8198 10.2684 50.8198Z" fill="#0D2C34"/>
<path id="Vector_24" d="M10.2684 50.8201C10.2882 50.8 11.3586 51.9063 12.667 53.2741C13.9951 54.6419 15.0457 55.7482 15.0457 55.7482C15.0259 55.7683 13.9555 54.662 12.6471 53.2942C11.319 51.9465 10.2684 50.8201 10.2684 50.8201Z" fill="#0D2C34"/>
<path id="Vector_25" d="M10.2684 50.8202C10.2684 50.8 11.5172 51.7052 13.0436 52.8316C14.57 53.958 15.799 54.8632 15.799 54.8833C15.799 54.9034 14.5501 53.9982 13.0238 52.8718C11.4974 51.7454 10.2684 50.8202 10.2684 50.8202Z" fill="#0D2C34"/>
<path id="Vector_26" d="M10.2683 58.0011C14.1734 58.0011 17.3451 54.7828 17.3451 50.8203C17.3451 46.8577 14.1734 43.6394 10.2683 43.6394C6.36314 43.6394 3.19145 46.8577 3.19145 50.8203C3.19145 54.7828 6.36314 58.0011 10.2683 58.0011ZM10.2683 42.9756C14.55 42.9756 17.9993 46.4956 17.9993 50.8203C17.9993 55.165 14.5302 58.6649 10.2683 58.6649C5.9865 58.6649 2.53729 55.1449 2.53729 50.8203C2.53729 46.4755 6.00632 42.9756 10.2683 42.9756Z" fill="#0E1B29"/>
<path id="Vector_27" d="M10.2686 57.759C14.0548 57.759 17.1076 54.6413 17.1076 50.8195C17.1076 46.9776 14.035 43.88 10.2686 43.88C6.48243 43.88 3.42968 46.9977 3.42968 50.8195C3.42968 54.6413 6.50225 57.759 10.2686 57.759ZM10.2686 43.5984C14.1936 43.5984 17.3851 46.8368 17.3851 50.8195C17.3851 54.8022 14.1936 58.0406 10.2686 58.0406C6.34367 58.0406 3.15216 54.8022 3.15216 50.8195C3.15216 46.8368 6.34367 43.5984 10.2686 43.5984Z" fill="#0E1B29"/>
<path id="Vector_28" d="M35.3246 57.7993C39.1307 57.7993 42.223 54.6614 42.223 50.7994C42.223 46.9374 39.1307 43.7996 35.3246 43.7996C31.5186 43.7996 28.4262 46.9374 28.4262 50.7994C28.4262 54.6815 31.5186 57.7993 35.3246 57.7993ZM35.3246 43.5381C39.2892 43.5381 42.4807 46.7966 42.4807 50.7994C42.4807 54.8223 39.2694 58.0608 35.3246 58.0608C31.36 58.0608 28.1685 54.8022 28.1685 50.7994C28.1685 46.7966 31.36 43.5381 35.3246 43.5381Z" fill="#0E1B29"/>
<g id="Group 1000006598">
<path id="Vector_29" fill-rule="evenodd" clip-rule="evenodd" d="M35.0074 36.2568H40.7561V38.57H35.0074V36.2568Z" fill="#ED3932" stroke="#0E1B29" stroke-width="0.992101" stroke-miterlimit="22.9256" stroke-linecap="round" stroke-linejoin="round"/>
<path id="Vector_30" fill-rule="evenodd" clip-rule="evenodd" d="M15.4421 35.8145C15.6799 35.8145 16.6711 36.5788 16.0169 37.2627C15.9575 37.3231 16.0368 37.7254 16.3341 37.5846C16.909 37.3231 16.8891 36.3978 16.4927 35.9754C16.2152 35.6938 15.8782 35.6536 15.4619 35.7139C15.4024 35.734 15.4222 35.8145 15.4421 35.8145Z" fill="#A6A6A6"/>
<path id="Vector_31" d="M15.6203 35.8148C16.215 36.1769 16.6114 36.9412 16.0564 37.5447C16.0564 37.5447 16.0762 37.5648 16.0762 37.5849C16.0762 37.605 16.0961 37.6452 16.1159 37.6654C16.1357 37.6855 16.1357 37.7056 16.1555 37.7056C16.1753 37.7257 16.215 37.7257 16.2745 37.6855C16.3538 37.6452 16.4132 37.605 16.4727 37.5648C16.8493 36.9211 16.552 35.7142 15.6203 35.8148ZM15.7392 36.2171C15.5608 36.0562 15.3824 35.9355 15.3031 35.9355C15.2437 35.9355 15.204 35.8953 15.1842 35.855C15.1842 35.8349 15.1644 35.8148 15.1644 35.7947C15.1644 35.7746 15.1644 35.7545 15.1644 35.7344C15.1842 35.674 15.2238 35.6137 15.3031 35.6137C15.5608 35.5734 15.7789 35.5734 15.9771 35.6137C16.8295 35.7947 17.0674 37.1223 16.5916 37.7659C16.5123 37.8464 16.433 37.9067 16.3339 37.947C16.215 38.0073 16.0961 38.0073 16.0168 37.9671C15.9573 37.947 15.8978 37.8866 15.8582 37.8263C15.8185 37.7659 15.7987 37.7257 15.7987 37.6654C15.7789 37.5648 15.7987 37.4441 15.8384 37.4039C16.2348 36.9613 16.0762 36.5389 15.7392 36.2171Z" fill="#0E1B29"/>
<path id="Vector_32" d="M16.6712 33.6821C16.6712 33.6821 15.5413 33.9235 15.4025 34.0241C15.2638 34.1247 15.2043 34.4264 15.3034 34.5873C15.3827 34.7683 15.6008 34.7884 15.7197 34.8287C15.8387 34.8488 16.9487 34.2654 16.9487 34.2654C16.9487 34.2654 17.0875 33.7425 16.6712 33.6821Z" fill="#0E1B29"/>
<path id="Vector_33" fill-rule="evenodd" clip-rule="evenodd" d="M14.8476 35.3118C14.8278 35.2515 14.808 35.1911 14.7881 35.1308C14.7287 34.9095 14.7881 34.6682 14.9269 34.467C15.026 34.3262 15.145 34.2055 15.2639 34.0848C15.5216 33.8435 15.9181 34.0647 15.9775 34.3664C16.0172 34.5475 15.9379 34.7084 15.8189 34.8492C15.7991 34.8693 15.7793 34.8894 15.7595 34.9095C15.7793 34.9296 15.7991 34.9699 15.8189 34.99C16.2749 34.9498 16.7506 34.9498 17.1867 34.99L17.6228 35.0302L17.1669 36.1365L16.9092 36.0762C16.6912 36.0359 15.7595 36.0561 15.5216 36.1365C15.5612 36.3779 16.0568 36.7601 16.2352 36.8808C16.4731 36.9813 16.8101 37.1825 16.8101 37.4842C16.8101 37.6049 16.7705 37.7658 16.711 37.8865L16.1559 39.6566L15.0458 39.0531L15.482 37.7054C14.808 37.2227 14.134 36.3779 14.6296 35.5331C14.689 35.4526 14.7683 35.3722 14.8476 35.3118Z" fill="#0E1B29"/>
<path id="Vector_34" fill-rule="evenodd" clip-rule="evenodd" d="M14.9664 35.3317C14.9268 35.2714 14.8871 35.1909 14.8673 35.1105C14.8276 34.9093 14.8871 34.7082 14.9862 34.5271C15.0655 34.3863 15.1845 34.2656 15.3034 34.1651C15.5016 33.984 15.8188 34.1651 15.8584 34.3863C15.8783 34.5271 15.8188 34.6679 15.7197 34.7886C15.6999 34.8087 15.6404 34.8691 15.6206 34.8892C15.6007 34.9294 15.7197 35.0501 15.7395 35.0903C15.7395 35.0903 15.7395 35.0903 15.7593 35.1105C16.2153 35.0702 16.7108 35.0702 17.1668 35.1105L17.4641 35.1306L17.0875 36.0357L16.9091 35.9955C16.691 35.9553 15.6007 35.9553 15.4025 36.0961C15.3629 36.3978 15.9576 36.8604 16.1756 37.0012C16.3738 37.0817 16.691 37.2627 16.691 37.5242C16.691 37.6248 16.6514 37.7857 16.6117 37.8863L16.0963 39.5357L15.1646 39.0328L15.6007 37.6851C14.9268 37.2225 14.233 36.4179 14.7087 35.5932C14.788 35.4926 14.8673 35.4122 14.9664 35.3317Z" fill="#0E1B29"/>
<path id="Vector_35" d="M15.2239 36.0157C15.0653 36.5789 16.0961 37.2025 16.0961 37.2025C16.0961 37.2025 16.4925 37.3634 16.4925 37.5243C16.4925 37.6249 16.4132 37.8059 16.4132 37.8059L15.878 39.5156L15.3428 39.234L15.878 37.5846C15.1446 37.1421 14.5102 36.3979 14.9265 35.714C15.0058 35.5933 15.1247 35.4927 15.323 35.4324C15.8582 35.2715 16.6511 35.2916 17.1665 35.3519L16.9881 35.7944C16.8494 35.7542 15.3626 35.6737 15.2239 36.0157ZM15.1842 35.2513C15.1446 35.191 15.1049 35.1307 15.0851 35.0502C15.0455 34.9094 15.1049 34.7686 15.1644 34.6278C15.2437 34.5071 15.3428 34.4065 15.4617 34.306C15.5212 34.2456 15.6401 34.3462 15.66 34.4065C15.6798 34.487 15.6203 34.5473 15.5807 34.6077C15.5212 34.668 15.4617 34.7284 15.4419 34.7887C15.4023 34.9094 15.4617 35.01 15.541 35.1105C15.4221 35.191 15.2833 35.2312 15.1842 35.2513Z" fill="#CCCCCC"/>
<path id="Vector_36" d="M15.224 36.0156C15.0654 36.5788 16.0962 37.2024 16.0962 37.2024C16.0962 37.2024 16.4926 37.3633 16.4926 37.5242C16.4926 37.6248 16.4134 37.8058 16.4134 37.8058L15.898 39.415L15.6799 39.2943L16.2151 37.6449C15.4817 37.2024 14.8473 36.4582 15.2636 35.7743C15.3429 35.6536 15.4618 35.553 15.6601 35.4927C16.0962 35.372 16.671 35.3519 17.1468 35.372L16.9684 35.7743C16.8495 35.7541 15.3627 35.6737 15.224 36.0156ZM15.442 35.1708C15.442 35.1507 15.442 35.1306 15.4222 35.1306C15.4024 35.0501 15.4024 34.9898 15.4222 34.9093C15.4222 34.9898 15.4817 35.0703 15.5213 35.1507C15.5015 35.1507 15.4817 35.1708 15.442 35.1708ZM15.5411 34.6881C15.5808 34.6478 15.6006 34.6076 15.6403 34.5674C15.6204 34.5875 15.6006 34.6277 15.5808 34.6478C15.561 34.6478 15.5411 34.668 15.5411 34.6881Z" fill="#A6A6A6"/>
<path id="Vector_37" d="M43.1747 49.0501C43.472 48.9294 43.6108 48.5875 43.4919 48.2857C42.917 46.7168 40.8157 42.2715 35.5428 42.2715C29.14 42.2715 26.8405 47.4007 26.8405 51.4638L27.3956 51.3431C27.3956 51.3431 27.0784 42.8146 35.5626 42.8146C41.351 42.8347 43.1747 49.0501 43.1747 49.0501Z" fill="#0E1B29"/>
<path id="Vector_38" fill-rule="evenodd" clip-rule="evenodd" d="M23.0938 57.9404C35.8599 57.9404 46.1877 58.222 46.1877 58.5439C46.1877 58.8858 35.84 59.1473 23.0938 59.1473C10.3278 59.1473 0 58.8657 0 58.5439C0 58.2019 10.3476 57.9404 23.0938 57.9404Z" fill="#0E1B29"/>
<path id="Vector_39" fill-rule="evenodd" clip-rule="evenodd" d="M19.288 33.6424C18.7131 33.9039 18.0787 32.9384 16.9488 33.5418C15.9379 34.0648 17.0876 35.3924 17.94 35.1108C18.4752 34.4067 19.0897 34.7085 19.169 35.0102C19.1888 35.0705 19.5457 34.809 19.6448 34.6682C21.2703 34.6883 22.2019 34.6481 24.1842 33.8234C23.8472 32.6769 22.9354 31.7919 21.8055 31.5103C21.4288 31.9327 20.2593 32.9786 19.288 33.6424Z" fill="#FFCC99"/>
<path id="Vector_40" d="M19.3867 33.883C19.0497 34.0238 18.7524 33.9232 18.4352 33.7824C18.0784 33.6416 17.6423 33.4606 17.0674 33.7623C16.889 33.8428 16.8295 33.9635 16.8097 34.0841C16.8097 34.1646 16.8295 34.2451 16.8692 34.3255C16.9088 34.4261 16.9881 34.5065 17.0674 34.587C17.2656 34.768 17.5233 34.8887 17.7612 34.8284C17.9793 34.5669 18.2171 34.4261 18.4352 34.3859C18.5739 34.3657 18.7127 34.3657 18.8316 34.3859C18.9506 34.406 19.0695 34.4663 19.1488 34.5468C19.1885 34.5669 19.2083 34.6071 19.2281 34.6272C19.2876 34.5669 19.3669 34.5065 19.3867 34.4663L19.466 34.3657H19.6047C20.3977 34.3657 21.032 34.3657 21.706 34.2652C22.3205 34.1646 22.9747 33.9836 23.8271 33.6416C23.6685 33.2192 23.4108 32.837 23.0936 32.5152C22.7566 32.1934 22.3403 31.9319 21.8844 31.7911C21.6465 32.0526 21.2302 32.4348 20.7743 32.8169C20.3382 33.179 19.8624 33.5612 19.4065 33.8629L19.3867 33.883ZM18.6334 33.2796C18.8515 33.36 19.0299 33.4405 19.1686 33.4002C19.5849 33.1186 20.0409 32.7566 20.4571 32.4146C20.9725 31.9721 21.4086 31.5497 21.6069 31.3285L21.7258 31.2078L21.8844 31.248C22.4989 31.4089 23.0539 31.7106 23.4901 32.1531C23.9262 32.5755 24.2632 33.1388 24.4614 33.7422L24.5407 33.9836L24.3226 34.0841C23.3117 34.5065 22.5584 34.7278 21.8447 34.8485C21.1708 34.9491 20.5563 34.9692 19.7832 34.9692C19.684 35.0698 19.5651 35.1703 19.466 35.2307C19.4263 35.2709 19.3669 35.291 19.347 35.291C19.2083 35.3514 19.0893 35.3312 18.9902 35.2106C18.9704 35.1703 18.9506 35.1301 18.9308 35.0899C18.9308 35.0698 18.9109 35.0496 18.8713 35.0295C18.8515 35.0094 18.8118 34.9893 18.7524 34.9692C18.7127 34.9491 18.6532 34.9491 18.5938 34.9692C18.4748 34.9893 18.3162 35.0899 18.1577 35.291L18.0982 35.3514L18.0189 35.3715C17.563 35.5324 17.0674 35.3312 16.7106 35.0295C16.5718 34.9088 16.4727 34.768 16.3934 34.6071C16.3141 34.4462 16.2745 34.2652 16.2745 34.0841C16.2943 33.7824 16.4529 33.5008 16.8097 33.2997C17.6026 32.8773 18.1577 33.0985 18.6334 33.2796Z" fill="#0E1B29"/>
<path id="Vector_41" fill-rule="evenodd" clip-rule="evenodd" d="M25.4131 27.6882C24.9176 27.9296 24.3823 28.1106 23.8471 28.2715C23.1533 29.1566 21.9639 30.3634 21.4089 31.4496C21.8846 31.9726 22.0829 32.2944 22.3009 32.6967C22.5388 32.4755 22.8163 32.214 22.9154 32.0732C24.2039 32.395 25.2545 33.3806 25.6312 34.6679C25.096 35.2915 23.6291 35.3921 22.8361 35.5731C22.4397 36.3374 22.4199 37.6248 22.5586 38.4294C27.2765 40.9236 33.1838 38.55 33.5604 36.8805C31.9746 29.6393 29.0407 27.5072 25.4131 27.6882Z" fill="white"/>
<path id="Vector_42" fill-rule="evenodd" clip-rule="evenodd" d="M22.0231 30.4636C21.924 30.5843 21.8447 30.705 21.7654 30.8257C22.2214 31.3487 22.4989 31.8515 22.6773 32.3142C22.7764 32.2136 22.8755 32.113 22.9152 32.0527C22.9548 32.0728 22.9945 32.0728 23.0539 32.0929C22.8557 31.59 22.5385 31.0469 22.0231 30.4636Z" fill="#AF4444"/>
<path id="Vector_43" fill-rule="evenodd" clip-rule="evenodd" d="M28.1485 32.918C28.2873 32.8576 28.2675 32.7571 28.3864 32.6766C28.6639 31.7312 28.4459 29.76 25.5517 27.7485C25.4328 27.8491 25.3138 27.9296 25.1949 28.0301C28.4459 29.9611 28.4062 32.0329 28.1485 32.918Z" fill="#AF4444"/>
<path id="Vector_44" fill-rule="evenodd" clip-rule="evenodd" d="M26.4439 34.5671C26.5033 34.6074 26.543 34.6677 26.5826 34.728C26.6619 34.6677 26.761 34.5872 26.8403 34.5068C26.6025 33.5212 25.3933 32.093 23.5695 30.8057C23.4506 30.9063 23.3515 30.9867 23.2325 31.0873C24.9571 32.3143 26.1862 33.6217 26.4439 34.5671ZM27.6729 33.6419C27.3557 32.6764 26.206 31.0873 24.5012 29.9006C24.3823 30.0011 24.2633 30.0816 24.1642 30.1822C25.9681 31.4293 27.098 33.0585 27.3557 34.0039C27.4548 33.8832 27.5738 33.7625 27.6729 33.6419ZM28.4064 32.6764C28.0297 31.7712 26.9989 30.3632 25.4725 29.2971C25.3536 29.3977 25.2347 29.4781 25.1157 29.5787C26.761 30.7051 27.772 32.1534 28.109 33.0787C28.2676 32.8574 28.3667 32.6965 28.3667 32.6965L28.4064 32.6764Z" fill="#AF4444"/>
<path id="Vector_45" fill-rule="evenodd" clip-rule="evenodd" d="M27.6137 30.0219C28.3868 29.861 29.1996 29.6398 30.1114 29.338C29.9925 29.2174 29.8537 29.0967 29.715 28.9961C28.9022 29.2576 28.1291 29.4587 27.4353 29.5995L27.5344 29.9214C27.5542 29.9616 27.5939 30.0018 27.6137 30.0219ZM28.2282 31.0478C28.9815 30.8466 29.8339 30.565 30.8647 30.2231C30.7656 30.1024 30.6665 29.9817 30.5673 29.861C29.5762 30.1828 28.7436 30.4443 28.0498 30.6455C28.1291 30.7662 28.1886 30.907 28.2282 31.0478ZM28.4066 32.0334C29.3383 31.8121 30.3493 31.5104 31.4594 31.1081C31.3801 30.9673 31.3008 30.8466 31.2215 30.7259C30.1907 31.088 29.2392 31.3696 28.367 31.5909C28.4066 31.7317 28.4066 31.8725 28.4066 32.0334ZM28.2084 33.1799C29.3383 32.9385 30.5872 32.5765 31.9946 32.0535C31.9351 31.9127 31.8558 31.792 31.7964 31.6512C30.5277 32.1138 29.3978 32.4357 28.367 32.6771L28.3472 32.6972C28.3075 32.8782 28.2679 33.019 28.2084 33.1799ZM27.3758 34.3466C28.7833 34.1253 30.4682 33.7029 32.4109 32.9989C32.3514 32.8581 32.2919 32.7173 32.2325 32.5966C30.5673 33.2 29.1203 33.5822 27.8714 33.8236C27.7327 34.0046 27.5542 34.1856 27.3758 34.3466ZM24.6403 35.1914C24.1249 35.3322 23.55 35.4126 23.0941 35.4931C24.8187 35.7546 27.9507 35.7546 32.7677 33.9845C32.7281 33.8437 32.6686 33.7029 32.6289 33.5621C29.041 34.8897 26.4243 35.2115 24.6403 35.1914ZM22.658 36.0161C22.6183 36.1569 22.5787 36.2977 22.5588 36.4385C24.1447 36.8005 27.4948 37.0419 33.0849 34.95C33.0452 34.8092 33.0056 34.6684 32.9461 34.5276C27.4155 36.6195 24.1447 36.3781 22.658 36.0161ZM22.4994 36.9615C22.4795 37.1224 22.4796 37.2632 22.4796 37.4241C23.887 37.8264 27.3362 38.2689 33.3624 36.0161C33.3227 35.8753 33.2831 35.7345 33.2435 35.5735C27.1181 37.8867 23.7482 37.3436 22.4994 36.9615Z" fill="#AF4444"/>
<path id="Vector_46" d="M25.4729 27.9897C25.235 28.0903 24.9972 28.211 24.7395 28.2914C24.5016 28.3719 24.2637 28.4523 24.0258 28.5328C23.8078 28.7943 23.5699 29.0759 23.332 29.3776C22.777 30.0213 22.1625 30.7454 21.7858 31.4092C21.9642 31.6103 22.103 31.7913 22.2219 31.9523C22.2814 32.0327 22.3409 32.1333 22.4003 32.2137C22.5391 32.0931 22.6382 31.9724 22.6779 31.912L22.7968 31.731L23.0148 31.7913C23.7087 31.9724 24.343 32.3344 24.8584 32.8172C25.3738 33.2999 25.7504 33.9235 25.9487 34.6074L25.9883 34.7683L25.8694 34.889C25.3738 35.4522 24.3628 35.6332 23.5302 35.774C23.3518 35.7941 23.1933 35.8344 23.0545 35.8545C22.9356 36.1562 22.8563 36.4981 22.8166 36.8803C22.777 37.3631 22.7571 37.5642 22.8166 37.9464C23.451 38.2682 24.1249 38.7912 24.7593 38.932C26.7019 39.3946 28.6644 39.2136 30.2304 38.751C31.7568 38.3085 32.8867 37.5843 33.2237 36.9608C33.2435 36.9206 33.2634 36.9004 33.2634 36.8602C32.4704 33.3603 31.3802 31.0873 30.052 29.7397C28.7437 28.392 27.1975 27.9294 25.4729 27.9897ZM24.5412 27.7081C24.7989 27.6075 25.0368 27.5069 25.2747 27.4064L25.3341 27.3863H25.3936C27.2966 27.2857 29.0212 27.8087 30.4683 29.2971C31.8956 30.7454 33.0453 33.139 33.858 36.7999L33.8779 36.8803L33.858 36.9407C33.8382 37.0412 33.7986 37.1418 33.7391 37.2424C33.3426 38.0067 32.074 38.8314 30.389 39.3343C28.7239 39.817 26.6623 40.0182 24.6205 39.5153C23.8672 39.3343 23.114 38.7711 22.4003 38.3889L22.2616 38.3085L22.2417 38.1475C22.1625 37.6849 22.1625 37.3631 22.2219 36.7596C22.2616 36.2568 22.3805 35.774 22.5787 35.3717L22.6382 35.251L22.777 35.2108C22.9752 35.1706 23.1933 35.1304 23.4311 35.0901C24.1051 34.9694 24.898 34.8488 25.2945 34.5269C25.1161 34.0039 24.8187 33.5614 24.4223 33.1792C24.0258 32.7971 23.5501 32.5155 23.0347 32.3545C22.9356 32.4752 22.7968 32.5959 22.658 32.7367L22.5193 32.8574L22.2417 33.139L22.0435 32.7971C21.9444 32.5959 21.8453 32.435 21.7065 32.254C21.5876 32.0729 21.4092 31.8718 21.1911 31.6103L21.0524 31.4494L21.1515 31.2684C21.4092 30.7655 21.7858 30.2425 22.1823 29.7598C22.4003 29.4782 22.6382 29.2167 22.8761 28.9351C23.1536 28.6132 23.4311 28.2914 23.6095 28.05L23.669 27.9696L23.7681 27.9495C24.0258 27.8891 24.2835 27.8087 24.5412 27.7081Z" fill="#0E1B29"/>
<path id="Vector_47" fill-rule="evenodd" clip-rule="evenodd" d="M29.7146 42.3718C30.1507 42.2914 34.4523 40.4811 33.5801 36.8403C28.9415 38.007 24.4021 38.9524 22.3999 38.0673C21.1313 40.4408 22.4991 48.5872 23.9263 50.136C24.5805 50.8401 25.6311 46.797 26.1465 44.9666C26.1861 44.8057 24.4615 41.6075 26.0672 39.9179C24.7391 41.7885 26.2654 44.5844 26.2456 44.4839C29.5164 52.4492 28.5451 42.9552 29.7146 42.3718Z" fill="#2F4D6A"/>
<path id="Vector_48" fill-rule="evenodd" clip-rule="evenodd" d="M29.7146 42.3718C30.1507 42.2914 34.4523 40.4811 33.5801 36.8403C32.9457 37.0012 32.3312 37.1622 31.7365 37.303C32.0339 38.9524 31.9546 39.9983 30.111 40.7828C29.4965 41.0443 27.9503 41.3259 27.2565 41.3259C27.2169 41.708 28.4459 41.4667 28.2278 43.7396C27.99 46.2338 27.0583 45.3287 25.75 42.9753C25.8689 43.2166 26.2852 44.5241 26.2653 44.4839C29.5163 52.4492 28.545 42.9552 29.7146 42.3718ZM22.9747 48.0039C23.2324 49.0096 23.5496 49.774 23.9064 50.1763C24.5606 50.8803 25.6112 46.8373 26.1266 45.0068C26.1464 44.9465 25.9284 44.504 25.7301 43.8603C25.6905 43.8 25.6707 43.7396 25.6707 43.6793C25.3931 42.7942 25.1949 41.6477 25.5715 40.6822V40.6017C25.5517 40.119 26.2059 39.4351 25.3733 40.4207C24.3227 41.6477 24.2632 42.05 24.5011 43.5184C24.6597 44.4436 25.1751 44.1821 24.5606 45.912C24.4813 46.1333 23.9461 47.4206 23.8469 47.4608C23.8469 47.4809 23.3514 47.7625 22.9747 48.0039ZM25.5914 41.004C25.413 41.7684 25.5319 42.573 25.7103 43.2166C25.7103 42.6534 25.631 41.8287 25.5914 41.004Z" fill="#2E3F51"/>
<path id="Vector_49" d="M29.6554 42.0697C29.8933 42.0094 30.9637 41.5669 31.9152 40.722C32.8073 39.9175 33.5804 38.7508 33.3425 37.2221L32.391 37.4635C30.151 38.0267 24.8582 39.2336 22.5588 38.4692C22.0632 39.656 22.5588 42.0898 22.7372 44.3024C22.9354 46.7564 23.4508 49.1299 24.1248 49.9144C24.5411 49.492 25.0366 47.6817 25.4133 46.2737C25.4926 45.9921 25.7701 45.0266 25.8494 44.7651C25.889 44.6042 24.7591 42.653 25.2547 40.8628C25.4926 40.0583 26.0476 39.3543 26.8603 39.3543C25.1754 40.2393 25.4727 41.8485 26.2458 43.8197C26.5035 44.4835 27.6731 47.5811 28.1885 47.3598C28.4462 47.2593 28.585 46.0926 28.7237 44.9461C28.8823 43.6588 29.0409 42.3714 29.5761 42.1099L29.6158 42.0898L29.6554 42.0697ZM32.3117 41.1847C31.3007 42.0898 30.1312 42.5726 29.814 42.6732C29.5761 42.8341 29.4373 43.9203 29.3184 45.0266C29.1598 46.3541 28.9814 47.6817 28.4065 47.9231C27.237 48.5064 26.2657 45.2679 26.2062 45.6501C26.1467 45.8714 26.0674 46.153 25.9881 46.4346C25.5719 47.9432 25.0366 49.8742 24.5014 50.377C24.2239 50.6385 23.9662 50.6586 23.6887 50.377C22.9156 49.5322 22.3209 46.9576 22.1028 44.3427C21.9046 41.8887 21.4685 39.133 22.1226 37.9261L22.1821 37.6244L22.5191 37.7853C24.2437 38.5497 28.2083 37.8859 32.2522 36.8601C32.6289 36.7595 33.0055 36.679 33.5209 36.5382L33.8182 36.4578L33.8975 36.7595C33.9173 36.8399 33.9372 36.9003 33.9372 36.9807C34.2742 38.8514 33.3623 40.2393 32.3117 41.1847Z" fill="#0E1B29"/>
<path id="Vector_50" d="M23.3711 32.4352C23.3315 32.4352 23.272 32.4151 23.2323 32.395C23.0341 32.2743 22.8359 31.9324 22.7764 31.691C22.6971 31.2686 25.3138 27.3261 27.2168 27.5675C27.3754 27.5876 27.4943 27.7284 27.4745 27.8894C27.4546 28.0503 27.3159 28.171 27.1573 28.1508C25.7895 27.9899 23.9063 30.6652 23.3513 31.7715C23.3711 31.7916 23.4306 31.8318 23.5297 31.8921C23.6685 31.9726 23.7081 32.1536 23.6288 32.2944C23.5693 32.3749 23.4702 32.4352 23.3711 32.4352Z" fill="#0E1B29"/>
<path id="Vector_51" d="M26.0276 34.5478C26.1068 34.588 26.1861 34.6081 26.2853 34.588C26.3645 34.588 26.4835 34.5478 26.5826 34.4875C26.6421 34.4472 26.6817 34.4271 26.7412 34.3869L26.8205 34.3265L26.8998 34.2662L26.9791 34.2059L27.0583 34.1254C27.1178 34.0852 27.1575 34.0248 27.1971 33.9846C27.3953 33.7834 27.5737 33.5622 27.7522 33.3409C27.9306 33.1197 28.109 32.8783 28.3667 32.6973C28.3865 32.6973 28.3865 32.6973 28.4063 32.6973V32.7174C28.3667 33.0392 28.2477 33.3007 28.0891 33.5622C27.9306 33.8237 27.772 34.0852 27.5936 34.3265C27.5539 34.3869 27.4945 34.4472 27.435 34.5076L27.3557 34.588L27.2764 34.6685L27.1971 34.749L27.098 34.8294C27.0385 34.8898 26.9592 34.93 26.8998 34.9702C26.761 35.0507 26.5826 35.1311 26.3844 35.1512C26.1861 35.1714 25.9681 35.1311 25.7897 35.0306C25.6509 34.9501 25.6113 34.7691 25.6906 34.6283C25.7104 34.5277 25.869 34.4673 26.0276 34.5478Z" fill="#0E1B29"/>
<path id="Vector_52" d="M26.5035 34.4464C26.5035 34.4263 26.5035 34.3861 26.4837 34.366C26.3846 34.0039 26.226 33.6821 26.0476 33.3804C26.2458 33.6821 26.3846 34.024 26.4837 34.366C26.5035 34.3861 26.5035 34.4062 26.5035 34.4464Z" fill="#3C0274"/>
<path id="Vector_53" fill-rule="evenodd" clip-rule="evenodd" d="M20.021 34.5275C19.3668 34.8091 18.673 33.743 17.3845 34.4068C16.2546 35.0103 17.5233 36.4786 18.5144 36.1568C19.129 35.3522 19.8228 35.6942 19.8822 36.0562C19.9021 36.1367 20.2985 35.835 20.4174 35.674C22.2412 35.6942 23.2918 35.6539 25.5318 34.7085C25.1552 33.4212 24.1442 32.4356 22.8557 32.1138C22.4394 32.6166 21.1311 33.8034 20.021 34.5275Z" fill="#FFCC99"/>
<path id="Vector_54" fill-rule="evenodd" clip-rule="evenodd" d="M18.0388 36.197C18.1974 36.2172 18.356 36.2172 18.5146 36.1568C19.1291 35.3522 19.8229 35.6942 19.8824 36.0562C19.9022 36.1367 20.2986 35.835 20.4176 35.6741C22.2413 35.6942 23.2919 35.654 25.5319 34.7086C25.3337 34.0649 24.9967 33.5017 24.521 33.0391C24.4417 33.0793 24.3425 33.1195 24.2434 33.2C23.9263 33.4212 22.1224 34.5074 21.488 34.8494C21.0916 35.0505 20.0211 35.2718 19.585 35.1712C19.3273 35.1109 18.2371 34.9499 18.0785 35.1511C17.8208 35.4528 17.9001 35.7948 18.0388 36.197Z" fill="#E2AF86"/>
<path id="Vector_55" d="M20.1403 34.8083C19.7637 34.9692 19.4465 34.8485 19.0699 34.7077C18.6734 34.5468 18.1779 34.3457 17.5435 34.6876C17.3453 34.7882 17.266 34.9089 17.266 35.0497C17.266 35.1301 17.2858 35.2307 17.3453 35.3313C17.4048 35.4318 17.4841 35.5324 17.5832 35.633C17.8012 35.8341 18.0986 35.9548 18.3761 35.9146C18.6338 35.6129 18.8915 35.4721 19.1492 35.4117C19.3078 35.3715 19.4465 35.3916 19.5853 35.4117C19.7241 35.452 19.843 35.5123 19.9421 35.5726C19.9818 35.5928 20.0016 35.633 20.0412 35.6531C20.1205 35.5928 20.18 35.5324 20.2196 35.4721L20.3187 35.3514H20.4773C21.3694 35.3514 22.083 35.3514 22.8363 35.2307C23.5301 35.11 24.2437 34.9089 25.215 34.5267C25.0366 34.0439 24.7393 33.6215 24.3825 33.2595C24.0058 32.8974 23.5301 32.6158 23.0147 32.4549C22.7372 32.7566 22.2812 33.179 21.7857 33.6014C21.3099 34.0037 20.7549 34.4261 20.2593 34.7681L20.1403 34.8083ZM19.288 34.1244C19.5258 34.225 19.7439 34.3054 19.8826 34.2451C20.3584 33.9233 20.8738 33.5411 21.3297 33.1388C21.9046 32.6359 22.4002 32.1733 22.638 31.9118L22.757 31.771L22.9354 31.8112C23.6292 31.9923 24.2437 32.3342 24.7393 32.817C25.2349 33.2997 25.6115 33.9233 25.8296 34.6071L25.9088 34.8686L25.6511 34.9692C24.5212 35.452 23.6688 35.6933 22.8759 35.814C22.1226 35.9347 21.4288 35.9548 20.5566 35.9347C20.4575 36.0353 20.3188 36.156 20.1998 36.2163C20.1403 36.2565 20.1007 36.2767 20.0611 36.2968C19.9025 36.3571 19.7637 36.337 19.6646 36.2163C19.6249 36.1761 19.6051 36.1359 19.6051 36.0755C19.6051 36.0554 19.5853 36.0353 19.5457 35.9951C19.506 35.9749 19.4664 35.9548 19.4267 35.9347C19.3672 35.9146 19.3078 35.9146 19.2483 35.9347C19.1095 35.9749 18.9311 36.0755 18.7726 36.2968L18.7131 36.3772L18.614 36.3973C18.0986 36.5583 17.5435 36.3571 17.1471 36.0152C16.9885 35.8744 16.8695 35.7135 16.7903 35.5525C16.6911 35.3715 16.6515 35.1704 16.6515 34.9692C16.6713 34.6273 16.8497 34.3054 17.2462 34.0842C18.1382 33.6618 18.7726 33.9233 19.288 34.1244Z" fill="#0E1B29"/>
<path id="Vector_56" fill-rule="evenodd" clip-rule="evenodd" d="M24.1446 29.5986C23.4706 29.2365 22.5786 29.659 22.1227 30.202C21.9046 30.4434 21.6667 30.8658 21.0324 31.4089C21.0324 31.4089 21.9443 31.4089 22.4795 31.1273C22.7768 30.9664 24.5213 30.2423 24.2239 29.7998C24.2239 29.7998 24.1645 29.6187 24.1446 29.5986Z" fill="#AF4444"/>
<path id="Vector_57" d="M24.0453 29.8005L24.0254 29.7803H24.0056C24.0254 29.8005 24.1047 29.8206 24.0453 29.8005ZM24.0254 29.7803C23.7677 29.6597 23.4902 29.6597 23.2127 29.7401C22.8559 29.8407 22.5189 30.0821 22.3008 30.3436C22.2612 30.4039 22.2017 30.4642 22.1422 30.5246C22.0233 30.6855 21.8647 30.8867 21.6268 31.128C21.8845 31.0878 22.1621 31.0275 22.3603 30.9269C22.4198 30.9068 22.4991 30.8665 22.5982 30.8062C22.8955 30.6654 23.3713 30.4441 23.7083 30.2028C23.9065 30.062 24.0651 29.9413 24.0254 29.9212C24.0056 29.8809 23.9858 29.8407 23.966 29.7803C23.966 29.7803 23.966 29.7803 23.9858 29.7803H24.0254ZM23.0937 29.3177C23.4902 29.197 23.8867 29.197 24.2633 29.3982C24.3426 29.4384 24.3822 29.539 24.4219 29.6395C24.4219 29.6597 24.4219 29.6597 24.4219 29.6798C24.6399 29.9815 24.3822 30.3033 23.9858 30.5849C23.6091 30.8464 23.1136 31.0878 22.7964 31.2286C22.6973 31.2688 22.618 31.3091 22.5784 31.3292C22.1621 31.5504 21.5476 31.6108 21.2304 31.6309C21.1709 31.6309 21.1114 31.6309 21.0916 31.6309C20.933 31.6309 20.8339 31.5303 20.8339 31.4297V31.3895L20.8537 31.2889L20.9132 31.2487C21.389 30.8464 21.6467 30.5246 21.8251 30.2832C21.8845 30.2028 21.944 30.1424 21.9837 30.0821C22.2414 29.7401 22.6576 29.4585 23.0937 29.3177Z" fill="#0E1B29"/>
<path id="Vector_58" fill-rule="evenodd" clip-rule="evenodd" d="M29.318 28.4729C28.1881 28.5333 26.2851 29.6798 24.9768 29.8407C24.3226 29.9212 24.0451 29.8206 24.4217 28.9356C25.5715 26.2603 31.5778 28.3321 29.318 28.4729Z" fill="#AF4444"/>
<path id="Vector_59" d="M29.338 28.6938C28.8027 28.7341 28.0296 29.0358 27.2566 29.3375C26.4835 29.6593 25.6905 29.9812 25.0166 30.0616C24.6201 30.1018 24.3227 30.1018 24.1642 29.9007C24.0056 29.6996 24.0254 29.3978 24.2435 28.8547C24.858 27.4065 26.7213 27.2255 28.1486 27.4266C28.7036 27.5071 29.1992 27.6479 29.5164 27.7887C30.012 28.0099 30.2102 28.2714 29.9327 28.5329C29.8534 28.6134 29.6551 28.6737 29.338 28.6938ZM27.098 28.9352C27.9107 28.6134 28.7036 28.2915 29.2983 28.2513C29.4966 28.2312 29.6155 28.2111 29.6353 28.191C29.6948 28.1306 29.4569 28.2312 29.338 28.191C29.0406 28.0703 28.5847 27.9295 28.0891 27.8691C26.8006 27.6881 25.1553 27.8289 24.6399 29.0358C24.4813 29.3978 24.4417 29.5588 24.5012 29.6191C24.5408 29.6794 24.7192 29.6593 24.9769 29.6392C25.5914 29.5588 26.3645 29.2369 27.098 28.9352Z" fill="#0E1B29"/>
<path id="Vector_60" fill-rule="evenodd" clip-rule="evenodd" d="M22.7372 29.4382C21.9641 29.8606 21.0919 29.5388 20.8738 29.4382C20.9135 29.8405 21.3298 30.1824 22.1822 30.3433C23.1138 30.5244 24.6204 30.3635 24.2041 29.4583C24.0653 29.1566 23.431 29.0359 22.7372 29.4382Z" fill="#AF4444"/>
<path id="Vector_61" d="M22.8363 29.6194C22.4993 29.8005 22.1623 29.8608 21.865 29.8608C21.6865 29.8608 21.528 29.8407 21.3892 29.8206C21.5874 29.9413 21.8451 30.0619 22.2218 30.1223C22.5984 30.1826 23.0742 30.2027 23.4508 30.1424C23.649 30.1022 23.8274 30.0418 23.9265 29.9614C24.0058 29.901 24.0653 29.8206 24.0653 29.7401C24.0653 29.6798 24.0455 29.6194 24.0058 29.5591C23.9662 29.4786 23.8473 29.4384 23.6887 29.4183C23.4904 29.3982 23.2327 29.4384 22.9552 29.5792C22.9156 29.5792 22.8759 29.5993 22.8363 29.6194ZM21.865 29.4183C22.1028 29.4183 22.3804 29.378 22.6381 29.2372C22.6975 29.2171 22.7372 29.1769 22.7768 29.1568C23.1336 28.9959 23.4706 28.9355 23.7283 28.9556C24.0257 28.9758 24.2635 29.1166 24.3825 29.3177L24.4023 29.3579C24.4618 29.4786 24.4816 29.5993 24.5014 29.72C24.5014 29.9815 24.3825 30.1625 24.1842 30.3033C24.0058 30.424 23.7878 30.5045 23.5301 30.5447C23.094 30.6251 22.5588 30.605 22.1425 30.5246C21.7064 30.4441 21.3694 30.3033 21.1315 30.1424C20.854 29.9412 20.6954 29.6999 20.6756 29.4183L20.6359 29.0361L20.9927 29.197C21.0919 29.2775 21.4487 29.4183 21.865 29.4183Z" fill="#0E1B29"/>
<path id="Vector_62" fill-rule="evenodd" clip-rule="evenodd" d="M22.7174 2.40413C22.757 2.04207 22.3011 0.875428 21.6866 0.292106C21.0126 -0.331445 20.0611 0.131194 20.8144 0.855317C21.0721 1.09669 21.191 1.37829 21.2703 1.74036C21.528 2.66563 22.7174 2.48459 22.7174 2.40413Z" fill="#0E1B29"/>
<path id="Vector_63" fill-rule="evenodd" clip-rule="evenodd" d="M14.2528 14.0908C14.57 16.6655 15.3034 19.1798 16.4135 21.5332C14.8475 30.9468 31.8755 32.5359 32.708 20.4269C39.765 20.0045 34.5516 11.7978 32.5098 17.1683C30.7654 16.3839 30.0518 11.315 29.9923 9.36391C25.0762 7.87543 16.6316 8.78059 14.2528 14.0908Z" fill="#FFCC99"/>
<path id="Vector_64" fill-rule="evenodd" clip-rule="evenodd" d="M18.5545 27.3464C22.8957 30.8061 32.0936 29.2573 32.7081 20.427C39.7651 20.0046 34.5517 11.7979 32.5099 17.1685C30.7655 16.384 30.0518 11.3151 29.9924 9.36403C27.2964 8.53933 23.5697 8.43876 20.3385 9.38414C19.0104 9.92723 17.5435 10.5709 17.2263 10.8123C17.1867 10.8324 17.147 10.8324 17.0876 10.8324C17.0281 10.8726 16.9488 10.933 16.8893 10.9732C18.1184 12.4416 25.3736 12.7232 27.0982 11.7979C27.1378 12.6226 28.1092 14.1111 29.0012 15.68C29.1994 16.0421 22.4398 16.1225 22.4596 16.5248C22.5587 20.8494 23.9067 22.9615 25.4727 23.3034C27.4352 23.7258 29.5364 21.7546 29.477 22.2575C29.14 25.7172 24.8582 30.0015 18.9906 27.2459C18.9113 27.2257 18.7527 27.266 18.5545 27.3464Z" fill="#E2AF86"/>
<path id="Vector_65" d="M14.1538 12.2806C14.0745 15.3782 14.7089 17.0678 15.3432 17.8121C15.7 19.039 16.156 20.2459 16.711 21.3924L16.7507 21.493L16.7308 21.5936C16.2551 24.4096 17.5634 26.5015 19.5854 27.6481C20.5765 28.2113 21.7461 28.5733 22.9553 28.6739C24.1843 28.7946 25.453 28.6538 26.6424 28.2716C29.5563 27.3061 32.054 24.7918 32.3712 20.4068L32.391 20.1051L32.6884 20.085C34.5319 19.9844 35.4438 19.3207 35.8006 18.5563C36.0979 17.8925 35.9592 17.1282 35.6222 16.565C35.2852 16.0017 34.7698 15.6397 34.2346 15.7201C33.739 15.7805 33.2236 16.2431 32.8271 17.3092L32.7082 17.631L32.391 17.4902C31.5783 17.1282 31.0034 16.042 30.5871 14.7546C30.0321 13.0248 29.7546 10.8927 29.6951 9.64555C27.0586 8.90131 23.4508 8.84097 20.3386 9.76624C17.8013 10.5105 15.2045 10.0277 14.1538 12.2806ZM14.7287 17.9931C14.3521 16.7259 13.6583 13.5679 13.4997 12.2604L13.4799 12.1599L13.5195 12.0794C14.6296 9.60532 17.4246 9.92716 20.1404 9.10246C23.4508 8.11685 27.3163 8.21742 30.0916 9.06223L30.3294 9.12257V9.36395C30.3691 10.5105 30.6268 12.7432 31.2016 14.5334C31.499 15.4788 31.8955 16.2834 32.3712 16.6856C32.8668 15.6196 33.5011 15.1368 34.1553 15.0363C34.968 14.9156 35.7411 15.4385 36.197 16.2029C36.653 16.9471 36.8116 17.9529 36.4151 18.8178C35.9988 19.7632 34.9878 20.5476 33.0254 20.7287C32.6091 25.2544 29.9528 27.8894 26.8604 28.8952C25.5719 29.3176 24.2239 29.4584 22.9156 29.3377C21.6073 29.217 20.3584 28.8348 19.2682 28.2314C17.048 26.9642 15.6009 24.6711 16.0767 21.5735C15.5216 20.427 15.0855 19.2402 14.7287 17.9931Z" fill="#0E1B29"/>
<path id="Vector_66" d="M33.5404 18.4352C33.5404 18.4352 33.4413 17.8117 33.7386 17.1278C34.0756 16.3634 34.4919 17.1278 34.4919 17.1278C34.0558 17.3289 33.6792 17.5301 33.5404 18.4352Z" fill="#0E1B29"/>
<path id="Vector_67" fill-rule="evenodd" clip-rule="evenodd" d="M15.3826 18.9986C13.8959 17.3291 13.4201 15.2573 13.3805 13.0447C12.9245 8.90111 27.6531 1.65988 31.5185 5.26038C33.0846 8.15688 34.155 15.4585 32.6881 17.5303C31.3203 17.4096 27.8513 11.9786 28.3865 9.82638C28.1883 8.84077 18.7525 11.8177 14.7681 13.2056C14.5897 14.9154 14.5897 15.9814 15.3826 18.9986Z" fill="#0E1B29"/>
<path id="Vector_68" d="M18.1382 21.3119C18.7131 21.2113 19.0699 20.5073 18.9312 19.7228C18.8122 18.9384 18.2572 18.3752 17.6823 18.4757C17.1074 18.5763 16.7506 19.2803 16.8894 20.0648C17.0281 20.8291 17.5832 21.3924 18.1382 21.3119Z" fill="#0E1B29"/>
<path id="Vector_69" d="M17.5632 19.8237C17.3649 19.8639 17.1865 19.6627 17.1469 19.4013C17.1072 19.1398 17.2262 18.8984 17.4244 18.8582C17.6226 18.8179 17.801 19.0191 17.8407 19.2806C17.8605 19.5421 17.7416 19.7834 17.5632 19.8237Z" fill="white"/>
<path id="Vector_70" d="M15.0261 18.9989C16.3939 18.1742 17.5436 17.4702 19.8233 17.3294C20.2198 17.3093 20.3189 17.8121 20.3387 18.0736C20.8937 22.0764 19.7837 23.3034 18.4159 23.4844C17.1075 23.6655 15.2838 23.1626 14.8874 19.361C14.9072 19.2201 14.8874 19.0793 15.0261 18.9989ZM21.4488 17.8322C21.647 17.7719 21.8849 17.8322 22.0633 18.0334C22.0633 18.0334 22.0633 18.0334 22.0831 18.0334C22.2814 19.0995 22.6382 20.3264 22.9752 21.3724C23.5302 23.0821 25.0169 23.8465 26.8208 23.7459C28.7238 23.6252 31.3405 21.9155 30.8053 17.4702C30.6863 16.7662 30.7061 15.7806 29.8538 15.5593C27.6732 14.976 24.8385 15.338 22.658 15.861C22.2021 15.9616 22.1029 16.4041 22.0237 16.7259C21.7263 16.7058 20.8541 16.8466 20.5766 16.9673C20.3982 16.6857 20.1801 16.3035 19.7044 16.3438C16.8895 16.5851 14.927 17.8322 14.5306 18.4759C13.7773 19.7029 15.2244 24.4097 18.0194 24.1281C21.1118 23.8063 21.1911 20.3264 20.9334 18.2547C20.9334 18.2547 20.9334 18.2547 20.9334 18.2345C21.0325 17.9529 21.2307 17.8322 21.4488 17.8322ZM29.5564 16.5047C29.7546 16.565 29.9132 16.7259 29.933 16.9271C29.9727 17.1685 30.0322 17.4098 30.0718 17.6512C31.0828 23.2632 25.1953 24.47 23.7284 21.5937C23.1734 20.5075 22.7769 18.9184 22.5787 17.7317C22.5192 17.4501 22.4598 16.9472 22.8364 16.8466C25.0566 16.2633 27.3362 15.9616 29.5564 16.5047Z" fill="#0E1B29"/>
<path id="Vector_71" d="M26.5234 20.3261C27.1974 20.2255 27.6335 19.3606 27.4948 18.4152C27.3362 17.4698 26.6622 16.786 25.9882 16.9066C25.3142 17.0072 24.8781 17.8721 25.0169 18.8175C25.1557 19.7428 25.8296 20.4267 26.5234 20.3261Z" fill="#0E1B29"/>
<path id="Vector_72" d="M25.8094 18.516C25.5716 18.5562 25.3535 18.3149 25.294 17.993C25.2346 17.6712 25.3932 17.3896 25.631 17.3494C25.8689 17.3091 26.087 17.5505 26.1464 17.8723C26.1861 18.1942 26.0275 18.4758 25.8094 18.516Z" fill="white"/>
<path id="Vector_73" fill-rule="evenodd" clip-rule="evenodd" d="M29.0015 15.056C29.0609 13.8089 25.9685 12.3808 24.4223 14.4325C24.2043 14.7342 23.9069 15.2773 24.2043 15.3779C25.0369 14.513 27.6138 14.0905 29.0015 15.056Z" fill="#0E1B29"/>
<path id="Vector_74" fill-rule="evenodd" clip-rule="evenodd" d="M15.5016 17.5709C15.0655 16.706 16.7901 14.6945 18.5345 15.6399C18.7922 15.7807 19.1689 16.0623 18.9905 16.2434C18.1183 15.9014 16.1756 16.4445 15.5016 17.5709Z" fill="#0E1B29"/>
<path id="Vector_75" d="M21.4486 23.2026C21.4486 23.2026 20.5566 22.6796 20.9134 21.9756C21.3297 21.1107 22.2217 21.5733 22.2217 21.5733C22.2217 21.5733 20.6954 21.7543 21.4486 23.2026Z" fill="#0E1B29"/>
<path id="Vector_76" d="M24.3822 23.5647C24.3822 23.5647 24.0452 25.9181 22.5585 26.1192C20.8537 26.4008 20.4374 24.3693 20.4374 24.3693C21.3097 24.9526 23.3514 24.5905 24.3822 23.5647Z" fill="#0E1B29"/>
<path id="Vector_77" d="M21.4288 24.8521C21.9641 24.8923 22.5984 24.7917 23.0741 24.5906C22.9354 24.8521 22.7173 25.1337 22.3803 25.2342C21.9641 25.375 21.6469 25.1136 21.4288 24.8521Z" fill="white"/>
<path id="Vector_78" fill-rule="evenodd" clip-rule="evenodd" d="M14.4708 16.565C14.4708 16.565 12.9246 16.1225 12.3299 14.4932C11.7154 12.8841 11.3586 13.6283 10.2683 12.2203C9.17807 10.8324 9.57453 8.19736 10.9225 6.729C12.2506 5.26064 21.726 -3.48919 34.8092 7.53358C34.8092 7.53358 38.4963 11.7979 33.4018 14.0306C32.034 10.8927 12.8057 11.1341 14.4708 16.565Z" fill="#333D46"/>
<path id="Vector_79" fill-rule="evenodd" clip-rule="evenodd" d="M14.4709 16.5644C14.4709 16.5644 12.9247 16.1219 12.33 14.4927C11.7155 12.8835 11.3586 13.6277 10.2684 12.2197C9.85209 11.6967 9.65386 10.9726 9.63403 10.2284C9.67368 10.2284 9.71333 10.2485 9.75297 10.2485C12.8454 11.1335 11.5965 9.62493 12.5678 7.97554C13.3013 6.72844 14.788 6.24569 14.7682 7.13073C14.6889 9.24275 15.9378 8.92092 16.9686 8.39795C17.3848 8.1968 18.713 7.0905 19.2086 7.03015C19.8825 6.96981 20.7944 7.97554 21.508 7.97554C22.7767 7.97554 26.0475 5.86351 27.1378 7.35199C28.0893 8.6192 29.8535 8.98127 31.5979 8.49852C32.8864 8.15657 34.7895 10.2485 36.0185 11.2542C35.8401 12.2599 35.1264 13.2657 33.3622 14.03C32.0341 10.8921 12.8057 11.1335 14.4709 16.5644Z" fill="#262C3A"/>
<path id="Vector_80" d="M14.3716 16.907C14.3716 16.907 12.6669 16.4041 12.0127 14.634C11.7153 13.8295 11.4775 13.6887 11.1801 13.5076C10.8828 13.3266 10.5061 13.1053 9.99074 12.4416C9.39605 11.6772 9.19782 10.6111 9.31676 9.52495C9.45552 8.41865 9.91145 7.29224 10.6449 6.48766C11.5171 5.52216 15.8187 1.47913 22.3207 1.70039C25.9285 1.82108 30.2301 3.24922 34.9876 7.27212L35.0074 7.29224L35.0272 7.31235C35.0471 7.33246 39.0117 11.9186 33.5009 14.3524L33.1837 14.4932L33.0449 14.1714C32.4304 12.7433 27.5143 12.0795 22.8955 12.4013C21.4088 12.5019 19.9419 12.7232 18.6931 13.0249C17.4442 13.3467 16.3936 13.7691 15.6601 14.2921C14.887 14.8754 14.5104 15.5794 14.7879 16.4242L14.9663 17.0277L14.3716 16.907ZM12.647 14.3927C12.9642 15.2576 13.5787 15.7403 14.0346 16.0018C13.995 15.1168 14.4707 14.3927 15.2835 13.7892C16.0764 13.2059 17.2261 12.7433 18.5543 12.4013C19.8626 12.0795 21.3493 11.8582 22.8757 11.7577C27.435 11.4358 32.3313 12.1398 33.5009 13.6283C37.6042 11.637 34.7894 8.09682 34.5515 7.81521C29.9327 3.93311 25.8095 2.54521 22.3207 2.42452C16.0962 2.20326 11.9929 6.06525 11.1603 6.99052C10.526 7.69453 10.1295 8.66002 10.0106 9.64564C9.91145 10.5508 10.0502 11.4559 10.526 12.0594C10.9621 12.6226 11.2792 12.8036 11.5171 12.9444C11.9532 13.1858 12.2506 13.3668 12.647 14.3927Z" fill="#0E1B29"/>
<path id="Vector_81" fill-rule="evenodd" clip-rule="evenodd" d="M28.8625 37.9668C28.9418 38.007 29.0409 38.007 29.1202 38.0272C29.4968 38.1076 29.6554 39.0932 28.8625 39.1938C28.7832 39.1737 28.6841 39.1536 28.6048 39.1335C26.563 38.6708 26.6225 35.9956 26.4441 34.5876L27.8119 33.9841C27.7524 34.3864 27.4749 37.3634 28.8625 37.9668Z" fill="#0E1B29"/>
<path id="Vector_82" d="M27.4749 34.3262C27.4749 34.3262 27.0388 37.8261 28.8031 38.2284C29.3383 38.329 29.1797 38.9927 28.6643 38.8721C26.7613 38.2686 26.8208 34.9497 26.8208 34.9296L27.4749 34.3262Z" fill="#2F4D6A"/>
<path id="Vector_83" fill-rule="evenodd" clip-rule="evenodd" d="M23.8275 35.5122C23.7086 36.1961 23.6095 36.9202 23.5897 37.6041C23.5698 38.0265 23.6095 38.5294 23.6689 38.9518C23.7681 39.6558 22.6778 39.7966 22.539 39.3139L22.5192 39.1932C22.4003 38.7104 22.4003 38.1673 22.4003 37.6846C22.4201 36.9001 22.5192 36.0754 22.658 35.3111L23.1734 35.2507L23.887 35.2708L23.8275 35.5122Z" fill="#0E1B29"/>
<path id="Vector_84" d="M23.51 35.6938C23.51 35.6938 23.1333 37.7455 23.391 38.8921C23.4703 39.1737 22.8558 39.3748 22.7567 39.0329C22.4792 37.7455 22.8756 35.7944 22.8756 35.7944L23.51 35.6938Z" fill="#2F4D6A"/>
<path id="Vector_85" fill-rule="evenodd" clip-rule="evenodd" d="M23.0541 38.5095C23.2721 38.5095 23.4505 38.6906 23.4505 38.9118C23.4505 39.1331 23.2721 39.3141 23.0541 39.3141C22.836 39.3141 22.6576 39.1331 22.6576 38.9118C22.6576 38.6906 22.836 38.5095 23.0541 38.5095Z" fill="#E6E6E6"/>
<path id="Vector_86" d="M23.0539 38.4092C23.1927 38.4092 23.3116 38.4695 23.4107 38.55C23.5099 38.6506 23.5495 38.7712 23.5495 38.912C23.5495 39.0528 23.49 39.1735 23.4107 39.2741C23.3116 39.3747 23.1927 39.4149 23.0539 39.4149C22.9152 39.4149 22.7962 39.3546 22.6971 39.2741C22.598 39.1735 22.5583 39.0528 22.5583 38.912C22.5583 38.7712 22.6178 38.6506 22.6971 38.55C22.7962 38.4695 22.9152 38.4092 23.0539 38.4092ZM23.2522 38.7109C23.1927 38.6506 23.1332 38.6304 23.0539 38.6304C22.9746 38.6304 22.8953 38.6707 22.8557 38.7109C22.7962 38.7712 22.7764 38.8316 22.7764 38.912C22.7764 38.9925 22.816 39.073 22.8557 39.1132C22.9152 39.1735 22.9746 39.1936 23.0539 39.1936C23.1332 39.1936 23.2125 39.1534 23.2522 39.1132C23.3116 39.0528 23.3314 38.9925 23.3314 38.912C23.3513 38.8316 23.3116 38.7712 23.2522 38.7109Z" fill="#0E1B29"/>
<path id="Vector_87" fill-rule="evenodd" clip-rule="evenodd" d="M28.8028 38.1072C29.0209 38.1072 29.1993 38.2882 29.1993 38.5095C29.1993 38.7307 29.0209 38.9118 28.8028 38.9118C28.5848 38.9118 28.4064 38.7307 28.4064 38.5095C28.4064 38.2882 28.5848 38.1072 28.8028 38.1072Z" fill="#E6E6E6"/>
<path id="Vector_88" d="M28.8027 38.0066C28.9415 38.0066 29.0604 38.0669 29.1595 38.1474C29.2586 38.248 29.2983 38.3687 29.2983 38.5095C29.2983 38.6503 29.2388 38.7709 29.1595 38.8715C29.0604 38.9721 28.9415 39.0123 28.8027 39.0123C28.6639 39.0123 28.545 38.952 28.4459 38.8715C28.3468 38.7709 28.3071 38.6503 28.3071 38.5095C28.3071 38.3687 28.3666 38.248 28.4459 38.1474C28.545 38.0669 28.6639 38.0066 28.8027 38.0066ZM29.0208 38.3083C28.9613 38.248 28.9018 38.2279 28.8225 38.2279C28.7432 38.2279 28.6639 38.2681 28.6243 38.3083C28.5648 38.3687 28.545 38.429 28.545 38.5095C28.545 38.5899 28.5847 38.6704 28.6243 38.7106C28.6838 38.7709 28.7432 38.7911 28.8225 38.7911C28.9018 38.7911 28.9811 38.7508 29.0208 38.7106C29.0802 38.6503 29.1 38.5899 29.1 38.5095C29.1 38.429 29.0604 38.3687 29.0208 38.3083Z" fill="#0E1B29"/>
<path id="Vector_89" fill-rule="evenodd" clip-rule="evenodd" d="M21.7258 23.6649C21.7258 23.6649 21.2302 23.4839 20.9725 23.5844C20.7347 23.685 20.14 24.3488 20.1598 23.7051C19.9219 24.0672 20.2589 24.2683 20.5562 24.2281C20.8139 24.1879 21.1906 24.1275 21.7853 23.9465C22.5782 24.0068 23.0341 24.0873 23.6883 23.7252C24.3424 23.3431 23.7874 22.9207 23.7874 22.9207C23.8865 23.0212 23.8865 23.4637 23.3711 23.4235C22.5782 23.3632 22.3601 23.0212 21.7258 23.6649Z" fill="#0E1B29"/>
<path id="Vector_90" d="M35.3247 50.8196C35.3049 50.8196 35.741 49.3311 36.2762 47.5007C36.8115 45.6703 37.2674 44.2019 37.2674 44.2019C37.2872 44.2019 36.8511 45.6904 36.3159 47.5208C35.7807 49.3311 35.3446 50.8196 35.3247 50.8196Z" fill="#0D2C34"/>
<path id="Vector_91" d="M35.3245 50.8198C35.3047 50.8198 35.4831 49.291 35.721 47.3802C35.9588 45.4894 36.1571 43.9607 36.1769 43.9607C36.1967 43.9607 36.0183 45.4894 35.7804 47.4003C35.5426 49.291 35.3443 50.8198 35.3245 50.8198Z" fill="#0D2C34"/>
<path id="Vector_92" d="M35.3248 50.8199C35.305 50.8199 35.2257 49.2711 35.1265 47.3804C35.0274 45.4695 34.9481 43.9207 34.968 43.9207C34.9878 43.9207 35.0671 45.4695 35.1662 47.3804C35.2653 49.2711 35.3446 50.8199 35.3248 50.8199Z" fill="#0D2C34"/>
<path id="Vector_93" d="M35.3246 50.8202C35.3048 50.8202 34.9678 49.3116 34.5515 47.461C34.1352 45.5904 33.818 44.0818 33.8379 44.0818C33.8577 44.0818 34.1947 45.5904 34.611 47.4409C35.0074 49.2914 35.3444 50.8202 35.3246 50.8202Z" fill="#0D2C34"/>
<path id="Vector_94" d="M35.3249 50.8202C35.305 50.8202 34.7302 49.392 34.0165 47.6421C33.3029 45.872 32.7281 44.4438 32.7479 44.4438C32.7677 44.4438 33.3426 45.872 34.0562 47.6219C34.7698 49.3719 35.3447 50.8202 35.3249 50.8202Z" fill="#0D2C34"/>
<path id="Vector_95" d="M35.325 50.8204C35.3051 50.8204 34.4924 49.5129 33.5012 47.9038C32.5101 46.2745 31.7172 44.967 31.7172 44.967C31.737 44.967 32.5497 46.2745 33.5409 47.8836C34.532 49.4928 35.3448 50.8003 35.325 50.8204Z" fill="#0D2C34"/>
<path id="Vector_96" d="M35.3244 50.8196C35.3046 50.8196 34.2936 49.6731 33.0448 48.2449C31.7959 46.8168 30.785 45.6501 30.8048 45.6501C30.8246 45.6501 31.8356 46.7967 33.0844 48.2248C34.3333 49.6328 35.3443 50.7995 35.3244 50.8196Z" fill="#0D2C34"/>
<path id="Vector_97" d="M35.3244 50.8199C35.3244 50.84 34.1152 49.8745 32.6483 48.6676C31.1814 47.4809 29.992 46.4953 30.0118 46.4752C30.0118 46.455 31.221 47.4205 32.6879 48.6274C34.1549 49.8343 35.3244 50.7998 35.3244 50.8199Z" fill="#0D2C34"/>
<path id="Vector_98" d="M35.3244 50.8198C35.3244 50.8399 33.9765 50.0957 32.3312 49.1503C30.6859 48.2251 29.3577 47.4607 29.3775 47.4406C29.3775 47.4205 30.7255 48.1647 32.3708 49.1101C33.9963 50.0354 35.3244 50.7997 35.3244 50.8198Z" fill="#0D2C34"/>
<path id="Vector_99" d="M35.3245 50.8199C35.3245 50.84 33.8775 50.3371 32.1132 49.6934C30.349 49.0498 28.9019 48.5268 28.9217 48.5067C28.9217 48.4866 30.3688 48.9894 32.133 49.6331C33.8973 50.2768 35.3245 50.7997 35.3245 50.8199Z" fill="#0D2C34"/>
<path id="Vector_100" d="M35.3245 50.8202C35.3245 50.8403 33.818 50.5788 31.9744 50.257C30.1309 49.9351 28.6243 49.6535 28.6243 49.6334C28.6243 49.6133 30.1309 49.8748 31.9744 50.1966C33.818 50.5184 35.3245 50.8001 35.3245 50.8202Z" fill="#0D2C34"/>
<path id="Vector_101" d="M35.3247 50.8197C35.3247 50.8398 33.7984 50.8398 31.9152 50.8197C30.032 50.8197 28.5056 50.7996 28.5056 50.7795C28.5056 50.7594 30.032 50.7594 31.9152 50.7795C33.7984 50.7795 35.3247 50.7996 35.3247 50.8197Z" fill="#0D2C34"/>
<path id="Vector_102" d="M35.3249 50.82C35.3249 50.8401 33.8183 51.1016 31.9748 51.4033C30.1114 51.7051 28.6049 51.9464 28.6049 51.9464C28.6049 51.9263 30.1114 51.6648 31.9549 51.3631C33.8183 51.0413 35.3249 50.7999 35.3249 50.82Z" fill="#0D2C34"/>
<path id="Vector_103" d="M35.3246 50.8199C35.3246 50.84 33.8974 51.3429 32.1133 51.9664C30.3292 52.59 28.8821 53.0727 28.8821 53.0727C28.8821 53.0526 30.3094 52.5498 32.0935 51.9262C33.8775 51.3027 35.3246 50.7998 35.3246 50.8199Z" fill="#0D2C34"/>
<path id="Vector_104" d="M35.3246 50.8202C35.3246 50.8403 33.9964 51.5846 32.3511 52.4897C30.7058 53.3949 29.3578 54.1391 29.3578 54.119C29.3578 54.0989 30.686 53.3547 32.3313 52.4495C33.9766 51.5242 35.3246 50.8001 35.3246 50.8202Z" fill="#0D2C34"/>
<path id="Vector_105" d="M35.3246 50.8203C35.3246 50.8001 36.7122 51.484 38.3972 52.3288C40.0821 53.1737 41.4499 53.8575 41.4499 53.8777C41.4499 53.8978 40.0623 53.2139 38.3773 52.3691C36.6725 51.5243 35.3246 50.8203 35.3246 50.8203Z" fill="#0D2C34"/>
<path id="Vector_106" d="M35.3246 50.82C35.3246 50.7999 36.7915 51.2424 38.5954 51.7855C40.3993 52.3286 41.8464 52.7912 41.8464 52.7912C41.8464 52.8113 40.3795 52.3688 38.5756 51.8257C36.7717 51.2826 35.3246 50.82 35.3246 50.82Z" fill="#0D2C34"/>
<path id="Vector_107" d="M35.3246 50.8196C35.3246 50.7995 36.851 50.9806 38.7143 51.2219C40.5777 51.4432 42.0842 51.6443 42.0842 51.6644C42.0842 51.6846 40.5579 51.5035 38.6945 51.2622C36.8311 51.0208 35.3246 50.8398 35.3246 50.8196Z" fill="#0D2C34"/>
<path id="Vector_108" d="M35.3246 50.8196C35.3246 50.7995 36.851 50.7191 38.7341 50.6386C40.6173 50.5581 42.1437 50.4978 42.1437 50.4978C42.1437 50.5179 40.6173 50.5984 38.7341 50.6788C36.851 50.7794 35.3246 50.8398 35.3246 50.8196Z" fill="#0D2C34"/>
<path id="Vector_109" d="M35.3246 50.8201C35.3246 50.8 36.8113 50.458 38.6549 50.0557C40.4984 49.6534 41.9851 49.3316 41.9851 49.3517C41.9851 49.3718 40.4984 49.7138 38.6549 50.1161C36.8113 50.5184 35.3246 50.8201 35.3246 50.8201Z" fill="#0D2C34"/>
<path id="Vector_110" d="M35.3246 50.8196C35.3246 50.7994 36.732 50.2161 38.4764 49.5121C40.2209 48.8081 41.6481 48.2248 41.6481 48.2449C41.6481 48.265 40.2407 48.8483 38.4963 49.5523C36.7518 50.2563 35.3246 50.8196 35.3246 50.8196Z" fill="#0D2C34"/>
<path id="Vector_111" d="M35.3246 50.8198C35.3246 50.7997 36.6131 49.9951 38.2187 48.9894C39.8244 47.9837 41.1327 47.1992 41.1327 47.1992C41.1327 47.2193 39.8442 48.0239 38.2386 49.0296C36.6329 50.0354 35.3246 50.8198 35.3246 50.8198Z" fill="#0D2C34"/>
<path id="Vector_112" d="M35.3246 50.8196C35.3246 50.7995 36.4545 49.7737 37.8619 48.5266C39.2694 47.2593 40.4389 46.2536 40.4389 46.2737C40.4389 46.2938 39.309 47.3197 37.9016 48.5668C36.4941 49.8139 35.3246 50.8196 35.3246 50.8196Z" fill="#0D2C34"/>
<path id="Vector_113" d="M35.3249 50.8197C35.3051 50.8197 36.2764 49.6128 37.4658 48.1244C38.6552 46.6359 39.6265 45.4491 39.6463 45.4692C39.6661 45.4692 38.6948 46.6761 37.5054 48.1646C36.316 49.633 35.3447 50.8197 35.3249 50.8197Z" fill="#0D2C34"/>
<path id="Vector_114" d="M35.3245 50.8194C35.3047 50.8194 36.0579 49.4516 36.9896 47.8022C37.9213 46.1327 38.6746 44.8052 38.6944 44.8052C38.7142 44.8052 37.9609 46.173 37.0293 47.8224C36.0976 49.4919 35.3443 50.8194 35.3245 50.8194Z" fill="#0D2C34"/>
<path id="Vector_115" d="M10.2685 50.8196C10.2486 50.8196 10.6848 49.3311 11.22 47.5007C11.7552 45.6703 12.2111 44.2019 12.2111 44.2019C12.2309 44.2019 11.7948 45.6904 11.2596 47.5208C10.7442 49.3311 10.2883 50.8196 10.2685 50.8196Z" fill="#0D2C34"/>
<path id="Vector_116" d="M10.2683 50.8198C10.2485 50.8198 10.4269 49.291 10.6647 47.3802C10.9026 45.4894 11.1009 43.9607 11.1207 43.9607C11.1405 43.9607 10.9621 45.4894 10.7242 47.4003C10.4863 49.291 10.2881 50.8198 10.2683 50.8198Z" fill="#0D2C34"/>
<path id="Vector_117" d="M10.2685 50.8199C10.2487 50.8199 10.1694 49.2711 10.0703 47.3804C9.97116 45.4695 9.89187 43.9207 9.91169 43.9207C9.93151 43.9207 10.0108 45.4695 10.1099 47.3804C10.2289 49.2711 10.2883 50.8199 10.2685 50.8199Z" fill="#0D2C34"/>
<path id="Vector_118" d="M10.2684 50.8202C10.2485 50.8202 9.91155 49.3116 9.49527 47.461C9.07899 45.5904 8.76182 44.0818 8.78164 44.0818C8.80147 44.0818 9.13846 45.5904 9.55474 47.4409C9.97102 49.2914 10.2882 50.8202 10.2684 50.8202Z" fill="#0D2C34"/>
<path id="Vector_119" d="M10.2681 50.8202C10.2483 50.8202 9.67341 49.392 8.95978 47.6421C8.24615 45.872 7.67129 44.4438 7.69111 44.4438C7.71093 44.4438 8.2858 45.872 8.99943 47.6219C9.71306 49.3719 10.2879 50.8202 10.2681 50.8202Z" fill="#0D2C34"/>
<path id="Vector_120" d="M10.2682 50.8204C10.2484 50.8204 9.43562 49.5129 8.44447 47.9038C7.45332 46.2745 6.6604 44.967 6.6604 44.967C6.68022 44.967 7.49297 46.2745 8.48412 47.8836C9.4951 49.4928 10.288 50.8003 10.2682 50.8204Z" fill="#0D2C34"/>
<path id="Vector_121" d="M10.2682 50.8196C10.2484 50.8196 9.23743 49.6731 7.98858 48.2449C6.73973 46.8168 5.72875 45.6501 5.74858 45.6501C5.7684 45.6501 6.77937 46.7967 8.02823 48.2248C9.27708 49.6328 10.2881 50.7995 10.2682 50.8196Z" fill="#0D2C34"/>
<path id="Vector_122" d="M10.2682 50.8199C10.2682 50.84 9.05899 49.8745 7.59209 48.6676C6.12519 47.4809 4.9358 46.4953 4.95563 46.4752C4.95563 46.455 6.16483 47.4205 7.63174 48.6274C9.09864 49.8343 10.288 50.7998 10.2682 50.8199Z" fill="#0D2C34"/>
<path id="Vector_123" d="M10.2682 50.8198C10.2682 50.8399 8.92021 50.0957 7.27489 49.1503C5.62958 48.2251 4.30144 47.4607 4.32126 47.4406C4.32126 47.4205 5.66923 48.1647 7.31454 49.1101C8.95985 50.0354 10.288 50.7997 10.2682 50.8198Z" fill="#0D2C34"/>
<path id="Vector_124" d="M10.2683 50.8199C10.2683 50.84 8.82125 50.3371 7.057 49.6934C5.29275 49.0498 3.84567 48.5268 3.8655 48.5067C3.8655 48.4866 5.31258 48.9894 7.07683 49.6331C8.84108 50.2768 10.2882 50.7997 10.2683 50.8199Z" fill="#0D2C34"/>
<path id="Vector_125" d="M10.2682 50.8202C10.2682 50.8403 8.76169 50.5788 6.91814 50.257C5.0746 49.9351 3.56805 49.6535 3.56805 49.6334C3.56805 49.6133 5.0746 49.8748 6.91814 50.1966C8.78151 50.5184 10.2682 50.8001 10.2682 50.8202Z" fill="#0D2C34"/>
<path id="Vector_126" d="M10.2685 50.8197C10.2685 50.8398 8.74215 50.8398 6.85896 50.8197C4.97577 50.8197 3.4494 50.7996 3.4494 50.7795C3.4494 50.7594 4.97577 50.7594 6.85896 50.7795C8.74215 50.7795 10.2685 50.7996 10.2685 50.8197Z" fill="#0D2C34"/>
<path id="Vector_127" d="M10.2681 50.82C10.2681 50.8401 8.76155 51.1016 6.91801 51.4033C5.05465 51.7051 3.5481 51.9464 3.5481 51.9464C3.5481 51.9263 5.05465 51.6648 6.89819 51.3631C8.76155 51.0413 10.2681 50.7999 10.2681 50.82Z" fill="#0D2C34"/>
<path id="Vector_128" d="M10.2684 50.8199C10.2684 50.84 8.84109 51.3429 7.05702 51.9664C5.27295 52.59 3.82587 53.0727 3.82587 53.0727C3.82587 53.0526 5.25312 52.5498 7.0372 51.9262C8.82127 51.3027 10.2684 50.7998 10.2684 50.8199Z" fill="#0D2C34"/>
<path id="Vector_129" d="M10.2684 50.8202C10.2684 50.8403 8.94023 51.5846 7.29491 52.4897C5.6496 53.3949 4.30164 54.1391 4.30164 54.119C4.30164 54.0989 5.62978 53.3547 7.27509 52.4495C8.9204 51.5242 10.2684 50.8001 10.2684 50.8202Z" fill="#0D2C34"/>
<path id="Vector_130" d="M10.2684 50.8203C10.2684 50.8001 11.656 51.484 13.3409 52.3288C15.0259 53.1737 16.3937 53.8575 16.3937 53.8777C16.3937 53.8978 15.0061 53.2139 13.3211 52.3691C11.6362 51.5243 10.2684 50.8203 10.2684 50.8203Z" fill="#0D2C34"/>
<path id="Vector_131" d="M10.2684 50.82C10.2684 50.7999 11.7353 51.2424 13.5392 51.7855C15.3431 52.3286 16.7901 52.7912 16.7901 52.7912C16.7901 52.8113 15.3232 52.3688 13.5193 51.8257C11.7353 51.2826 10.2684 50.82 10.2684 50.82Z" fill="#0D2C34"/>
<path id="Vector_132" d="M10.2684 50.8196C10.2684 50.7995 11.7947 50.9806 13.6581 51.2219C15.5215 51.4432 17.028 51.6443 17.028 51.6644C17.028 51.6846 15.5017 51.5035 13.6383 51.2622C11.7947 51.0208 10.2684 50.8398 10.2684 50.8196Z" fill="#0D2C34"/>
<path id="Vector_133" d="M10.2684 50.8196C10.2684 50.7995 11.7947 50.7191 13.6779 50.6386C15.5611 50.5581 17.0875 50.4978 17.0875 50.4978C17.0875 50.5179 15.5611 50.5984 13.6779 50.6788C11.7947 50.7794 10.2684 50.8398 10.2684 50.8196Z" fill="#0D2C34"/>
<path id="Vector_134" d="M10.2684 50.8201C10.2684 50.8 11.7551 50.458 13.5986 50.0557C15.4422 49.6534 16.9289 49.3316 16.9289 49.3517C16.9289 49.3718 15.4422 49.7138 13.5986 50.1161C11.7749 50.5184 10.2882 50.8201 10.2684 50.8201Z" fill="#0D2C34"/>
<path id="Vector_135" d="M10.2684 50.8196C10.2684 50.7994 11.6758 50.2161 13.4202 49.5121C15.1647 48.8081 16.5919 48.2248 16.5919 48.2449C16.5919 48.265 15.1845 48.8483 13.4401 49.5523C11.6956 50.2563 10.2882 50.8196 10.2684 50.8196Z" fill="#0D2C34"/>
<path id="Vector_136" d="M10.2684 50.8198C10.2684 50.7997 11.5569 49.9951 13.1625 48.9894C14.7682 47.9837 16.0765 47.1992 16.0765 47.1992C16.0765 47.2193 14.788 48.0239 13.1824 49.0296C11.5965 50.0354 10.2882 50.8198 10.2684 50.8198Z" fill="#0D2C34"/>
<path id="Vector_137" d="M10.2684 50.8196C10.2684 50.7995 11.3983 49.7737 12.8057 48.5266C14.2132 47.2593 15.3827 46.2536 15.3827 46.2737C15.3827 46.2938 14.2528 47.3197 12.8454 48.5668C11.4379 49.8139 10.2882 50.8196 10.2684 50.8196Z" fill="#0D2C34"/>
<path id="Vector_138" d="M10.2681 50.8197C10.2483 50.8197 11.2196 49.6128 12.409 48.1244C13.5984 46.6359 14.5697 45.4491 14.5895 45.4692C14.6094 45.4692 13.638 46.6761 12.4487 48.1646C11.2593 49.633 10.2879 50.8197 10.2681 50.8197Z" fill="#0D2C34"/>
<path id="Vector_139" d="M10.2682 50.8194C10.2484 50.8194 11.0017 49.4516 11.9333 47.8022C12.865 46.1327 13.6183 44.8052 13.6381 44.8052C13.6579 44.8052 12.9047 46.173 11.973 47.8224C11.0413 49.4919 10.288 50.8194 10.2682 50.8194Z" fill="#0D2C34"/>
<path id="Vector_140" d="M36.1174 50.0153C36.3751 50.1762 36.4346 50.4779 36.3156 50.8802C36.1174 51.5641 35.5227 52.1072 34.7893 52.2279C32.4105 52.6302 26.642 53.5554 24.7192 53.7767C23.9857 53.8571 23.4307 53.7163 23.0739 53.3543C22.5188 52.7911 22.5981 51.8859 22.5981 51.8859C22.4197 50.8802 24.2632 50.4779 24.2831 50.4779L34.0162 49.794C34.0162 49.794 34.3333 49.7337 34.7496 49.7337C35.2055 49.6934 35.7209 49.7538 36.1174 50.0153ZM24.7588 53.8974C26.6816 53.6761 32.4303 52.7307 34.8289 52.3486C35.602 52.2279 36.2363 51.6647 36.4544 50.9204C36.5932 50.4578 36.494 50.1158 36.1967 49.9348C35.3443 49.3716 34.0756 49.6331 34.036 49.6532L24.3029 50.3371C24.2236 50.3572 22.3404 50.7595 22.5188 51.8859C22.5188 51.9865 22.4395 52.8715 23.0144 53.4549C23.3316 53.7767 23.7875 53.9376 24.3624 53.9376C24.4813 53.9175 24.6201 53.9175 24.7588 53.8974Z" fill="#0E1B29"/>
<path id="Vector_141" d="M22.3404 51.9461C22.3404 53.0725 23.2324 53.9777 24.3425 53.9777C25.4526 53.9777 26.3446 53.0725 26.3446 51.9461C26.3446 50.8197 25.4526 49.9146 24.3425 49.9146C23.2324 49.9146 22.3404 50.8398 22.3404 51.9461Z" fill="#0E1B29"/>
<path id="Vector_142" d="M25.8295 51.9261C25.8295 51.9261 25.8295 51.7853 25.7701 51.564C25.7106 51.3428 25.5718 51.021 25.2348 50.7595C25.0763 50.6388 24.8582 50.5382 24.6203 50.498C24.3825 50.4578 24.1248 50.4577 23.8671 50.5583C23.7481 50.5986 23.6094 50.679 23.5102 50.7595C23.3913 50.8399 23.2922 50.9405 23.2129 51.0612C23.0345 51.3026 22.9354 51.6043 22.9354 51.9261C22.9354 52.2479 23.0345 52.5497 23.2129 52.791C23.2922 52.9117 23.4111 53.0123 23.5102 53.0928C23.6292 53.1732 23.7481 53.2537 23.8671 53.2939C24.1248 53.3945 24.3825 53.3945 24.6203 53.3542C24.8582 53.314 25.0564 53.2134 25.2348 53.0928C25.5718 52.8313 25.7106 52.5094 25.7701 52.2882C25.8295 52.0468 25.8097 51.906 25.8295 51.9261C25.8295 51.9261 25.8295 51.9663 25.8295 52.0267C25.8295 52.0669 25.8295 52.087 25.8295 52.1474C25.8295 52.1876 25.8097 52.2479 25.8097 52.3083C25.7502 52.5295 25.6115 52.8715 25.2745 53.1531C25.1159 53.2738 24.8979 53.3945 24.6402 53.4347C24.4023 53.4749 24.1248 53.4749 23.8472 53.3744C23.7085 53.3341 23.5895 53.2537 23.4706 53.1732C23.3517 53.0928 23.2525 52.9721 23.1534 52.8514C22.975 52.61 22.8561 52.2882 22.8561 51.9462C22.8561 51.6244 22.9552 51.3026 23.1534 51.0411C23.2525 50.9204 23.3517 50.7997 23.4706 50.7192C23.5895 50.6388 23.7085 50.5583 23.8472 50.5181C24.1049 50.4175 24.3825 50.4175 24.6402 50.4577C24.878 50.498 25.0961 50.6187 25.2745 50.7394C25.6115 51.0008 25.7502 51.3428 25.8097 51.5842C25.8295 51.6445 25.8295 51.6847 25.8295 51.7451C25.8295 51.7853 25.8295 51.8255 25.8295 51.8658C25.8295 51.8859 25.8295 51.9261 25.8295 51.9261Z" fill="white"/>
<path id="Vector_143" d="M32.1132 51.4836H31.6573V50.1963H32.1132V51.4836Z" fill="#335963"/>
<path id="Vector_144" fill-rule="evenodd" clip-rule="evenodd" d="M35.0668 51.2625L29.2586 43.3776L29.5758 42.3115L35.6614 50.7395L35.0668 51.2625Z" fill="#0E1B29"/>
<path id="Vector_145" d="M35.1068 50.8602L35.2852 50.6993L29.6753 42.9351L29.5563 43.3172L35.1068 50.8602Z" fill="#C6665A"/>
<path id="Vector_146" d="M22.1818 51.7852C22.1818 51.7852 22.5585 49.8944 24.0848 49.6329C25.6112 49.3915 31.7167 49.6329 31.7167 49.6329C31.7167 49.6329 32.351 49.653 32.351 50.4576L27.9305 50.6185L26.1266 51.3426C26.1266 51.3426 25.6905 50.0352 24.065 50.4576C22.836 50.7593 22.836 51.765 22.836 51.765H22.1818V51.7852Z" fill="#0E1B29"/>
<path id="Vector_147" fill-rule="evenodd" clip-rule="evenodd" d="M25.2546 52.7911L23.9661 52.429L26.1665 44.6648L26.9792 46.3946L25.2546 52.7911Z" fill="#0E1B29"/>
<path id="Vector_148" d="M25.0365 52.4286L26.6619 46.4345L26.2258 45.5293L24.3427 52.2274L25.0365 52.4286Z" fill="#C6665A"/>
<path id="Vector_149" d="M25.0761 52.2479L26.6619 46.4348L26.424 45.9119L24.6598 52.1273L25.0761 52.2479Z" fill="#A05349"/>
<path id="Vector_150" d="M18.0985 53.2543C18.2372 53.4152 18.4949 53.3549 18.5346 53.1336C18.7923 51.9469 19.2482 48.7889 17.3452 46.0533C15.2439 43.0361 12.4885 42.4528 11.0018 42.2315C10.7045 42.1913 10.4468 42.4126 10.4269 42.7143C10.4269 42.7143 13.8167 42.9355 15.7792 44.9068C17.7615 46.8981 18.9112 49.9555 18.0985 53.2543Z" fill="#0E1B29"/>
<path id="Vector_151" fill-rule="evenodd" clip-rule="evenodd" d="M12.3893 46.5356L15.0852 38.9927L16.2746 39.6363L16.1359 40.0185C18.2966 40.5817 22.8757 40.9036 25.0959 40.8834H25.4329V42.2915H25.1157C22.5189 42.2915 18.2569 41.9294 15.6799 41.3863L15.6403 41.5271L24.9769 51.5442L35.5822 50.0154L35.7805 51.4235L24.4417 53.0527L15.1051 43.0558L13.6976 47.0385L13.6778 47.0787C13.5192 47.4207 13.3606 47.7425 13.1822 48.0643C12.8254 48.708 12.4289 49.3517 11.9928 49.9551C11.6162 50.458 11.1999 50.9608 10.7242 51.343L10.4665 51.5442L9.61407 50.4379L9.87177 50.2367C10.8233 49.4724 11.8541 47.6822 12.3893 46.5356Z" fill="#0E1B29"/>
<path id="Vector_152" d="M10.5062 51.101C12.0128 49.8941 13.3211 47.0781 13.3806 46.9574L13.4004 46.9171L14.9862 42.4115L24.5806 52.69L35.4039 51.1412L35.3048 50.4171L24.8581 51.9257L15.2241 41.6471L15.4421 41.0437C17.9002 41.5466 20.6358 41.9891 25.1158 41.9891V41.2448C20.9133 41.3052 17.8804 40.8627 15.6998 40.2793L15.8584 39.8167L15.2637 39.4949L12.6867 46.6758C12.5876 46.897 11.3586 49.4717 10.0305 50.5378L10.5062 51.101Z" fill="#C6665A"/>
<path id="Vector_153" d="M10.5061 51.1017C12.0127 49.8949 13.321 47.0788 13.3805 46.9581L13.4003 46.9179L14.9861 42.4123L24.5805 52.6908L35.384 51.142L35.3444 50.8201L24.8976 52.3287L15.2835 42.0502L15.3826 41.7887L15.2438 41.6479L15.4619 41.0445C17.9199 41.5473 20.6555 41.9899 25.1355 41.9899V41.6479C20.9727 41.6881 17.9397 41.2657 15.779 40.6824L15.898 40.3203C15.8385 40.3002 15.779 40.2801 15.7196 40.2801L15.8385 39.9583L15.3628 39.7974L12.7461 47.0788C12.647 47.3001 11.5171 49.6736 10.2484 50.8L10.5061 51.1017Z" fill="#A05349"/>
<path id="Vector_154" fill-rule="evenodd" clip-rule="evenodd" d="M30.7058 41.9292L32.0934 41.0442H41.549C41.7869 41.0442 41.9851 41.2453 41.9851 41.4867C41.9851 41.7281 41.7869 41.9292 41.549 41.9292H30.7058Z" fill="#0E1B29"/>
<path id="Vector_155" d="M31.6972 41.6478H41.5691C41.6484 41.6478 41.7277 41.5673 41.7277 41.4868C41.7277 41.4064 41.6682 41.3259 41.5691 41.3259H32.1928L31.6972 41.6478Z" fill="#C6665A"/>
<path id="Vector_156" fill-rule="evenodd" clip-rule="evenodd" d="M35.1659 51.1016L34.2739 51.0011L39.6261 41.7283L40.4785 41.8087L35.1659 51.1016Z" fill="#0E1B29"/>
<path id="Vector_157" d="M34.9679 50.8001L40.1219 42.0502L39.8047 42.01L34.6309 50.7598L34.9679 50.8001Z" fill="#C6665A"/>
<path id="Vector_158" d="M8.94037 50.8601C8.94037 50.1159 9.53506 49.5125 10.2685 49.5125C11.002 49.5125 11.5967 50.1159 11.5967 50.8601C11.5967 51.6044 11.002 52.2078 10.2685 52.2078C9.53506 52.2078 8.94037 51.6044 8.94037 50.8601Z" fill="#0E1B29"/>
<path id="Vector_159" d="M33.6595 50.86C33.6595 49.975 34.3731 49.271 35.2255 49.271C36.0977 49.271 36.8113 49.9951 36.8113 50.86C36.8113 51.7451 36.0977 52.4491 35.2255 52.4491C34.3731 52.4491 33.6595 51.7451 33.6595 50.86Z" fill="#0E1B29"/>
<path id="Vector_160" d="M24.6005 52.047L26.9594 48.2051L27.4748 48.4464L24.9771 52.5498L24.6005 52.047Z" fill="#CCCCCC"/>
<path id="Vector_161" d="M24.5209 52.0064L26.9195 48.064L27.6331 48.4059L24.9967 52.7507L24.4813 52.0668L24.5209 52.0064ZM26.9988 48.3456L24.739 52.0466L24.9768 52.3685L27.3358 48.5065L26.9988 48.3456Z" fill="#0E1B29"/>
<path id="Vector_162" d="M29.1596 48.1043L26.642 47.5813L26.4835 48.3054L29.0208 48.8284L29.1596 48.1043Z" fill="#0E1B29"/>
<path id="Vector_163" fill-rule="evenodd" clip-rule="evenodd" d="M24.8978 51.8054C25.1952 51.8054 25.4331 52.0468 25.4331 52.3485C25.4331 52.6502 25.1952 52.8916 24.8978 52.8916C24.6005 52.8916 24.3626 52.6502 24.3626 52.3485C24.3626 52.0468 24.6005 51.8054 24.8978 51.8054Z" fill="#CCCCCC"/>
<path id="Vector_164" d="M24.8976 51.6846C25.076 51.6846 25.2346 51.765 25.3535 51.8857C25.4724 52.0064 25.5517 52.1673 25.5517 52.3483C25.5517 52.5294 25.4724 52.6903 25.3535 52.811C25.2346 52.9317 25.076 53.0121 24.8976 53.0121C24.7192 53.0121 24.5606 52.9317 24.4416 52.811C24.3227 52.6903 24.2434 52.5294 24.2434 52.3483C24.2434 52.1673 24.3227 52.0064 24.4416 51.8857C24.5606 51.765 24.7192 51.6846 24.8976 51.6846ZM25.1949 52.0265C25.1156 51.946 25.0165 51.9058 24.8976 51.9058C24.7786 51.9058 24.6795 51.946 24.6002 52.0265C24.5209 52.107 24.4813 52.2075 24.4813 52.3282C24.4813 52.4489 24.5209 52.5495 24.6002 52.6299C24.6795 52.7104 24.7786 52.7506 24.8976 52.7506C25.0165 52.7506 25.1156 52.7104 25.1949 52.6299C25.2742 52.5495 25.3139 52.4489 25.3139 52.3282C25.3139 52.2277 25.2742 52.107 25.1949 52.0265Z" fill="#0E1B29"/>
<path id="Vector_165" fill-rule="evenodd" clip-rule="evenodd" d="M19.1687 35.8342C19.3867 35.8342 19.5849 36.0153 19.5849 36.2566C19.5849 36.498 19.4065 36.679 19.1687 36.679C18.9506 36.679 18.7524 36.498 18.7524 36.2566C18.7524 36.0153 18.9506 35.8342 19.1687 35.8342Z" fill="#CCCCCC"/>
<path id="Vector_166" d="M19.1691 35.7136C19.3078 35.7136 19.4466 35.774 19.5259 35.8745C19.625 35.9751 19.6845 36.0958 19.6845 36.2366C19.6845 36.3774 19.625 36.5182 19.5259 36.5987C19.4268 36.6992 19.3078 36.7596 19.1691 36.7596C19.0303 36.7596 18.8916 36.6992 18.8123 36.5987C18.7132 36.4981 18.6537 36.3774 18.6537 36.2366C18.6537 36.0958 18.7132 35.955 18.8123 35.8745C18.9114 35.774 19.0303 35.7136 19.1691 35.7136ZM19.3871 36.0355C19.3277 35.9751 19.2682 35.955 19.1691 35.955C19.0898 35.955 19.0105 35.9952 18.951 36.0355C18.8916 36.0958 18.8717 36.1561 18.8717 36.2567C18.8717 36.3372 18.9114 36.4176 18.951 36.478C19.0105 36.5383 19.07 36.5584 19.1691 36.5584C19.2484 36.5584 19.3277 36.5182 19.3871 36.478C19.4466 36.4176 19.4664 36.3573 19.4664 36.2567C19.4664 36.1561 19.4466 36.0757 19.3871 36.0355Z" fill="#0E1B29"/>
<path id="Vector_167" fill-rule="evenodd" clip-rule="evenodd" d="M14.0547 38.7107C14.0547 38.7107 16.3145 39.475 16.3145 39.5153C16.3145 39.5555 16.374 39.9377 16.1361 39.9176C15.8983 39.9176 13.5591 39.0728 13.5591 39.0728L14.0547 38.7107Z" fill="#CCCCCC"/>
<path id="Vector_168" d="M14.0746 38.6103C14.0746 38.6103 16.374 39.3143 16.3939 39.435C16.3939 39.4551 16.4137 39.5758 16.4137 39.6563C16.4137 39.7166 16.3939 39.7971 16.374 39.8574C16.3344 39.9379 16.2749 39.9982 16.1758 40.0183C16.156 40.0183 16.1362 40.0183 16.1163 40.0183C15.8586 40.0183 13.5195 39.1534 13.5195 39.1534L13.3213 39.093L14.0151 38.5701L14.0746 38.6103ZM16.2155 39.5356C16.2155 39.5154 14.4116 38.9321 14.0746 38.8316L13.797 39.0327C14.3521 39.2338 15.9776 39.7971 16.1362 39.8172C16.1362 39.8172 16.1362 39.8172 16.156 39.8172C16.1758 39.8172 16.1758 39.7971 16.1956 39.7769C16.2155 39.7367 16.2155 39.6965 16.2155 39.6563C16.2155 39.5959 16.2155 39.5557 16.2155 39.5356Z" fill="#0E1B29"/>
<path id="Vector_169" fill-rule="evenodd" clip-rule="evenodd" d="M14.1336 36.981C14.649 36.981 14.9464 37.5241 14.8275 38.1677C14.6887 38.8315 14.1733 39.3545 13.6579 39.3545C13.1425 39.3545 12.8451 38.8114 12.9641 38.1677C13.1028 37.5039 13.6381 36.981 14.1336 36.981Z" fill="#0E1B29"/>
<path id="Vector_170" fill-rule="evenodd" clip-rule="evenodd" d="M13.9754 37.1221C14.2728 37.1221 14.4115 37.5445 14.253 38.0675C14.0944 38.5904 13.7376 39.0128 13.4204 39.0128C13.1032 39.0128 12.9843 38.5904 13.1429 38.0675C13.3015 37.5445 13.6781 37.1221 13.9754 37.1221Z" fill="#FF9933"/>
<path id="Vector_171" fill-rule="evenodd" clip-rule="evenodd" d="M13.9753 37.1221C14.015 37.1221 14.0348 37.1221 14.0745 37.1422C14.1141 37.3031 14.1141 37.5445 14.0348 37.7858C13.8762 38.3088 13.5194 38.7312 13.2022 38.7312C13.1626 38.7312 13.1428 38.7312 13.1031 38.7111C13.0635 38.5502 13.0635 38.3088 13.1428 38.0675C13.3014 37.5445 13.678 37.1221 13.9753 37.1221Z" fill="#FFAC59"/>
<path id="Vector_172" d="M41.4698 38.5702C41.6085 38.711 41.7077 38.9121 41.7077 39.1535V41.346H34.056V39.0127C34.056 38.8316 34.1353 38.6506 34.2542 38.5299C34.3731 38.4092 36.5537 38.55 38.4963 38.55C39.9434 38.5299 41.2319 38.3288 41.4698 38.5702Z" fill="#0E1B29"/>
<path id="Vector_173" d="M34.5518 38.8315C34.5121 38.8718 34.4923 38.9321 34.4923 38.9925V40.8832H41.2718V39.1333C41.2718 39.0327 41.2321 38.9321 41.1727 38.8718C40.3599 38.7712 36.8314 38.9522 34.5518 38.8315Z" fill="#FF9933"/>
<path id="Vector_174" d="M34.4923 40.3397V40.9029H41.2718V39.1529C41.2718 39.0524 41.2321 38.9518 41.1727 38.8914C41.0736 38.8713 40.915 38.8713 40.7366 38.8713C40.459 39.4144 39.3291 40.4202 34.4923 40.3397Z" fill="#DF8633"/>
<path id="Vector_175" fill-rule="evenodd" clip-rule="evenodd" d="M34.175 39.3946C35.1662 39.3946 35.8005 39.4951 36.8115 39.3342C36.8115 39.3342 37.6441 39.3946 37.6639 39.3946C37.4657 39.5153 36.5538 39.3946 36.2366 39.5555C36.0582 39.6359 34.6706 39.4549 34.3931 39.5756C34.3336 39.5957 34.0759 39.4549 34.175 39.3946Z" fill="#0E1B29"/>
<path id="Vector_176" fill-rule="evenodd" clip-rule="evenodd" d="M41.6482 40.1791C40.6174 40.1791 39.9632 40.2194 38.9324 40.1389C38.9324 40.1389 38.0801 40.159 38.0404 40.1791C38.2386 40.2395 39.1901 40.1791 39.5073 40.2596C39.6857 40.2998 41.113 40.2194 41.4103 40.2596C41.4698 40.2797 41.7473 40.2194 41.6482 40.1791Z" fill="#0E1B29"/>
<path id="Vector_177" fill-rule="evenodd" clip-rule="evenodd" d="M34.2543 40.5216C35.2455 40.5216 35.8798 40.4613 36.8908 40.5618C36.8908 40.5618 37.7234 40.5216 37.7432 40.5216C37.5449 40.4613 36.6331 40.5216 36.3159 40.4411C36.1375 40.4009 34.7499 40.5015 34.4724 40.4411C34.4129 40.4009 34.1552 40.4814 34.2543 40.5216Z" fill="#0E1B29"/>
<path id="Vector_178" fill-rule="evenodd" clip-rule="evenodd" d="M34.8885 39.0933C34.9281 39.0933 34.9676 39.1334 34.9676 39.1735C34.9676 39.2137 34.9281 39.2538 34.8885 39.2538C34.849 39.2538 34.8094 39.2137 34.8094 39.1735C34.8292 39.1133 34.849 39.0933 34.8885 39.0933Z" fill="#0E1B29"/>
<path id="Vector_179" fill-rule="evenodd" clip-rule="evenodd" d="M34.908 39.9177C34.9476 39.9177 34.9871 39.9579 34.9871 39.998C34.9871 40.0381 34.9476 40.0782 34.908 40.0782C34.8685 40.0782 34.8289 40.0381 34.8289 39.998C34.8289 39.9579 34.8685 39.9177 34.908 39.9177Z" fill="#0E1B29"/>
<path id="Vector_180" fill-rule="evenodd" clip-rule="evenodd" d="M40.8353 39.1333C40.8749 39.1333 40.9144 39.1734 40.9144 39.2136C40.9144 39.2537 40.8749 39.2938 40.8353 39.2938C40.7958 39.2938 40.7562 39.2537 40.7562 39.2136C40.7562 39.1534 40.7958 39.1333 40.8353 39.1333Z" fill="#0E1B29"/>
<path id="Vector_181" fill-rule="evenodd" clip-rule="evenodd" d="M40.8353 39.7563C40.8749 39.7563 40.9144 39.7965 40.9144 39.8366C40.9144 39.8767 40.8749 39.9169 40.8353 39.9169C40.7958 39.9169 40.7562 39.8767 40.7562 39.8366C40.7562 39.7965 40.7958 39.7563 40.8353 39.7563Z" fill="#0E1B29"/>
<path id="Vector_182" fill-rule="evenodd" clip-rule="evenodd" d="M40.8353 40.5415C40.8749 40.5415 40.9144 40.5816 40.9144 40.6218C40.9144 40.6619 40.8749 40.702 40.8353 40.702C40.7958 40.702 40.7562 40.6619 40.7562 40.6218C40.776 40.5816 40.7958 40.5415 40.8353 40.5415Z" fill="#0E1B29"/>
<path id="Vector_183" fill-rule="evenodd" clip-rule="evenodd" d="M34.8486 40.6624C34.8882 40.6624 34.9277 40.7025 34.9277 40.7426C34.9277 40.7827 34.8882 40.8229 34.8486 40.8229C34.8091 40.8229 34.7695 40.7827 34.7695 40.7426C34.7893 40.7025 34.8091 40.6624 34.8486 40.6624Z" fill="#0E1B29"/>
<path id="Vector_184" fill-rule="evenodd" clip-rule="evenodd" d="M43.9079 23.5647C44.4035 23.444 44.9387 23.3032 45.4739 23.2227C46.0091 23.1423 46.5444 23.1222 47.0796 23.1021C47.595 23.1423 48.1302 23.1825 48.6258 23.3233C49.1214 23.444 49.5773 23.6451 50.0134 23.8664C49.9936 23.9871 49.9737 24.1078 49.9539 24.2486C49.7953 24.2084 49.6566 24.3089 49.6169 24.49C49.5971 24.671 49.6962 24.8922 49.835 25.033C49.8152 25.1336 49.7953 25.2543 49.7755 25.3549C49.6169 25.3147 49.4782 25.3951 49.4583 25.5761C49.4187 25.7572 49.498 25.9784 49.6169 26.1192C49.5971 26.2399 49.5575 26.3405 49.5178 26.4612C49.3791 26.4008 49.2205 26.4813 49.161 26.6422C49.1015 26.8031 49.1412 27.0244 49.2601 27.1451C49.2205 27.2456 49.1808 27.3261 49.1412 27.4267C48.824 27.2054 48.5068 26.9842 48.15 26.8232C47.7932 26.6623 47.3968 26.5819 47.0003 26.5215C46.584 26.5014 46.1677 26.5014 45.7713 26.5819C45.355 26.6824 44.9585 26.8635 44.6017 27.0646C44.5621 26.964 44.5026 26.8635 44.4629 26.7629C44.6017 26.6221 44.681 26.4411 44.6414 26.26C44.6017 26.0991 44.4431 25.9985 44.2449 26.0388C44.2251 25.9382 44.1854 25.8175 44.1656 25.7169C44.344 25.5963 44.4431 25.3951 44.4233 25.2342C44.4035 25.0733 44.2449 24.9727 44.0467 24.9928C44.0268 24.8922 44.0268 24.7917 44.007 24.6911C44.1854 24.5704 44.3242 24.3693 44.3044 24.2084C44.2845 24.0273 44.126 23.9267 43.9277 23.9469C43.9277 23.8262 43.9079 23.6854 43.9079 23.5647Z" fill="#ED3932" stroke="#0E1B29" stroke-width="0.5" stroke-miterlimit="22.9256" stroke-linecap="round" stroke-linejoin="round"/>
<path id="Vector_185" fill-rule="evenodd" clip-rule="evenodd" d="M41.5689 32.5153C41.8068 32.1935 42.1041 31.8717 42.342 31.4895C42.5997 31.1073 42.7979 30.6849 42.9962 30.2424C43.1548 29.7798 43.3133 29.3171 43.3728 28.8344C43.4521 28.3516 43.4521 27.8689 43.4323 27.3861C43.3332 27.366 43.2142 27.3258 43.1151 27.3057C43.0953 27.4666 42.9763 27.5672 42.7979 27.5068C42.6394 27.4666 42.4808 27.3057 42.4015 27.1246C42.3024 27.1045 42.2033 27.0844 42.1041 27.0643C42.1041 27.2051 41.9852 27.3057 41.8068 27.2654C41.6482 27.2453 41.4698 27.1045 41.4103 26.9637C41.3112 26.9637 41.1923 26.9436 41.0932 26.9436C41.0932 27.0844 40.9742 27.185 40.8156 27.185C40.6571 27.185 40.4985 27.1045 40.4192 26.9637C40.3201 26.9637 40.2408 26.9838 40.1615 26.9838C40.2408 27.3057 40.3002 27.6275 40.3201 27.9493C40.3399 28.2712 40.3002 28.6131 40.2606 28.9148C40.1813 29.2166 40.0822 29.5384 39.9038 29.7999C39.7254 30.0614 39.4875 30.2826 39.2298 30.4838C39.2893 30.5441 39.3686 30.6045 39.428 30.6648C39.5668 30.6045 39.7452 30.6246 39.8443 30.7251C39.9632 30.8257 39.9831 30.9665 39.884 31.0872C39.9632 31.1475 40.0227 31.228 40.102 31.2883C40.2408 31.228 40.4192 31.228 40.5381 31.3286C40.6571 31.4292 40.6769 31.5901 40.5778 31.7108C40.6372 31.7711 40.7165 31.8314 40.776 31.8918C40.9148 31.8113 41.0932 31.8113 41.2121 31.9119C41.331 32.0125 41.3509 32.1734 41.2716 32.3142C41.3905 32.3946 41.4698 32.455 41.5689 32.5153Z" fill="#ED3932" stroke="#0E1B29" stroke-width="0.5" stroke-miterlimit="22.9256" stroke-linecap="round" stroke-linejoin="round"/>
<path id="Vector_186" fill-rule="evenodd" clip-rule="evenodd" d="M35.0074 36.7195H40.7561V38.1074H35.0074V36.7195Z" fill="#ED3932" stroke="#0E1B29" stroke-width="0.992101" stroke-miterlimit="22.9256" stroke-linecap="round" stroke-linejoin="round"/>
<path id="Vector_187" fill-rule="evenodd" clip-rule="evenodd" d="M35.0074 37.1826H40.7561V37.6453H35.0074V37.1826Z" fill="#ED3932" stroke="#0E1B29" stroke-width="0.992101" stroke-miterlimit="22.9256" stroke-linecap="round" stroke-linejoin="round"/>
<path id="Vector_188" fill-rule="evenodd" clip-rule="evenodd" d="M35.0668 36.116C35.5425 36.116 36.0381 36.116 36.5139 36.116C36.9896 36.116 37.4852 36.116 37.9609 36.116C38.4367 36.116 38.9124 36.116 39.3684 36.1361C39.8243 36.1361 40.2802 36.1361 40.7163 36.1361C40.7163 36.0556 40.7362 35.9752 40.7362 35.8947C40.5776 35.8746 40.4785 35.774 40.4983 35.6332C40.5181 35.4924 40.637 35.3516 40.7956 35.2913C40.7956 35.1907 40.7956 35.1103 40.7956 35.0097C40.6569 35.0097 40.5577 34.9091 40.5379 34.7281C40.5379 34.5672 40.6172 34.366 40.7362 34.2655C40.7163 34.1448 40.6965 34.0241 40.6767 33.8833C40.5379 33.9034 40.419 33.8028 40.3793 33.6017C40.3397 33.4005 40.3595 33.1592 40.4388 32.9982C40.3992 32.8775 40.1415 32.3546 40.1018 32.2339C39.3684 34.0643 37.4059 34.4063 36.0976 34.7482C36.0777 34.7884 36.0777 34.8488 36.0579 34.889C36.5139 34.8488 36.1967 35.1907 35.8002 35.2913L35.6813 35.4321C35.8399 35.4321 35.8993 35.9148 35.4236 35.8746C35.265 35.8746 35.1659 36.0154 35.0668 36.116Z" fill="#ED3932" stroke="#0E1B29" stroke-width="0.5" stroke-miterlimit="22.9256" stroke-linecap="round" stroke-linejoin="round"/>
<path id="Vector_189" fill-rule="evenodd" clip-rule="evenodd" d="M55.901 32.0532C55.3261 32.0733 54.7314 32.1336 54.1169 32.1135C53.5222 32.0934 52.9275 32.0129 52.3328 31.9124C51.758 31.7716 51.2029 31.6106 50.6875 31.3693C50.1721 31.1279 49.7162 30.8262 49.2603 30.5043C49.2999 30.3635 49.3395 30.2429 49.399 30.1021C49.5774 30.1825 49.736 30.1021 49.8153 29.9009C49.8748 29.6998 49.8153 29.4383 49.6765 29.2572C49.7162 29.1366 49.7558 29.0159 49.7955 28.9153C49.9541 28.9958 50.1126 28.9354 50.1919 28.7343C50.2712 28.5331 50.2316 28.2917 50.1126 28.1107C50.1721 27.99 50.2316 27.8693 50.2911 27.7486C50.4496 27.8291 50.6082 27.7889 50.7073 27.6078C50.8065 27.4268 50.8065 27.2056 50.7073 27.0245C50.7668 26.9239 50.8263 26.8435 50.8857 26.7429C51.1831 27.0446 51.5003 27.3665 51.8571 27.6078C52.2139 27.8492 52.6302 28.0303 53.0465 28.1912C53.4826 28.2917 53.9583 28.3923 54.4142 28.3722C54.89 28.3521 55.3459 28.2314 55.8019 28.0906C55.8415 28.2113 55.8613 28.332 55.8812 28.4527C55.7027 28.5733 55.5838 28.7745 55.6036 28.9555C55.6234 29.1567 55.782 29.2774 55.9803 29.2774C55.9803 29.398 56.0001 29.5388 56.0001 29.6595C55.782 29.7601 55.6234 29.9612 55.6234 30.1423C55.6234 30.3434 55.782 30.4641 56.0001 30.4842C56.0001 30.6049 55.9803 30.7055 55.9803 30.8262C55.7424 30.9267 55.5838 31.1078 55.564 31.3089C55.5442 31.5101 55.7027 31.6509 55.9208 31.671C55.9406 31.7716 55.9208 31.9124 55.901 32.0532Z" fill="#ED3932" stroke="#0E1B29" stroke-width="0.5" stroke-miterlimit="22.9256" stroke-linecap="round" stroke-linejoin="round"/>
<path id="Vector_190" fill-rule="evenodd" clip-rule="evenodd" d="M45.1966 23.7658C45.1966 23.7658 46.9411 23.2026 48.7053 23.9267C48.7053 23.9267 48.3882 24.4698 49.0621 24.6911L48.8837 25.8376C48.5864 25.7974 48.2692 25.9382 48.2296 26.3002C47.9124 26.1393 46.4851 25.7974 45.4742 26.1795C45.4742 26.1795 45.5535 25.5962 44.9984 25.5962L44.82 24.4296C44.82 24.4095 45.3552 24.1882 45.1966 23.7658Z" fill="#FB8F79"/>
<path id="Vector_191" d="M45.2364 24.8719C45.3356 24.8719 45.4148 24.8921 45.4743 24.9323C45.5338 24.9725 45.5536 25.0329 45.5536 25.0932C45.5536 25.1535 45.5338 25.2139 45.4941 25.2742C45.4545 25.3346 45.4148 25.3748 45.3554 25.3949C45.2959 25.415 45.2166 25.4553 45.1175 25.4754C45.0977 25.4754 45.058 25.4955 44.9986 25.4955C44.9589 25.4955 44.9193 25.5156 44.8994 25.5156C44.8598 25.5156 44.8202 25.5357 44.7607 25.5558C44.7409 25.5558 44.721 25.5759 44.7012 25.5759C44.6814 25.5759 44.6814 25.5759 44.6814 25.5558C44.6814 25.5357 44.6814 25.5357 44.7012 25.5357C44.7409 25.5156 44.7607 25.5156 44.7805 25.4955C44.8003 25.4754 44.8003 25.4754 44.8202 25.4553C44.8202 25.4351 44.84 25.415 44.84 25.3748V25.0127C44.84 24.892 44.84 24.8116 44.84 24.7512C44.84 24.6909 44.84 24.6507 44.8202 24.6306C44.8202 24.6104 44.8003 24.6105 44.8003 24.5903C44.7805 24.5903 44.7805 24.5903 44.7409 24.5903C44.721 24.5903 44.7012 24.5903 44.7012 24.5903C44.7012 24.5903 44.7012 24.5903 44.7012 24.5702C44.7012 24.5501 44.7012 24.5501 44.721 24.5501C44.7409 24.5501 44.7607 24.53 44.8202 24.5099C44.9193 24.4898 45.0184 24.4495 45.0977 24.4294C45.1571 24.4093 45.1968 24.3892 45.2166 24.3892C45.3157 24.3691 45.395 24.3691 45.4347 24.4093C45.4941 24.4495 45.514 24.4898 45.514 24.5702C45.4941 24.6909 45.4148 24.7915 45.2364 24.8719ZM45.0184 24.9122C45.1968 24.8719 45.2761 24.7714 45.2761 24.6104C45.2761 24.5501 45.2563 24.4898 45.2364 24.4696C45.1968 24.4495 45.177 24.4294 45.1175 24.4495C45.0977 24.4495 45.058 24.4696 45.0184 24.4898C45.0184 24.5501 45.0184 24.5903 45.0184 24.6507C45.0184 24.711 45.0184 24.8116 45.0184 24.9122ZM45.0184 24.9725C45.0184 25.0932 45.0184 25.1737 45.0184 25.2541C45.0184 25.3547 45.0184 25.415 45.0382 25.415C45.0382 25.4351 45.0779 25.4351 45.1175 25.415C45.1968 25.3949 45.2364 25.3748 45.2761 25.3145C45.3157 25.2742 45.3356 25.2139 45.3356 25.1334C45.3356 25.0731 45.3157 25.0127 45.2761 24.9725C45.2364 24.9323 45.177 24.9323 45.0977 24.9524C45.0779 24.9524 45.058 24.9725 45.0184 24.9725Z" fill="#0E1B29"/>
<path id="Vector_192" d="M46.2472 24.2283C46.3464 24.2283 46.4455 24.2283 46.5248 24.2685C46.6041 24.3087 46.6635 24.3691 46.7032 24.4495C46.7428 24.53 46.7825 24.6104 46.7825 24.711C46.7825 24.8518 46.723 24.9926 46.6239 25.1133C46.5248 25.234 46.386 25.2943 46.2274 25.3145C46.0887 25.3346 45.9697 25.2943 45.8508 25.2139C45.7517 25.1334 45.6922 25.0127 45.6922 24.8518C45.6922 24.6909 45.7517 24.5702 45.8508 24.4294C45.9499 24.3087 46.0887 24.2484 46.2472 24.2283ZM46.5049 24.7513C46.5049 24.5903 46.4851 24.4696 46.4257 24.3892C46.3662 24.3087 46.3067 24.2685 46.2274 24.2886C46.1481 24.2886 46.0887 24.349 46.0292 24.4294C45.9697 24.5099 45.9499 24.6507 45.9499 24.8116C45.9499 24.9725 45.9697 25.0731 46.0292 25.1535C46.0887 25.234 46.1481 25.2742 46.2274 25.2742C46.3067 25.2742 46.3662 25.234 46.4257 25.1535C46.4851 25.053 46.5049 24.9323 46.5049 24.7513Z" fill="#0E1B29"/>
<path id="Vector_193" d="M47.9323 24.3491L47.9521 24.5905C47.9521 24.6106 47.9521 24.6106 47.9521 24.6106C47.9521 24.6307 47.9521 24.6307 47.9323 24.6307C47.9125 24.6307 47.9125 24.6106 47.8926 24.5905C47.853 24.49 47.7935 24.4296 47.7341 24.3491C47.6746 24.2888 47.5953 24.2486 47.516 24.2486C47.4169 24.2486 47.3178 24.2888 47.2583 24.3693C47.1988 24.4698 47.1592 24.5704 47.1592 24.7112C47.1592 24.852 47.1988 24.9727 47.2583 25.0733C47.3178 25.1738 47.4169 25.2141 47.4962 25.2342C47.5358 25.2342 47.5755 25.2342 47.6151 25.2141C47.6548 25.194 47.6746 25.1738 47.6944 25.1537C47.7142 25.1336 47.7142 25.0934 47.7142 25.0532C47.7142 24.9526 47.7142 24.9124 47.6944 24.8922C47.6944 24.8721 47.6746 24.852 47.6548 24.852C47.6349 24.852 47.6151 24.8319 47.5557 24.8118C47.5358 24.8118 47.5358 24.7917 47.5358 24.7917C47.5358 24.7716 47.5358 24.7716 47.5557 24.7716L47.6746 24.7917L48.0314 24.8319C48.0512 24.8319 48.0512 24.852 48.0512 24.852V24.8721C48.0512 24.8721 48.0314 24.8721 47.9918 24.8721C47.9719 24.8721 47.9521 24.8922 47.9323 24.8922C47.9323 24.9124 47.9125 24.9928 47.9125 25.1336C47.9125 25.1738 47.9125 25.194 47.9125 25.194C47.9125 25.194 47.8728 25.2141 47.8133 25.2342C47.7539 25.2543 47.6944 25.2744 47.6349 25.2945C47.5755 25.3146 47.516 25.3146 47.4565 25.2945C47.3574 25.2945 47.2583 25.2543 47.179 25.2141C47.0997 25.1738 47.0204 25.1135 46.9808 25.033C46.9213 24.9526 46.9015 24.852 46.9015 24.7514C46.9015 24.5905 46.961 24.4698 47.0601 24.3491C47.1592 24.2285 47.2979 24.1882 47.4764 24.1882C47.5358 24.1882 47.5953 24.2083 47.6548 24.2285C47.7142 24.2486 47.7539 24.2687 47.8332 24.3089C47.853 24.3089 47.853 24.329 47.8728 24.329C47.8926 24.329 47.8926 24.329 47.8926 24.3089C47.8926 24.2888 47.9125 24.2888 47.9125 24.2888C47.9125 24.3089 47.9125 24.329 47.9323 24.3491Z" fill="#0E1B29"/>
<path id="Vector_194" d="M48.7252 24.4096C48.8243 24.4297 48.9234 24.4699 49.0027 24.5504C49.082 24.6107 49.1415 24.6912 49.1811 24.7918C49.2208 24.8923 49.2604 24.9728 49.2604 25.0734C49.2604 25.2142 49.201 25.3348 49.1019 25.4153C49.0027 25.4958 48.864 25.536 48.7054 25.4958C48.5666 25.4757 48.4477 25.3952 48.3288 25.2946C48.2296 25.1739 48.1702 25.0532 48.1702 24.8722C48.1702 24.7113 48.2296 24.5906 48.3288 24.49C48.4477 24.4096 48.5666 24.3694 48.7252 24.4096ZM49.0027 25.013C49.0027 24.8521 48.9829 24.7314 48.9234 24.6308C48.864 24.5303 48.8045 24.49 48.7252 24.4699C48.6459 24.4498 48.5865 24.4699 48.527 24.5504C48.4675 24.6308 48.4477 24.7314 48.4477 24.8923C48.4477 25.0533 48.4675 25.1739 48.527 25.2745C48.5865 25.3751 48.6459 25.4153 48.7252 25.4354C48.8045 25.4555 48.864 25.4354 48.9234 25.355C48.9631 25.2946 49.0027 25.1739 49.0027 25.013Z" fill="#0E1B29"/>
<path id="Vector_195" fill-rule="evenodd" clip-rule="evenodd" d="M50.8265 30.6854C50.8265 30.6854 52.5511 31.7313 54.6325 31.4095C54.6325 31.4095 54.4145 30.7457 55.1876 30.6854L55.2668 29.4182C54.9497 29.398 54.6325 29.1567 54.692 28.7544C54.3153 28.8348 52.6899 28.8549 51.6987 28.1912C51.6987 28.1912 51.6591 28.8348 51.0445 28.694L50.5688 29.9009C50.5688 29.8808 51.104 30.2831 50.8265 30.6854Z" fill="#FB8F79"/>
<path id="Vector_196" d="M51.6986 28.9147L51.6787 29.1762V29.1963C51.6787 29.2165 51.6589 29.2165 51.6589 29.2165L51.6391 29.1963C51.6193 29.1159 51.5796 29.0354 51.54 28.9751C51.5003 28.9147 51.4211 28.8544 51.3021 28.794C51.2228 28.7538 51.1633 28.7337 51.1633 28.7538C51.1435 28.7739 51.1039 28.9147 51.0444 29.1762C51.1039 29.2165 51.1634 29.2366 51.1832 29.2366C51.2228 29.2366 51.2426 29.2366 51.2625 29.2165C51.2823 29.1963 51.3219 29.1762 51.3418 29.1159C51.3418 29.0958 51.3616 29.0958 51.3616 29.0958C51.3814 29.0958 51.3814 29.1159 51.3814 29.136L51.3021 29.3975C51.2823 29.4981 51.2625 29.5383 51.2625 29.5383H51.2426C51.2228 29.5383 51.2228 29.5182 51.2228 29.4981C51.2228 29.4377 51.2228 29.3975 51.203 29.3371C51.1832 29.2969 51.1237 29.2366 51.0048 29.1963L50.9255 29.5182C50.9057 29.5785 50.9057 29.6187 50.9057 29.659C50.9057 29.6992 50.9255 29.7193 50.9255 29.7394C50.9453 29.7595 50.9651 29.7797 51.0048 29.7998C51.0246 29.8199 51.0444 29.8199 51.0444 29.8199V29.84C51.0444 29.8601 51.0246 29.8601 51.0048 29.8601C50.9849 29.84 50.9453 29.8199 50.8858 29.7998C50.8264 29.7797 50.7867 29.7595 50.7669 29.7394L50.5092 29.6187C50.4894 29.5986 50.4695 29.5986 50.4695 29.5785C50.4695 29.5584 50.4894 29.5584 50.529 29.5785C50.5885 29.5986 50.6281 29.5986 50.6479 29.5584C50.6678 29.5182 50.7272 29.3371 50.8065 29.0153C50.866 28.8142 50.8858 28.6734 50.8858 28.6331C50.8858 28.5929 50.8462 28.5527 50.8065 28.5124L50.7867 28.4923C50.7669 28.4722 50.7669 28.4722 50.7669 28.4521C50.7669 28.432 50.7867 28.432 50.8264 28.4521L51.6986 28.9147Z" fill="#0E1B29"/>
<path id="Vector_197" d="M52.2933 29.7397C52.3726 29.78 52.4321 29.8202 52.4718 29.8604C52.5114 29.9208 52.5312 30.0012 52.5312 30.1018C52.5312 30.2024 52.551 30.2828 52.5709 30.3231C52.5907 30.3633 52.6303 30.3834 52.67 30.4035C52.6898 30.4035 52.7096 30.4236 52.7096 30.4437C52.7096 30.4639 52.6898 30.4639 52.6303 30.4437L52.2933 30.3432C52.2735 30.3029 52.2537 30.2225 52.2735 30.142C52.2933 30.0213 52.2933 29.9409 52.2735 29.9007C52.2735 29.8403 52.2537 29.8001 52.2141 29.78C52.1942 29.7397 52.1546 29.7196 52.0951 29.6995C52.0753 29.6995 52.0555 29.6794 52.0356 29.6794C51.996 29.8805 51.9564 30.0012 51.9564 30.0415C51.9564 30.0817 51.9564 30.1219 51.9564 30.142C51.9762 30.1621 51.996 30.1823 52.0555 30.2024C52.0753 30.2225 52.0951 30.2225 52.0951 30.2426C52.0951 30.2627 52.0753 30.2627 52.0555 30.2627L51.7978 30.1621C51.7581 30.142 51.7185 30.142 51.659 30.1219C51.5995 30.1018 51.5797 30.1018 51.5599 30.0817C51.5401 30.0817 51.5202 30.0616 51.5401 30.0415C51.5401 30.0213 51.5599 30.0213 51.5797 30.0213C51.6194 30.0415 51.6392 30.0415 51.6788 30.0415C51.7185 30.0415 51.7383 29.9811 51.7779 29.8604L51.8176 29.6995L51.8969 29.3978C51.9365 29.2369 51.9564 29.1363 51.9564 29.0961C51.9564 29.0558 51.9167 29.0156 51.8572 28.9955C51.8374 28.9754 51.8176 28.9754 51.8374 28.9553C51.8374 28.9352 51.8572 28.9352 51.8969 28.9553C52.0555 29.0156 52.1942 29.076 52.2933 29.1162C52.3528 29.1363 52.3925 29.1363 52.4321 29.1564C52.5709 29.1966 52.6502 29.257 52.7096 29.3374C52.7691 29.4179 52.7889 29.4783 52.7691 29.5788C52.7493 29.6392 52.7295 29.6794 52.6898 29.7196C52.6502 29.7599 52.5907 29.78 52.5312 29.78C52.4321 29.7599 52.3528 29.7599 52.2933 29.7397ZM52.0555 29.6191C52.0753 29.6191 52.0753 29.6392 52.0951 29.6392C52.1546 29.6593 52.1942 29.6593 52.2537 29.6593C52.3132 29.6593 52.3528 29.6392 52.3726 29.6191C52.4123 29.5788 52.4321 29.5386 52.4321 29.4984C52.4519 29.438 52.4321 29.3576 52.4123 29.3173C52.3726 29.257 52.333 29.2168 52.2735 29.1966C52.2537 29.1765 52.2141 29.1765 52.1744 29.1765L52.0555 29.6191Z" fill="#0E1B29"/>
<path id="Vector_198" d="M53.998 29.559C53.998 29.6394 53.998 29.74 53.998 29.8205C53.998 29.8406 53.9782 29.8406 53.9584 29.8406C53.9584 29.8406 53.9385 29.8406 53.9385 29.8205C53.8989 29.7199 53.8592 29.6595 53.8196 29.6394C53.78 29.5992 53.7007 29.5791 53.6016 29.559C53.5421 29.559 53.5024 29.5388 53.443 29.5388C53.4033 29.6394 53.3835 29.74 53.3438 29.8607C53.3438 29.8808 53.324 29.921 53.324 29.9613L53.3835 29.9814C53.4231 29.9814 53.4628 30.0015 53.5024 29.9814C53.5421 29.9814 53.5619 29.9613 53.6016 29.921C53.6412 29.8808 53.6412 29.8607 53.661 29.8607C53.6808 29.8406 53.6808 29.8406 53.7007 29.8406C53.7205 29.8406 53.7205 29.8607 53.7205 29.8607C53.7205 29.8607 53.7205 29.8607 53.7205 29.8808C53.7007 29.921 53.6808 30.0216 53.6412 30.1825C53.6412 30.2026 53.6412 30.2227 53.6412 30.2429V30.263C53.6412 30.2831 53.6214 30.2831 53.6016 30.2831C53.5817 30.2831 53.5817 30.263 53.5817 30.2429C53.5817 30.1825 53.5619 30.1423 53.5223 30.1021C53.4826 30.0618 53.4231 30.0417 53.324 30.0216C53.3042 30.1222 53.2844 30.1825 53.2646 30.2026C53.2249 30.3233 53.2249 30.4038 53.2249 30.4239C53.2249 30.444 53.2249 30.4641 53.2646 30.4842C53.2844 30.5043 53.324 30.5245 53.3835 30.5245C53.6016 30.5647 53.78 30.5245 53.8791 30.3837C53.8989 30.3635 53.8989 30.3635 53.9187 30.3635C53.9385 30.3635 53.9385 30.3635 53.9385 30.3837C53.9385 30.3837 53.9385 30.4038 53.9187 30.4239L53.7998 30.6653L53.4826 30.6049C53.3835 30.5848 53.3042 30.5647 53.2249 30.5446C53.1456 30.5245 53.0861 30.5043 53.0465 30.5043C53.0069 30.4842 52.9276 30.4842 52.8284 30.4641C52.8086 30.4641 52.8086 30.4641 52.8086 30.4641C52.7888 30.4641 52.769 30.444 52.769 30.4239C52.769 30.4038 52.7888 30.4038 52.8086 30.4038C52.8681 30.4239 52.9077 30.4038 52.9276 30.3837C52.9474 30.3635 52.987 30.3032 53.0069 30.2227L53.1258 29.8003C53.1654 29.6595 53.1853 29.559 53.1853 29.5388C53.1853 29.4986 53.1853 29.4785 53.1654 29.4584C53.1456 29.4383 53.1258 29.4182 53.0862 29.4182C53.0663 29.4182 53.0663 29.398 53.0663 29.398C53.0663 29.3779 53.0862 29.3779 53.106 29.3779L53.324 29.4383L53.998 29.559Z" fill="#0E1B29"/>
<path id="Vector_199" d="M55.2267 29.5986C55.2267 29.6992 55.2267 29.7796 55.2267 29.8802C55.2267 29.9003 55.2069 29.9003 55.1871 29.9003C55.1673 29.9003 55.1673 29.9003 55.1673 29.8802C55.1276 29.7997 55.088 29.7394 55.0285 29.7193C54.9888 29.6992 54.9095 29.679 54.8104 29.679C54.751 29.679 54.6915 29.679 54.6519 29.6992C54.6122 29.7997 54.5924 29.9204 54.5527 30.0411C54.5527 30.0612 54.5329 30.1014 54.5329 30.1417H54.6122C54.6518 30.1417 54.6915 30.1417 54.7311 30.1216C54.7708 30.1014 54.7906 30.0813 54.8303 30.0411C54.8699 30.0009 54.8897 29.9808 54.8897 29.9606C54.9096 29.9405 54.9095 29.9405 54.9294 29.9405C54.9492 29.9405 54.9492 29.9405 54.9492 29.9606C54.9492 29.9606 54.9492 29.9606 54.9492 29.9808C54.9294 30.021 54.9095 30.1216 54.8501 30.3026C54.8501 30.3227 54.8501 30.3428 54.8303 30.3629V30.383C54.8303 30.4032 54.8104 30.4032 54.7906 30.4032C54.7708 30.4032 54.7708 30.383 54.7708 30.3629C54.7708 30.3026 54.751 30.2624 54.7113 30.2422C54.6717 30.2221 54.6122 30.202 54.5131 30.202C54.4933 30.3026 54.4734 30.3629 54.4536 30.383C54.414 30.5037 54.414 30.5842 54.3942 30.6244C54.3942 30.6445 54.3941 30.6647 54.4338 30.6848C54.4536 30.7049 54.4933 30.7049 54.5726 30.7049C54.8104 30.7049 54.9888 30.6445 55.088 30.5037C55.1078 30.4836 55.1078 30.4635 55.1276 30.4635C55.1474 30.4635 55.1474 30.4635 55.1474 30.4836C55.1474 30.4836 55.1474 30.5037 55.1276 30.5239L55.0087 30.7853H54.6717C54.5726 30.7853 54.4933 30.7853 54.414 30.7652C54.3347 30.7652 54.2752 30.7451 54.2157 30.7451C54.1563 30.7451 54.0968 30.7451 53.9779 30.725C53.958 30.725 53.958 30.725 53.958 30.725C53.9382 30.725 53.9184 30.7049 53.9184 30.6848C53.9184 30.6647 53.9382 30.6646 53.958 30.6646C54.0175 30.6646 54.0572 30.6647 54.0968 30.6244C54.1166 30.6043 54.1563 30.544 54.1761 30.4434L54.295 30.0009C54.3347 29.8601 54.3545 29.7595 54.3545 29.7193C54.3545 29.679 54.3545 29.6589 54.3347 29.6388C54.3149 29.6187 54.295 29.6187 54.2554 29.5986C54.2356 29.5986 54.2356 29.5785 54.2356 29.5785C54.2356 29.5584 54.2554 29.5583 54.2752 29.5583L54.4933 29.5785L55.2267 29.5986Z" fill="#0E1B29"/>
<path id="Vector_200" fill-rule="evenodd" clip-rule="evenodd" d="M41.9258 31.1883C41.9258 31.1883 42.8178 30.0619 42.6791 28.4326C42.6791 28.4326 42.1637 28.4728 42.1438 27.8895L41.1725 27.6079C41.1329 27.8493 40.9346 28.0303 40.6373 27.9297C40.6769 28.2315 40.6175 29.4584 40.0426 30.1021C40.0426 30.1021 40.5382 30.2429 40.3994 30.6854L41.2915 31.2486C41.2915 31.2486 41.6086 30.9067 41.9258 31.1883Z" fill="#FB8F79"/>
<path id="Vector_201" d="M40.4785 28.9551L40.5577 28.8143L40.756 28.9149C40.8551 28.754 40.9542 28.6333 41.0731 28.5931C41.1921 28.5528 41.2912 28.5327 41.3705 28.573C41.43 28.5931 41.4498 28.6333 41.4696 28.6936C41.4894 28.7339 41.4894 28.7942 41.4498 28.8546C41.43 28.9149 41.3903 28.935 41.3308 28.9551C41.2714 28.9752 41.2317 28.9752 41.1723 28.9551C41.1326 28.935 41.1128 28.8948 41.0731 28.8344C41.0533 28.7942 41.0335 28.7942 41.0335 28.7741C40.9939 28.754 40.9146 28.8143 40.8154 28.9551L41.3705 29.2367C41.5291 29.0758 41.6282 28.9752 41.6877 28.935C41.7471 28.8948 41.8264 28.8546 41.9255 28.8546C42.0246 28.8344 42.1238 28.8546 42.2229 28.9149C42.3815 28.9954 42.4806 29.116 42.5202 29.277C42.5599 29.4379 42.5401 29.6189 42.4806 29.8201L42.8572 30.0212L42.7779 30.162L42.4013 29.9609C42.322 30.1017 42.2229 30.2223 42.0643 30.3028C41.9057 30.3833 41.767 30.4034 41.648 30.3229C41.5885 30.2827 41.5489 30.2425 41.5291 30.1821C41.5092 30.1218 41.5093 30.0815 41.5489 30.0212C41.5885 29.9609 41.6282 29.9206 41.6877 29.9005C41.7471 29.8804 41.7868 29.8804 41.8462 29.9206C41.9057 29.9407 41.9454 30.0011 41.9454 30.0614C41.9454 30.1017 41.9652 30.1218 41.985 30.1419C42.0247 30.162 42.0643 30.1419 42.1238 30.1017C42.1832 30.0614 42.2625 30.0011 42.322 29.9005L41.6678 29.5586C41.4894 29.7396 41.3507 29.8603 41.2317 29.8804C41.1128 29.9005 40.9939 29.9005 40.8947 29.8402C40.756 29.7798 40.6767 29.6591 40.637 29.5183C40.5974 29.3574 40.6172 29.2166 40.6965 29.0557L40.4785 28.9551ZM40.7758 29.116C40.7362 29.2166 40.7163 29.2971 40.7362 29.3775C40.756 29.458 40.7956 29.5183 40.8551 29.5586C40.9542 29.6189 41.093 29.5586 41.2714 29.3775L40.7758 29.116ZM42.3815 29.7597C42.4211 29.6189 42.4409 29.4982 42.4013 29.4178C42.3616 29.3373 42.322 29.277 42.2625 29.2367C42.2229 29.2166 42.1634 29.1965 42.0841 29.2166C42.0048 29.2367 41.9057 29.2971 41.767 29.4379L42.3815 29.7597Z" fill="#0E1B29"/>
<path id="Vector_202" fill-rule="evenodd" clip-rule="evenodd" d="M37.1881 35.8547C37.1881 35.8547 38.5955 35.8345 39.6858 35.7138C39.6858 35.7138 39.4479 35.4322 39.9237 35.1909L39.666 34.1047C39.4479 34.1851 39.1902 34.2053 39.1109 34.0645C38.8929 34.2053 37.8621 34.7081 37.0493 34.7685C37.0493 34.7685 37.2079 34.9897 36.7718 35.1305L36.8114 35.6535C36.7916 35.6736 37.2475 35.6334 37.1881 35.8547Z" fill="#FB8F79"/>
<path id="Vector_203" d="M39.7056 34.6678L37.4457 35.9149H37.2475L39.5073 34.6678H39.7056ZM37.3664 34.9695C37.4259 34.8891 37.525 34.8086 37.6638 34.7483C37.8025 34.6879 37.9809 34.6477 38.1792 34.6477C38.3576 34.6477 38.4963 34.6879 38.5558 34.7483C38.6153 34.8086 38.6351 34.8891 38.5756 34.9695C38.5162 35.05 38.4171 35.1305 38.2585 35.1908C38.0999 35.2511 37.9413 35.2914 37.7629 35.2914C37.5647 35.2914 37.4457 35.2511 37.3863 35.1908C37.3268 35.1305 37.307 35.05 37.3664 34.9695ZM37.7232 34.9695C37.6638 35.05 37.644 35.1304 37.6638 35.1707C37.6836 35.2109 37.7232 35.231 37.8025 35.231C37.8818 35.231 37.9611 35.2109 38.0404 35.1506C38.1197 35.1103 38.1792 35.0299 38.2386 34.9494C38.2981 34.869 38.3179 34.8086 38.2981 34.7483C38.2783 34.708 38.2386 34.6678 38.1594 34.6678C38.0801 34.6678 38.0008 34.6879 37.9215 34.7483C37.8422 34.8287 37.7629 34.8891 37.7232 34.9695ZM38.3774 35.5931C38.4369 35.5126 38.536 35.4322 38.6748 35.3718C38.8135 35.3115 38.9919 35.2713 39.1902 35.2713C39.3686 35.2713 39.5073 35.3115 39.5668 35.3718C39.6263 35.4322 39.6461 35.5126 39.5866 35.5931C39.5271 35.6735 39.428 35.754 39.2694 35.8143C39.1109 35.8747 38.9523 35.9149 38.7739 35.9149C38.5955 35.9149 38.4765 35.8747 38.3972 35.8143C38.3179 35.754 38.3179 35.6937 38.3774 35.5931ZM38.7342 35.5931C38.6748 35.6735 38.6549 35.754 38.6748 35.7942C38.6946 35.8345 38.7342 35.8546 38.8135 35.8546C38.8928 35.8546 38.9721 35.8345 39.0514 35.7741C39.1307 35.7339 39.1901 35.6534 39.2496 35.573C39.3091 35.4925 39.3289 35.4322 39.3091 35.3718C39.2893 35.3316 39.2496 35.2914 39.1703 35.2914C39.091 35.2914 39.0117 35.3115 38.9325 35.3718C38.8532 35.4523 38.7739 35.5126 38.7342 35.5931Z" fill="#0E1B29"/>
</g>
</g>
</svg>
