<svg width="36" height="30" viewBox="0 0 36 30" fill="none" xmlns="http://www.w3.org/2000/svg">
<g id="Group">
<path id="Vector" d="M7.23047 19.0206V28.4761H8.27344L9.64746 26.653H8.91797V25.5378H11.1738L8.63086 22.1288L9.31641 21.3854L10.8574 23.4457V23.3643H14.6279C14.792 23.3643 14.9385 23.4705 15.0205 23.6298L16.1338 25.5343H18.2285C18.3662 25.5343 18.4922 25.6086 18.5771 25.7255L20.8711 28.4725H24.7383C26.5781 22.0297 27.8086 14.6168 26.2207 8.8147C23.373 10.3794 22.6904 14.3265 22.3477 19.1268C21.2373 15.7992 20.543 12.7618 22.1104 9.328C20.6133 9.52271 19.207 10.5953 17.7129 12.2485C18.9492 9.05188 20.9502 6.61987 24.5215 7.16858C22.5322 5.55786 20.1709 5.8269 17.8916 6.47119C20.2676 3.45154 22.8398 2.18066 25.9307 5.61096C26.0332 3.54004 25.3184 1.73462 24.3779 0C26.3818 0.959351 27.8789 2.01428 27.4102 6.39331C30.8291 2.90283 34.6582 4.38257 36 10.4962C33.4951 7.81641 30.8232 6.45703 27.9727 7.52258C32.9561 9.77759 34.2891 13.2468 32.1914 17.9763C30.6943 13.4167 29.1328 10.5422 27.3809 9.20764C28.4854 12.5707 29.4082 18.2135 27.624 28.4725H32.2354V29.7505H0V28.4725H6.24023V19.0206H0.418945C0.222656 19.0206 0.0585938 18.8295 0.0585938 18.5852C0.0585938 18.571 0.0585938 18.5569 0.0615234 18.5427C0.0761719 16.3798 0.823242 14.4221 2.02441 13.0061C3.20801 11.6113 4.83398 10.7369 6.62695 10.7051C6.66211 10.6909 6.7002 10.6838 6.73828 10.6838C6.77637 10.6838 6.81445 10.6909 6.84961 10.7051C8.63379 10.744 10.248 11.6184 11.4258 13.0061C12.6328 14.4327 13.3828 16.4045 13.3887 18.5852C13.3887 18.8259 13.2305 19.0171 13.0312 19.0171V19.0206H7.23047ZM10.5703 2.33643C10.5059 2.20544 10.5439 2.03552 10.6553 1.95764C10.7637 1.87976 10.9043 1.92578 10.9688 2.0603L11.2617 2.67627C11.3262 2.80725 11.2881 2.98071 11.1768 3.05505C11.0684 3.13293 10.9277 3.08691 10.8633 2.95593L10.5703 2.33643ZM12.4014 3.24976C12.9668 3.24976 13.4824 3.52588 13.8516 3.97546C14.2207 4.42151 14.4521 5.04456 14.4521 5.72778C14.4521 6.41101 14.2236 7.03052 13.8516 7.4801C13.4824 7.92969 12.9668 8.20581 12.4014 8.20581C11.8359 8.20581 11.3232 7.92969 10.9512 7.4801C10.582 7.03406 10.3506 6.41101 10.3506 5.72778C10.3506 5.04456 10.5791 4.42505 10.9512 3.97546C11.3232 3.52942 11.8359 3.24976 12.4014 3.24976ZM12.2197 1.68506C12.2197 1.53284 12.3223 1.4054 12.4512 1.4054C12.5771 1.4054 12.6826 1.5293 12.6826 1.68506V2.39661C12.6826 2.54883 12.5801 2.67627 12.4512 2.67627C12.3252 2.67627 12.2197 2.55237 12.2197 2.39661V1.68506ZM13.9189 2.11694C13.9834 1.98596 14.1211 1.93994 14.2324 2.01782C14.3408 2.0957 14.3789 2.26208 14.3174 2.39661L14.0244 3.01257C13.96 3.14355 13.8223 3.18958 13.7109 3.11523C13.6025 3.03735 13.5645 2.87097 13.6289 2.73645L13.9189 2.11694ZM15.208 3.5188C15.3164 3.44092 15.46 3.48694 15.5215 3.62146C15.583 3.75244 15.5479 3.92236 15.4365 4.00024L14.9297 4.35425C14.8213 4.43213 14.6807 4.38611 14.6162 4.25159C14.5518 4.12061 14.5898 3.95068 14.7012 3.8728L15.208 3.5188ZM15.7471 5.5083C15.873 5.5083 15.9785 5.6322 15.9785 5.78796C15.9785 5.94373 15.876 6.06763 15.7471 6.06763H15.1582C15.0322 6.06763 14.9268 5.94373 14.9268 5.78796C14.9268 5.6322 15.0293 5.5083 15.1582 5.5083H15.7471ZM15.3896 7.56152C15.498 7.6394 15.5361 7.80579 15.4746 7.94031C15.4102 8.07129 15.2725 8.11731 15.1611 8.04297L14.6514 7.68896C14.543 7.61108 14.5049 7.4447 14.5693 7.31018C14.6338 7.1792 14.7715 7.13318 14.8828 7.21106L15.3896 7.56152ZM14.2324 9.11914C14.2969 9.25012 14.2588 9.42358 14.1475 9.49792C14.0391 9.57581 13.8955 9.52979 13.834 9.39526L13.541 8.7793C13.4766 8.64832 13.5146 8.47839 13.626 8.40051C13.7344 8.32263 13.875 8.36865 13.9395 8.50317L14.2324 9.11914ZM12.583 9.77051C12.583 9.92273 12.4805 10.0502 12.3516 10.0502C12.2256 10.0502 12.123 9.92627 12.123 9.77051V9.05896C12.123 8.90674 12.2256 8.7793 12.3516 8.7793C12.4775 8.7793 12.583 8.9032 12.583 9.05896V9.77051ZM10.8838 9.33862C10.8193 9.4696 10.6816 9.51562 10.5703 9.43774C10.4619 9.35986 10.4238 9.19348 10.4854 9.05896L10.7783 8.44299C10.8428 8.31201 10.9805 8.26599 11.0918 8.34033C11.2002 8.41821 11.2383 8.58459 11.1738 8.71912L10.8838 9.33862ZM9.59473 7.94031C9.48633 8.01819 9.34277 7.97217 9.28125 7.83765C9.2168 7.70667 9.25488 7.53674 9.36328 7.45886L9.87305 7.10486C9.98145 7.02698 10.1221 7.073 10.1865 7.20752C10.251 7.3385 10.2129 7.50842 10.1016 7.5863L9.59473 7.94031ZM9.05566 5.94727C8.92969 5.94727 8.82422 5.82336 8.82422 5.6676C8.82422 5.51538 8.92676 5.38794 9.05566 5.38794H9.64453C9.77051 5.38794 9.87598 5.51184 9.87598 5.6676C9.87598 5.81982 9.77344 5.94727 9.64453 5.94727H9.05566ZM9.41309 3.89758C9.30469 3.8197 9.2666 3.65332 9.32812 3.5188C9.39258 3.38782 9.53027 3.3418 9.6416 3.41614L10.1514 3.77014C10.2598 3.84802 10.2979 4.0144 10.2334 4.14893C10.1689 4.27991 10.0312 4.32593 9.91992 4.24805L9.41309 3.89758ZM9.51856 28.4761H19.5586L18.0352 26.653H10.8926L9.51856 28.4761ZM12.4131 25.5343H15L14.3848 24.4794H11.625L12.4131 25.5343ZM10.9277 13.6256C10.4414 13.0521 9.86719 12.5742 9.2373 12.2273C9.48047 12.6521 9.68555 13.1371 9.85254 13.6716C10.2422 14.9142 10.4326 16.4435 10.4502 18.1533H12.6592C12.5654 16.3868 11.9209 14.8009 10.9277 13.6256ZM7.77539 11.6821C7.55273 11.6361 7.32715 11.6042 7.0957 11.5865V18.1569H9.73535C9.71777 16.5532 9.54199 15.1301 9.18164 13.9832C8.86523 12.9565 8.39941 12.1636 7.77539 11.6821ZM6.37793 11.583C6.15234 11.6007 5.92676 11.629 5.70996 11.6715C5.07715 12.1565 4.6084 12.9565 4.28906 13.9938C3.93457 15.1372 3.75879 16.5568 3.74121 18.1533H6.38086V11.583H6.37793ZM4.25391 12.2061C3.60645 12.5565 3.02051 13.0415 2.52539 13.6292C1.53223 14.8044 0.887695 16.3904 0.791016 18.1533H3.02637C3.04395 16.4541 3.23438 14.9283 3.61816 13.6893C3.78809 13.1371 3.99902 12.6379 4.25391 12.2061Z" fill="url(#paint0_linear_1072_284)"/>
</g>
<defs>
<linearGradient id="paint0_linear_1072_284" x1="18" y1="0" x2="18" y2="29.7505" gradientUnits="userSpaceOnUse">
<stop stop-color="#F10027"/>
<stop offset="1" stop-color="#B51B09"/>
</linearGradient>
</defs>
</svg>
