<svg width="33" height="33" viewBox="0 0 33 33" fill="none" xmlns="http://www.w3.org/2000/svg">
<g id="cinema 1" clip-path="url(#clip0_1_3829)">
<g id="Group">
<path id="Vector" d="M15.4881 0.0902367C14.8436 0.212696 14.4246 0.360939 13.8252 0.663868C12.8197 1.18594 12.0205 1.95293 11.4276 2.97129L11.1311 3.48047H8.57228C6.23264 3.48047 5.97482 3.49336 5.51721 3.60938C5.24006 3.68027 4.86623 3.81563 4.68576 3.91231C4.20881 4.16367 3.47404 4.91133 3.24201 5.38184C2.81017 6.23906 2.81662 6.15527 2.78439 9.73887L2.75861 13.0066L2.44924 13.0453C1.39221 13.1871 0.302948 14.2764 0.0644712 15.4301C0.019354 15.6557 0.00646336 18.3047 0.0129087 23.5898L0.0322446 31.4209L0.174041 31.7238C0.367401 32.1492 0.792791 32.5811 1.21818 32.7873L1.57912 32.9678H16.5H31.4209L31.7819 32.7873C32.2072 32.5811 32.6326 32.1492 32.826 31.7238L32.9678 31.4209L32.9871 23.5898C33 18.1242 32.9807 15.6557 32.9291 15.4172C32.6906 14.2699 31.6014 13.1871 30.5379 13.0453L30.2414 13.0066L30.2156 9.73887C30.1834 6.15527 30.1899 6.23906 29.758 5.38184C29.526 4.91133 28.7912 4.16367 28.3143 3.91231C27.8953 3.68672 27.0897 3.48047 26.6385 3.48047C26.3549 3.48047 26.2647 3.5127 26.1358 3.6416C25.936 3.83496 25.9295 4.08633 26.1229 4.27969C26.2453 4.3957 26.3678 4.43438 26.7803 4.4666C28.05 4.56328 29.0297 5.49785 29.1973 6.76758C29.2295 7.03184 29.2617 8.53359 29.2617 10.1063V12.9551L27.1863 12.9422L25.1174 12.9229L24.9756 12.5039C24.4922 11.0859 23.5641 9.71309 22.4362 8.72051C22.1203 8.44336 21.8883 8.18555 21.8947 8.12754C21.9012 8.06953 21.985 7.77949 22.0817 7.47656C22.2363 6.98672 22.2557 6.82559 22.2621 5.96191C22.2686 5.42695 22.2492 4.87266 22.217 4.71797L22.1719 4.44727H23.3901C24.4858 4.44727 24.6211 4.43438 24.7565 4.3248C24.9627 4.15723 24.9627 3.77051 24.7565 3.60293C24.6211 3.49336 24.4793 3.48047 23.2354 3.48047H21.869L21.5725 2.97129C20.7733 1.59844 19.4391 0.573635 17.9502 0.186916C17.2863 0.0193367 16.1197 -0.0257797 15.4881 0.0902367ZM17.7569 1.12793C18.6721 1.3793 19.6324 1.99805 20.2383 2.72637C20.6444 3.22266 21.0955 4.13789 21.2309 4.7502C21.3791 5.40762 21.3662 6.36797 21.2051 6.99961C20.7281 8.8752 19.2715 10.2416 17.3508 10.609C15.2754 11.0086 13.0518 9.88066 12.143 7.95996C11.7692 7.17363 11.6467 6.54844 11.6854 5.60742C11.7176 4.75664 11.8272 4.30547 12.1623 3.6416C12.8197 2.33965 14.0508 1.39219 15.501 1.06992C16.0553 0.94746 17.1961 0.973242 17.7569 1.12793ZM10.783 4.71797C10.7508 4.87266 10.7315 5.42695 10.7379 5.96191C10.7444 6.81914 10.7637 6.99316 10.9184 7.50879L11.0924 8.08887L10.8475 8.27578C10.7121 8.37891 10.2996 8.77207 9.9258 9.1459C8.93967 10.1385 8.22424 11.26 7.7924 12.5168L7.63771 12.9551H5.69123H3.7383V10.0998C3.74474 7.0125 3.78342 6.46465 4.02834 5.94902C4.36349 5.27227 5.08537 4.6793 5.77502 4.51816C5.91681 4.48594 7.1092 4.46016 8.43049 4.45371L10.8281 4.44727L10.783 4.71797ZM11.9819 9.4875C12.1688 9.73242 12.4266 10.016 12.5555 10.1191L12.794 10.3125L12.5684 10.493C11.8787 11.0215 11.1762 11.8529 10.7959 12.5813L10.6026 12.9551H9.64221H8.6883L8.73342 12.7746C8.8881 12.1365 9.70021 10.783 10.3576 10.0611C10.8024 9.56484 11.5436 8.93965 11.6016 9.0041C11.6274 9.03633 11.7949 9.24902 11.9819 9.4875ZM21.7658 9.4166C22.2492 9.83555 22.81 10.4865 23.1838 11.0537C23.4674 11.4727 23.9766 12.491 24.0733 12.8068L24.1119 12.9551H23.1516H22.1912L21.8432 12.3557C21.5854 11.9174 21.3147 11.5822 20.8119 11.0666L20.1223 10.377L20.3672 10.1836C20.5026 10.0805 20.7733 9.79043 20.9795 9.53906C21.1793 9.29414 21.3598 9.08789 21.3727 9.08789C21.3791 9.08789 21.5596 9.23613 21.7658 9.4166ZM14.1281 11.1439C14.9016 11.4984 15.5332 11.6273 16.5 11.6273C17.4604 11.6273 17.918 11.5371 18.743 11.202C19.1684 11.0215 19.2328 11.015 19.3811 11.0924C19.684 11.2535 20.4445 12.0076 20.7668 12.4652L21.0826 12.9229L16.4291 12.9422C13.8703 12.9486 11.7627 12.9422 11.7434 12.9229C11.6983 12.8842 11.9754 12.4717 12.3621 12.0076C12.6779 11.6338 13.4965 10.957 13.6383 10.957C13.677 10.957 13.8961 11.0408 14.1281 11.1439ZM30.5701 14.0508C31.1051 14.2184 31.5692 14.618 31.8205 15.1336L32.001 15.501L32.0203 17.802L32.0397 20.1094H18.6914H5.34318L5.18849 20.2705C4.98224 20.4703 4.98224 20.7152 5.18849 20.915L5.34318 21.0762H8.959H12.5684V26.5547V32.0332H11.6016H10.6348V29.223C10.6348 26.1035 10.6283 26.0133 10.2094 25.1883C9.94514 24.6598 9.3006 23.9637 8.81076 23.6672C6.80627 22.4619 4.13146 23.2031 3.12599 25.2334C2.73283 26.0326 2.70705 26.2646 2.70705 29.3068V32.0332H2.30744C1.8756 32.0332 1.46955 31.885 1.27619 31.6723C0.96037 31.3178 0.966815 31.408 0.966815 26.0713V21.0762H2.35256C3.74474 21.0762 3.74474 21.0762 3.89943 20.915C3.98967 20.8313 4.06056 20.683 4.06056 20.5928C4.06056 20.5025 3.98967 20.3543 3.89943 20.2705C3.74474 20.1094 3.74474 20.1094 2.35256 20.1094H0.96037L0.979706 17.802L0.999041 15.501L1.17951 15.1336C1.42443 14.6309 1.90139 14.2184 2.41056 14.0572C2.79728 13.9348 3.10666 13.9283 16.4742 13.9283C29.9965 13.9219 30.1576 13.9219 30.5701 14.0508ZM19.4649 21.9141V22.752H16.5H13.5352V21.9141V21.0762H16.5H19.4649V21.9141ZM32.0332 26.0713C32.0332 31.408 32.0397 31.3178 31.7238 31.6723C31.5369 31.8785 31.1244 32.0332 30.7313 32.0332H30.3574V29.4357C30.3574 26.7867 30.3252 26.3033 30.0996 25.6652C29.7774 24.7564 29.0555 23.9443 28.2047 23.5254C25.9037 22.391 23.2354 23.5254 22.5199 25.9488C22.4233 26.2775 22.4039 26.7029 22.3846 29.1779L22.3588 32.0332H21.392H20.4317V26.5547V21.0762H26.2324H32.0332V26.0713ZM19.4649 25.8779V28.0371H16.5H13.5352V25.8779V23.7188H16.5H19.4649V25.8779ZM7.28967 24.1055C8.35314 24.3053 9.22971 25.0852 9.54553 26.11C9.6551 26.4709 9.66799 26.7352 9.66799 29.2682V32.0332H6.67092H3.67385V29.3391C3.67385 26.4451 3.69318 26.2518 4.02189 25.6008C4.59553 24.4729 5.94904 23.8541 7.28967 24.1055ZM27.0188 24.1119C28.0113 24.3182 28.8106 25.0143 29.2037 26.0068C29.352 26.3871 29.3584 26.4193 29.3778 29.2102L29.3971 32.0332H26.3613H23.3256L23.3449 29.2102C23.3643 26.4193 23.3707 26.3871 23.519 26.0068C24.0926 24.5695 25.517 23.7961 27.0188 24.1119ZM19.4649 30.5186V32.0332H16.5H13.5352V30.5186V29.0039H16.5H19.4649V30.5186Z" fill="#E60023"/>
<path id="Vector_2" d="M15.9844 1.56629C15.6686 1.66941 15.1272 2.22371 15.0305 2.55242C14.85 3.15828 14.9789 3.64168 15.4366 4.09285C16.094 4.75672 17.0028 4.74383 17.6151 4.06062C18.1952 3.41609 18.1952 2.64266 17.6151 1.99813C17.1961 1.53406 16.5967 1.37293 15.9844 1.56629ZM16.8932 2.63621C17.0221 2.76512 17.0801 2.88758 17.0801 3.02937C17.0801 3.17117 17.0221 3.29363 16.8932 3.42254C16.7643 3.55145 16.6418 3.60945 16.5 3.60945C16.2229 3.60945 15.92 3.30652 15.92 3.02937C15.92 2.75223 16.2229 2.4493 16.5 2.4493C16.6418 2.4493 16.7643 2.5073 16.8932 2.63621Z" fill="#E60023"/>
<path id="Vector_3" d="M13.4062 4.31836C13.0969 4.37637 12.8326 4.52461 12.5877 4.78242C12.3041 5.07246 12.1816 5.40117 12.1816 5.8459C12.1881 6.71602 12.8262 7.34766 13.6963 7.34766C15.0562 7.34766 15.7395 5.76211 14.8049 4.75664C14.4826 4.40859 13.8832 4.22168 13.4062 4.31836ZM14.1152 5.44629C14.4504 5.80078 14.199 6.38086 13.7156 6.38086C13.374 6.38086 13.1484 6.15527 13.1484 5.81367C13.1484 5.29805 13.7543 5.06602 14.1152 5.44629Z" fill="#E60023"/>
<path id="Vector_4" d="M19.0137 4.31836C17.7762 4.55684 17.338 6.07148 18.2532 6.9416C18.5432 7.21875 18.8719 7.34766 19.3038 7.34766C20.1739 7.34766 20.812 6.71602 20.8184 5.8459C20.8184 5.40117 20.696 5.07246 20.4124 4.78242C20.0385 4.3957 19.51 4.21523 19.0137 4.31836ZM19.7098 5.4334C19.8065 5.53008 19.8516 5.63965 19.8516 5.81367C19.8516 6.56133 18.7559 6.58066 18.7366 5.83945C18.7237 5.32383 19.3102 5.07891 19.7098 5.4334Z" fill="#E60023"/>
<path id="Vector_5" d="M16.1778 5.47846C16.0231 5.63314 16.0038 6.00697 16.152 6.14877C16.4485 6.44525 16.8997 6.27123 16.9383 5.84584C16.977 5.414 16.4807 5.17553 16.1778 5.47846Z" fill="#E60023"/>
<path id="Vector_6" d="M15.9779 7.17368C14.966 7.55395 14.6309 8.7979 15.327 9.60356C15.7266 10.0805 16.2938 10.261 16.8932 10.1192C17.325 10.0161 17.8471 9.52622 17.9695 9.11372C18.1887 8.37251 17.86 7.58618 17.1897 7.24458C16.919 7.10278 16.268 7.06411 15.9779 7.17368ZM16.8932 8.2436C17.0221 8.37251 17.0801 8.49497 17.0801 8.63677C17.0801 8.77856 17.0221 8.90102 16.8932 9.02993C16.7643 9.15884 16.6418 9.21684 16.5 9.21684C16.2229 9.21684 15.9199 8.91392 15.9199 8.63677C15.9199 8.35962 16.2229 8.05669 16.5 8.05669C16.6418 8.05669 16.7643 8.1147 16.8932 8.2436Z" fill="#E60023"/>
<path id="Vector_7" d="M7.41862 14.966C6.70319 15.0756 6.05866 15.6041 5.80085 16.2809C5.29811 17.628 6.2069 19.0781 7.63132 19.1877C8.09538 19.2264 8.44343 19.1426 8.79792 18.9106C9.30065 18.5883 9.45534 18.15 9.15886 17.9051C8.93327 17.7246 8.67546 17.7569 8.40475 17.9953C8.18561 18.1887 8.12116 18.208 7.76667 18.208C7.43151 18.208 7.33483 18.1822 7.12858 18.0211C6.77409 17.7569 6.63874 17.4926 6.63874 17.093C6.63874 16.152 7.53464 15.617 8.37897 16.0488C8.72057 16.2229 8.98483 16.1778 9.12018 15.9135C9.25554 15.6557 9.18464 15.4237 8.90104 15.2432C8.4821 14.9725 7.97292 14.8758 7.41862 14.966Z" fill="#E60023"/>
<path id="Vector_8" d="M10.2674 14.9854C10.1643 15.0305 10.0547 15.1143 10.0289 15.1787C10.0096 15.2367 9.99023 16.0939 9.99023 17.0865V18.8912L10.1514 19.0459C10.2352 19.1361 10.3834 19.207 10.4736 19.207C10.5639 19.207 10.7121 19.1361 10.7959 19.0459L10.957 18.8912V17.1188C10.957 15.9328 10.9312 15.2947 10.8861 15.1852C10.783 14.966 10.5188 14.8822 10.2674 14.9854Z" fill="#E60023"/>
<path id="Vector_9" d="M19.6002 14.9919C19.4907 15.037 19.3747 15.1401 19.3424 15.2239C19.3102 15.3077 19.1491 16.1327 18.9815 17.0673L18.6721 18.7624L18.801 18.9364C18.8913 19.0524 19.0008 19.1169 19.1491 19.1298C19.4971 19.162 19.626 18.9687 19.7549 18.2081C19.929 17.2284 19.929 17.2284 20.1803 18.0856C20.4381 18.9815 20.567 19.1685 20.9151 19.1685C21.2696 19.1685 21.4049 18.9687 21.6563 18.0792C21.9012 17.2284 21.9012 17.2284 22.0752 18.1952C22.2106 18.9622 22.3395 19.1556 22.6747 19.1298C22.8293 19.1169 22.9389 19.0589 23.0356 18.93L23.1645 18.756L22.8293 17.0028C22.462 15.0757 22.4104 14.9532 22.0043 14.9532C21.579 14.9532 21.5016 15.0499 21.2696 15.8878C20.9602 17.0286 20.9344 17.0995 20.8829 17.0093C20.8571 16.9577 20.7282 16.5388 20.5928 16.0812C20.2834 14.9983 20.0901 14.7856 19.6002 14.9919Z" fill="#E60023"/>
<path id="Vector_10" d="M25.1818 15.0111C24.9885 15.1078 24.9369 15.2238 24.3182 16.8545C23.9508 17.8084 23.6543 18.6721 23.6543 18.7623C23.6543 18.9686 23.8992 19.207 24.1119 19.207C24.3633 19.207 24.5373 19.0395 24.6533 18.6914L24.7629 18.3691H25.4268H26.0906L26.2324 18.7236C26.3098 18.9234 26.4322 19.1104 26.4967 19.1426C26.8125 19.3166 27.1992 19.0975 27.1992 18.7494C27.1992 18.5045 25.9939 15.2883 25.8328 15.1078C25.6652 14.9209 25.4332 14.8822 25.1818 15.0111ZM25.6008 17.0607C25.6652 17.2283 25.7039 17.3701 25.691 17.3895C25.6781 17.4023 25.5492 17.4023 25.4074 17.3895L25.1561 17.3701L25.285 17.0285C25.3559 16.8416 25.4268 16.7062 25.4525 16.7256C25.4719 16.7449 25.5363 16.8996 25.6008 17.0607Z" fill="#E60023"/>
<path id="Vector_11" d="M11.9238 15.0819C11.8014 15.2044 11.7949 15.2946 11.7949 17.0477V18.8911L11.9561 19.0458C12.143 19.2392 12.3686 19.252 12.5748 19.0845C12.723 18.9685 12.7295 18.9169 12.7617 17.9823L12.7939 17.0026L13.3998 17.8985C14.1861 19.0522 14.2699 19.1425 14.5729 19.1425C14.7598 19.1425 14.8436 19.1038 14.9531 18.9685C15.082 18.8009 15.0885 18.7429 15.0691 17.0091C15.0498 15.3591 15.0434 15.2108 14.9273 15.0884C14.7727 14.9143 14.373 14.9015 14.2248 15.069C14.141 15.1657 14.1152 15.372 14.1023 16.1776L14.083 17.1767L13.4127 16.2099C13.0453 15.6749 12.6844 15.1786 12.6135 15.0948C12.4459 14.9143 12.1043 14.9015 11.9238 15.0819Z" fill="#E60023"/>
<path id="Vector_12" d="M15.9779 15.0756L15.8232 15.198V17.035C15.8232 18.7494 15.8297 18.8783 15.9457 19.0072C16.0617 19.1297 16.1326 19.1426 16.9898 19.1426C17.9051 19.1426 17.9115 19.1426 18.0404 18.975C18.2145 18.7494 18.208 18.6076 18.0211 18.3885C17.8729 18.2209 17.8213 18.208 17.3121 18.1822L16.7578 18.1629V17.8471V17.5312H17.2348C17.615 17.5312 17.7375 17.5055 17.8793 17.3959C18.0984 17.2219 18.1049 16.9383 17.8857 16.7256C17.7504 16.5838 17.673 16.5645 17.2412 16.5645H16.7578V16.2422V15.9199H17.2412C17.7826 15.9199 18.0018 15.8426 18.1049 15.617C18.208 15.3979 18.1951 15.3141 18.0404 15.1207C17.9115 14.9531 17.9051 14.9531 17.0156 14.9531C16.2357 14.9531 16.1068 14.966 15.9779 15.0756Z" fill="#E60023"/>
</g>
</g>
<defs>
<clipPath id="clip0_1_3829">
<rect width="33" height="33" fill="white"/>
</clipPath>
</defs>
</svg>
