<svg width="35" height="31" viewBox="0 0 35 31" fill="none" xmlns="http://www.w3.org/2000/svg">
<g id="Group">
<path id="Vector" d="M28.359 3.87122C28.006 3.78553 27.8026 3.47805 27.9013 3.18065C28.0031 2.88325 28.368 2.71187 28.721 2.79504C29.6633 3.02187 30.4531 3.3974 31.0603 3.95187C31.6676 4.51138 32.0744 5.23724 32.239 6.16724C32.2928 6.47219 32.0415 6.75699 31.6766 6.80236C31.3146 6.84772 30.9766 6.63602 30.9227 6.32854C30.8001 5.63293 30.5099 5.10114 30.0821 4.70797C29.6543 4.3148 29.068 4.0426 28.359 3.87122ZM11.3287 16.929L0.182545 7.07959C-0.0687371 6.85528 -0.0597627 6.50244 0.206477 6.29073C0.335109 6.1874 0.499639 6.13699 0.664169 6.13699V6.13447H5.01075L0.679126 2.48504C0.41887 2.26577 0.41887 1.91293 0.679126 1.69366C0.939382 1.47439 1.35819 1.47439 1.61844 1.69366L6.88938 6.13447H19.5133C19.6509 4.5013 20.4825 3.03195 21.7629 1.94065C23.1659 0.740975 25.1043 0 27.2462 0C29.3881 0 31.3266 0.740975 32.7325 1.94065C34.1325 3.1378 35.0001 4.78862 35.0001 6.61081C35.0001 8.43301 34.1325 10.0838 32.7325 11.281C31.3266 12.4806 29.3881 13.2216 27.2462 13.2216C26.2919 13.2216 25.3766 13.0729 24.527 12.8033C23.83 12.5815 23.1778 12.274 22.5885 11.8959L16.7522 16.9315V26.6046L21.2214 29.9944C21.4937 30.2011 21.5146 30.5539 21.2693 30.7833C21.1377 30.9067 20.9582 30.9672 20.7757 30.9672H7.40989C7.04195 30.9672 6.74579 30.7177 6.74579 30.4077C6.74579 30.2313 6.84152 30.075 6.99109 29.9717L11.3287 26.6046V16.929ZM20.8445 6.13447H27.689C28.0569 6.13447 28.3531 6.38398 28.3531 6.69398C28.3531 6.86032 28.2663 7.01154 28.1287 7.11488L23.5249 11.0894C23.9736 11.3616 24.4672 11.5885 24.9966 11.7573C25.6937 11.9791 26.4535 12.1026 27.2462 12.1026C29.0202 12.1026 30.6266 11.4902 31.7872 10.4997C32.9509 9.50667 33.6719 8.13309 33.6719 6.61333C33.6719 5.09358 32.9509 3.72 31.7872 2.72699C30.6266 1.7365 29.0202 1.12407 27.2462 1.12407C25.4723 1.12407 23.8659 1.7365 22.7052 2.72699C21.6642 3.61163 20.9791 4.80374 20.8445 6.13447ZM2.21374 7.2535L4.25391 9.05553C4.29579 9.04797 4.34066 9.04293 4.38853 9.04293H23.7642C23.8479 9.04293 23.9257 9.05553 24.0005 9.07821L26.1184 7.25098H2.21374V7.2535ZM5.50733 10.1645L12.4415 16.2914C12.5761 16.3947 12.6599 16.5409 12.6599 16.7072V26.8541C12.6599 27.0053 12.5881 27.1565 12.4445 27.2649L9.11203 29.8507H19.0496L15.6723 27.2901C15.5227 27.1867 15.424 27.0305 15.424 26.8541V16.7047H15.427C15.427 16.5636 15.4898 16.425 15.6154 16.3141L22.7441 10.162H5.50733V10.1645Z" fill="url(#paint0_linear_1072_578)"/>
</g>
<defs>
<linearGradient id="paint0_linear_1072_578" x1="17.5002" y1="0" x2="17.5002" y2="30.9672" gradientUnits="userSpaceOnUse">
<stop stop-color="#F10027"/>
<stop offset="1" stop-color="#B51B09"/>
</linearGradient>
</defs>
</svg>
