<svg width="35" height="30" viewBox="0 0 35 30" fill="none" xmlns="http://www.w3.org/2000/svg">
<g id="Entertainment" clip-path="url(#clip0_1_3847)">
<path id="Vector" fill-rule="evenodd" clip-rule="evenodd" d="M26.3927 22.9187H23.0165C22.2663 22.9187 21.6524 23.5908 21.6524 24.4129V29.9949H27.7568V24.4129C27.7568 23.5908 27.1429 22.9187 26.3927 22.9187ZM17.4914 3.96699H21.4103C21.9271 3.96699 22.3488 4.42937 22.3488 4.99515V7.68641C22.3488 7.96893 22.2437 8.22597 22.0734 8.41238C21.9031 8.59879 21.6683 8.71456 21.4103 8.71456H19.1143L17.6883 10.0558C17.6224 10.1184 17.5227 10.1097 17.4655 10.0369C17.452 10.02 17.4418 10.0004 17.4354 9.97911C17.429 9.95785 17.4266 9.93541 17.4282 9.91311L17.504 8.71383H17.4914C17.2333 8.71383 16.9985 8.59879 16.8283 8.41238C16.658 8.22597 16.5523 7.96893 16.5523 7.68641V4.99515C16.5523 4.42937 16.9739 3.96699 17.4914 3.96699ZM3.774 0.0881068C8.3826 0.720874 12.9799 1.0318 17.5659 1.02961C22.1519 1.0267 26.7498 0.709951 31.3584 0.0881068L32.0029 0.00145631V18.3284L31.3584 18.2425C26.7498 17.6265 22.1519 17.3068 17.5659 17.301C12.9693 17.2959 8.37263 17.6032 3.776 18.2396L3.1295 18.3291V0L3.774 0.0881068ZM17.5659 2.28277C13.1269 2.28495 8.69787 2.00097 4.27883 1.42282V16.9092C8.70785 16.3245 13.1375 16.0427 17.5659 16.0478C22.0056 16.0536 26.4346 16.3456 30.8536 16.91V1.42136C26.4346 1.99078 22.0056 2.27985 17.5659 2.28277ZM9.71949 14.7408C9.52927 14.7408 9.37496 14.5718 9.37496 14.3629C9.37496 14.1546 9.52927 13.9857 9.71949 13.9857H25.6045C25.7947 13.9857 25.9497 14.1546 25.9497 14.3629C25.9497 14.5718 25.7947 14.7408 25.6045 14.7408H9.71949ZM19.0371 12.7216C18.8469 12.7216 18.6919 12.5519 18.6919 12.3437C18.6919 12.1354 18.8469 11.9658 19.0371 11.9658H25.6045C25.7947 11.9658 25.9497 12.1354 25.9497 12.3437C25.9497 12.5519 25.7947 12.7216 25.6045 12.7216H19.0371ZM21.1828 10.7017C21.0913 10.7017 21.0036 10.6619 20.9389 10.5911C20.8743 10.5203 20.8379 10.4243 20.8379 10.3242C20.8379 10.224 20.8743 10.128 20.9389 10.0572C21.0036 9.98638 21.0913 9.9466 21.1828 9.9466H25.5945C25.7848 9.9466 25.9397 10.1155 25.9397 10.3245C25.9397 10.5328 25.7848 10.7017 25.5945 10.7017H21.1828ZM13.1103 11.424H13.2154C13.3098 11.424 13.387 11.3396 13.387 11.2362V10.9318C13.387 10.8284 13.3098 10.7439 13.2154 10.7439H12.5941C12.4997 10.7439 12.4225 10.8284 12.4225 10.9318V11.2362C12.4225 11.3396 12.4997 11.424 12.5941 11.424H12.7006L12.4964 12.5578H13.3065L13.1103 11.424ZM9.52794 12.5578C9.60842 11.4146 9.40423 11.4633 10.2782 11.1051C10.7152 10.926 11.1029 10.6995 11.5033 10.425L12.2536 12.5578H9.52794ZM14.3387 10.3282C14.7052 10.5852 15.0557 10.7956 15.4714 10.9478C16.2875 11.2449 16.2849 11.2864 16.2796 12.5578H13.5645L14.3387 10.3282ZM12.0235 9.76966C12.0428 9.59417 11.5672 8.92354 11.4801 8.60243C11.2938 8.2784 11.228 7.76359 11.4308 7.42136C11.5113 7.28519 11.4767 7.16723 11.4767 6.97937C11.4767 5.11602 14.4598 5.11529 14.4598 6.97937C14.4598 7.21529 14.4106 7.2699 14.5263 7.45631C14.7212 7.76578 14.6214 8.31553 14.4565 8.60316C14.3507 8.94102 13.8519 9.57888 13.8865 9.77039C13.9177 10.7272 12.0175 10.6951 12.0235 9.76966ZM19.0724 5.23107L20.2882 6.16019C20.3408 6.1966 20.3727 6.25995 20.3727 6.3284C20.3727 6.3932 20.3434 6.45437 20.2949 6.49223L19.083 7.40825C19.0511 7.43811 19.0099 7.45413 18.968 7.45413H18.966C18.8655 7.45413 18.7837 7.36456 18.7837 7.25461V5.39126C18.7837 5.28131 18.8649 5.19248 18.9653 5.19248C19.0039 5.19248 19.0418 5.20558 19.0724 5.23107ZM16.0348 22.9187H19.4103C20.1612 22.9187 20.7751 23.5908 20.7751 24.4129V29.9949H14.67V24.4129C14.67 23.5908 15.2839 22.9187 16.0348 22.9187ZM5.57182 19.3478H8.94729C9.69821 19.3478 10.3121 20.0206 10.3121 20.842V21.9357H9.05238C8.42983 21.9357 7.86381 22.2138 7.4541 22.6624C7.38094 22.7432 7.31243 22.8291 7.24924 22.9194C7.18672 22.8291 7.11822 22.7432 7.04439 22.6624C6.63534 22.2138 6.06932 21.9357 5.44611 21.9357H4.20699V20.842C4.20699 20.0199 4.82156 19.3478 5.57182 19.3478ZM29.8939 19.3478H26.5184C25.7681 19.3478 25.1536 20.0206 25.1536 20.842V21.9357H26.3927C27.0152 21.9357 27.5812 22.2138 27.991 22.6624C28.0688 22.7476 28.1413 22.84 28.2078 22.9369C28.273 22.8415 28.3441 22.7505 28.4213 22.666L28.4266 22.6602C28.8376 22.2131 29.4017 21.9357 30.0196 21.9357H31.2587V20.842C31.2587 20.0199 30.6441 19.3478 29.8939 19.3478ZM19.536 19.3478H22.9114C23.6624 19.3478 24.2763 20.0206 24.2763 20.842V21.9357H23.0165C22.394 21.9357 21.828 22.2138 21.4183 22.6624C21.3451 22.7432 21.2766 22.8291 21.2134 22.9194C21.1509 22.8291 21.0824 22.7432 21.0085 22.6624C20.5995 22.2138 20.0335 21.9357 19.4103 21.9357H18.1711V20.842C18.1711 20.0199 18.7857 19.3478 19.536 19.3478ZM15.9297 19.3478H12.5542C11.8033 19.3478 11.1894 20.0206 11.1894 20.842V21.9357H12.4285C13.0511 21.9357 13.6171 22.2138 14.0268 22.6624C14.1 22.7432 14.1685 22.8284 14.2317 22.9194C14.2942 22.8284 14.3627 22.7432 14.4358 22.6624C14.8456 22.2138 15.4116 21.9357 16.0348 21.9357H17.2945V20.842C17.2945 20.0199 16.68 19.3478 15.9297 19.3478ZM12.4285 22.9187H9.05238C8.30212 22.9187 7.68822 23.5908 7.68822 24.4129V29.9949H13.7927V24.4129C13.7927 23.5908 13.1788 22.9187 12.4285 22.9187ZM2.07063 22.9187H5.44611C6.19636 22.9187 6.81093 23.5908 6.81093 24.4129V29.9949H0.705811V24.4129C0.705811 23.5908 1.31971 22.9187 2.07063 22.9187ZM30.0196 22.9187H33.395C34.146 22.9187 34.7599 23.5908 34.7599 24.4129V29.9949H28.6547V24.4129C28.6547 23.5908 29.2693 22.9187 30.0196 22.9187Z" fill="url(#paint0_linear_1_3847)"/>
</g>
<defs>
<linearGradient id="paint0_linear_1_3847" x1="17.7328" y1="0" x2="17.7328" y2="29.9949" gradientUnits="userSpaceOnUse">
<stop stop-color="#F10027"/>
<stop offset="1" stop-color="#B51B09"/>
</linearGradient>
<clipPath id="clip0_1_3847">
<rect width="34.0541" height="30" fill="white" transform="translate(0.705811)"/>
</clipPath>
</defs>
</svg>
