<svg width="36" height="36" viewBox="0 0 36 36" fill="none" xmlns="http://www.w3.org/2000/svg">
<g id="iconamoon:shopping-bag-thin">
<g id="Group">
<path id="Vector" d="M3.78955 12.6711H32.2105L30.7273 28.9795C30.6471 29.8621 30.2398 30.6829 29.5855 31.2808C28.9312 31.8786 28.077 32.2102 27.1907 32.2106H8.80941C7.92309 32.2102 7.06892 31.8786 6.41458 31.2808C5.76023 30.6829 5.35298 29.8621 5.27277 28.9795L3.78955 12.6711Z" stroke="#E60023" stroke-linejoin="round"/>
<path id="Vector_2" d="M10.8948 16.2237V10.8948C10.8948 9.01037 11.6434 7.20312 12.9759 5.87063C14.3083 4.53814 16.1156 3.78955 18 3.78955C19.8844 3.78955 21.6917 4.53814 23.0242 5.87063C24.3567 7.20312 25.1053 9.01037 25.1053 10.8948V16.2237" stroke="#E60023" stroke-linecap="round"/>
</g>
</g>
</svg>
