<svg width="34" height="34" viewBox="0 0 34 34" fill="none" xmlns="http://www.w3.org/2000/svg">
<g id="streamline:food-burger-drink-burger-fast-cook-cooking-nutrition-food" clip-path="url(#clip0_1_3805)">
<path id="Vector" d="M1.21429 18.2144H32.7857M9.71429 1.21436H24.2857C26.5401 1.21436 28.7021 2.10989 30.2961 3.70395C31.8902 5.29801 32.7857 7.46002 32.7857 9.71436C32.7857 10.3585 32.5299 10.9762 32.0744 11.4316C31.619 11.8871 31.0012 12.1429 30.3572 12.1429H3.64287C2.99877 12.1429 2.38105 11.8871 1.92561 11.4316C1.47016 10.9762 1.21429 10.3585 1.21429 9.71436C1.21429 7.46002 2.10983 5.29801 3.70389 3.70395C5.29795 2.10989 7.45995 1.21436 9.71429 1.21436ZM31.5714 24.2858H17L13.3572 27.9286L6.07144 24.2858H2.42858C2.10653 24.2858 1.79767 24.4137 1.56995 24.6414C1.34223 24.8692 1.21429 25.178 1.21429 25.5001C1.21429 27.4324 1.98189 29.2855 3.34823 30.6518C4.71457 32.0182 6.56772 32.7858 8.50001 32.7858H25.5C27.4323 32.7858 29.2855 32.0182 30.6518 30.6518C32.0181 29.2855 32.7857 27.4324 32.7857 25.5001C32.7857 25.178 32.6578 24.8692 32.4301 24.6414C32.2023 24.4137 31.8935 24.2858 31.5714 24.2858Z" stroke="#E60023" stroke-linecap="round" stroke-linejoin="round"/>
</g>
<defs>
<clipPath id="clip0_1_3805">
<rect width="34" height="34" fill="white"/>
</clipPath>
</defs>
</svg>
