<svg width="18" height="33" viewBox="0 0 18 33" fill="none" xmlns="http://www.w3.org/2000/svg">
<path id="Vector" d="M17.3117 0.726381C17.7524 1.19162 18 1.82254 18 2.48039C18 3.13825 17.7524 3.76916 17.3117 4.23441L5.67462 16.515L17.3117 28.7955C17.7399 29.2635 17.9769 29.8901 17.9715 30.5406C17.9662 31.1911 17.7189 31.8134 17.283 32.2734C16.8472 32.7333 16.2575 32.9943 15.6411 32.9999C15.0247 33.0056 14.4309 32.7555 13.9875 32.3036L0.688318 18.269C0.247588 17.8037 0 17.1728 0 16.515C0 15.8571 0.247588 15.2262 0.688318 14.761L13.9875 0.726381C14.4283 0.261279 15.0262 0 15.6496 0C16.273 0 16.8708 0.261279 17.3117 0.726381Z" fill="#E60023"/>
</svg>
