<svg width="17" height="33" viewBox="0 0 17 33" fill="none" xmlns="http://www.w3.org/2000/svg">
<path id="Vector" d="M0.650078 32.2736C0.233833 31.8084 0 31.1775 0 30.5196C0 29.8618 0.233833 29.2308 0.650078 28.7656L11.6406 16.485L0.650078 4.20445C0.24563 3.73654 0.0218353 3.10985 0.0268936 2.45936C0.0319519 1.80887 0.265459 1.18663 0.677124 0.726643C1.08879 0.266659 1.64567 0.00574493 2.22783 9.15527e-05C2.80999 -0.00556183 3.37085 0.244503 3.7896 0.696423L16.3499 14.731C16.7662 15.1963 17 15.8272 17 16.485C17 17.1429 16.7662 17.7738 16.3499 18.239L3.7896 32.2736C3.37323 32.7387 2.80859 33 2.21984 33C1.63109 33 1.06645 32.7387 0.650078 32.2736Z" fill="#E60023"/>
</svg>
